<?xml version="1.0" encoding="UTF-8" standalone="no"?><!DOCTYPE svg PUBLIC "-//W3C//DTD SVG 1.1//EN" "http://www.w3.org/Graphics/SVG/1.1/DTD/svg11.dtd"><svg width="100%" height="100%" viewBox="0 0 1553 1553" version="1.1" xmlns="http://www.w3.org/2000/svg" xmlns:xlink="http://www.w3.org/1999/xlink" xml:space="preserve" xmlns:serif="http://www.serif.com/" style="fill-rule:evenodd;clip-rule:evenodd;stroke-linecap:round;stroke-linejoin:round;"><ellipse cx="776.326" cy="776.326" rx="776.326" ry="776.326" style="fill:#fff;"/><g id="Ebene-1" serif:id="Ebene 1"><g id="g3421"><path id="stamm_silberfuechse" d="M193.77,879.417l0.841,5.885l0.42,5.885l-0.21,5.885l-1.261,11.35l-1.681,6.305l-2.311,4.414l-3.783,3.363l-5.463,3.153l-6.514,2.732l-7.775,1.681l-4.203,0.211l-2.942,-0.631l-2.101,-1.892l-1.051,-3.152l-0.21,-1.051l0.63,-2.522l2.312,-3.784l7.985,-8.617l2.101,-3.153l3.152,-6.305l1.051,-3.153l0.63,-3.153l0,-3.152l-0.63,-5.255l-1.681,-3.783l-2.312,-2.522l-1.471,-0.841l-2.731,-0.21l-1.892,1.051l-1.681,2.522l-1.26,3.783l-3.363,17.445l-3.362,10.509l-2.942,5.885l-3.572,4.834l-3.992,4.204l-4.623,3.363l-5.044,2.312l-5.673,1.471l-3.783,0.421l-3.782,-0l-3.362,-0.421l-3.572,-0.63l-3.362,-1.261l-6.305,-3.363l-5.883,-5.045l-4.833,-6.095l-3.783,-7.146l-1.471,-3.993l-2.101,-8.828l-0.841,-6.936l0,-10.089l0.211,-4.203l-1.471,-4.624l-1.261,-3.994l-0.21,-1.681l0.42,-2.943l1.681,-3.153l2.522,-3.362l5.043,-5.045l5.463,-3.573l3.783,-1.471l3.992,-0.631l2.312,0.21l2.101,0.631l1.891,0.841l1.471,1.471l1.471,1.681l0.841,1.892l0.63,3.363l-0.42,2.522l-2.101,5.044l-5.674,9.248l-1.681,3.784l-1.051,4.414l0,3.993l0.841,3.993l1.26,2.943l1.892,2.102l2.311,0.63l1.261,0l2.942,-1.471l1.051,-1.681l2.311,-5.885l1.261,-9.248l1.681,-11.981l1.471,-5.885l3.362,-7.777l2.942,-4.413l3.782,-3.153l4.203,-2.943l5.043,-2.101l5.464,-1.262l4.202,-0.42l3.783,-0.21l3.992,0.42l3.783,0.841l3.782,1.261l3.572,1.892l6.725,4.834l3.152,2.942l2.731,3.363l4.833,7.777l1.892,4.414l1.681,4.624l1.471,5.044l1.05,5.255l0,-0Zm-116.414,-151.541l-0.63,-2.732l-1.261,-5.675l0.21,-2.733l1.051,-2.942l2.311,-2.943l3.362,-2.942l6.725,-3.573l6.724,-2.312l4.623,-0.631l5.463,0.42l2.732,0.631l2.312,0.841l2.521,2.312l1.891,2.732l0.631,3.573l-0,3.153l-1.051,2.942l-1.891,2.943l-4.413,3.573l-8.195,4.624l-1.891,2.102l-0.421,1.261l0.421,1.681l1.05,1.262l1.892,0.63l3.572,0.21l11.347,0.421l32.151,1.681l7.985,-0.21l2.941,-0.631l2.732,-1.471l2.102,-2.522l2.101,-4.204l2.732,-2.312l2.101,-0.63l2.732,0.21l2.521,1.051l2.102,1.891l1.891,2.943l1.261,4.204l0.84,5.044l0.631,10.089l-0,8.197l-0.841,9.878l-1.471,7.987l-2.521,5.885l-2.942,4.204l-2.312,1.261l-2.521,0.42l-2.312,-0.42l-1.891,-1.261l-2.312,-3.363l-1.891,-4.414l-1.261,-1.471l-3.992,-1.892l-6.094,-1.471l-9.036,-1.261l-17.021,-1.051l-18.071,-0.42l-6.304,0.63l-2.312,1.261l-0.84,2.102l0.63,2.102l3.362,3.363l8.196,6.515l2.731,3.363l1.261,2.943l0.42,3.153l-0.21,1.891l-0.63,1.682l-1.051,1.681l-3.152,2.522l-1.891,0.841l-2.101,0.42l-4.833,0l-5.464,-1.681l-6.094,-2.732l-5.883,-3.574l-5.464,-4.624l-2.732,-3.783l-0.63,-2.522l-0,-1.892l1.891,-6.515l1.681,-51.915l0,-0Zm75.018,-90.798l1.471,-5.885l2.732,-10.93l1.471,-5.675l-6.725,1.051l-5.673,1.051l-4.623,1.051l-3.152,1.261l-2.102,1.051l-0.84,1.051l0.21,1.261l1.051,1.681l1.891,1.892l3.152,2.732l4.833,3.784l6.304,4.624l-0,-0Zm24.586,52.755l-2.102,-1.051l-1.681,-1.681l-1.05,-2.522l-1.051,-5.885l-1.891,-3.363l-6.935,-6.936l-12.188,-9.879l-34.461,-25.852l-11.138,-7.357l-7.985,-4.413l-2.311,-2.943l-0.42,-1.681l-0,-1.892l0.84,-5.254l1.891,-6.096l2.732,-4.624l3.362,-3.573l5.884,-3.573l7.985,-2.732l14.499,-3.573l23.325,-4.204l32.991,-5.465l7.145,-1.891l2.731,-1.472l4.203,-5.044l1.891,-1.261l2.312,-0.21l2.311,0.63l2.312,1.472l1.681,2.312l0.84,2.942l0.421,3.994l-0.211,4.624l-0.63,5.885l-3.362,14.712l-3.152,10.509l-3.152,7.147l-2.942,4.413l-2.101,1.892l-2.102,0.841l-2.521,-0.21l-2.942,-1.472l-1.891,-2.522l-1.681,-6.515l-0.841,-0.841l-1.891,-0.631l-1.471,0.21l-2.101,1.682l-2.732,4.834l-2.732,8.197l-2.942,11.56l-0.63,5.675l0.63,2.732l0.631,1.261l1.26,1.051l2.312,0.631l1.471,-0l1.891,-1.682l2.732,-3.993l1.471,-1.051l2.101,-0.42l3.572,0.63l2.732,2.102l1.051,2.102l0.84,2.732l0.21,3.363l-0.42,6.516l-2.521,10.509l-2.942,8.407l-2.732,4.414l-2.942,2.732l-3.152,1.261l-2.311,-0.21l-0,0Zm37.193,-136.408l-2.311,-2.312l-1.051,-2.312l-0.21,-2.522l-0,-3.993l-0.841,-2.102l-5.253,-4.624l-12.608,-8.197l-28.998,-16.184l-6.935,-3.153l-3.152,-0.63l-2.732,0.21l-7.985,3.363l-2.311,-0l-3.152,-0.631l-2.522,-2.312l-1.05,-2.102l-0.421,-2.522l0.631,-4.834l2.101,-6.095l4.833,-9.879l4.623,-7.146l4.833,-4.834l3.362,-0.841l9.456,-0.63l8.826,-0.21l18.702,-0.211l6.724,-0.84l2.522,-1.051l0.63,-1.472l-0.42,-2.522l-1.471,-3.152l-16.18,-23.751l-3.152,-5.465l-1.681,-5.254l-0.421,-3.153l0.21,-3.363l1.682,-6.095l3.152,-6.936l5.673,-9.038l3.572,-4.203l3.152,-2.102l2.312,-0.631l2.311,0.21l3.152,1.472l1.681,2.101l0.631,1.682l0.42,4.414l1.891,2.942l4.833,4.204l11.137,7.146l19.753,10.719l13.238,6.096l8.616,3.362l2.311,0.211l4.623,-2.523l2.312,-0.42l2.311,0.21l2.312,0.631l2.732,2.522l1.05,2.312l0.21,2.732l-0.84,5.255l-2.942,7.566l-6.514,12.401l-6.304,10.089l-4.203,4.414l-2.521,1.681l-2.312,0.841l-2.732,-0l-3.152,-1.472l-2.101,-2.312l-1.051,-2.942l-0.42,-4.204l-1.471,-2.312l-4.203,-3.363l-13.238,-7.566l-3.572,-1.471l-1.891,-0l-1.051,0.84l-0.841,1.472l0.421,1.681l2.101,3.993l20.803,26.904l3.783,6.515l1.05,3.363l-0.63,1.472l-2.732,1.261l-5.043,0.63l-11.978,-0.21l-13.448,-0.841l-12.818,-1.471l-5.044,0.21l-1.891,0.631l-0.42,0.63l-0.21,0.841l1.05,1.892l2.942,2.312l13.659,7.986l6.514,2.943l1.471,0.42l2.101,-0.21l6.094,-3.153l2.312,-0.63l2.311,0.42l2.732,1.682l1.681,2.522l0.42,2.102l-0.63,4.203l-1.891,5.465l-6.094,11.35l-3.572,5.044l-4.203,4.204l-3.152,1.261l-1.891,-0l-2.102,-0.631l0,0Zm74.388,-133.675l-1.892,-2.942l-0.42,-2.312l0.42,-2.523l1.261,-3.783l-0.21,-1.471l-1.681,-3.363l-7.985,-9.248l-13.239,-13.452l-17.651,-16.394l-5.253,-3.783l-4.203,-1.261l-8.405,1.471l-2.522,-0.42l-2.731,-1.472l-1.471,-1.891l-0.841,-3.363l0.21,-2.732l1.891,-4.414l3.363,-5.255l7.354,-8.197l6.304,-5.885l4.833,-3.153l1.681,-0.63l4.413,0.42l13.239,2.943l21.223,5.254l6.724,0.841l2.522,-0.42l1.261,-1.261l0.21,-2.523l-1.471,-5.675l-7.565,-20.597l-2.521,-8.408l-0.631,-3.783l-0.21,-3.573l0.42,-3.363l1.892,-5.044l3.572,-5.465l7.355,-8.197l5.253,-4.414l4.203,-2.522l2.521,-0.63l2.312,-0l3.152,1.471l2.311,2.102l0.841,2.732l-0.631,5.465l0.42,1.891l2.102,3.784l6.724,8.197l18.072,17.235l13.868,11.56l7.565,5.254l2.312,0.841l5.043,-1.051l1.261,-0.21l3.362,0.84l2.732,2.312l1.26,2.102l0.211,2.522l-0.211,2.733l-1.26,3.152l-3.783,5.886l-6.094,7.356l-9.876,10.089l-5.884,5.044l-4.833,2.312l-1.261,0.42l-2.731,0.21l-2.312,-0.63l-2.942,-2.312l-1.26,-2.732l-0.211,-2.102l0.421,-5.255l-0.841,-2.522l-3.152,-4.414l-10.717,-10.509l-3.362,-2.102l-1.681,-0.63l-1.471,0.42l-0.84,1.261l-0.211,1.892l1.051,4.204l12.818,29.635l2.102,6.516l0.84,3.363l-0.21,2.522l-0.841,1.261l-2.101,0.63l-2.942,-0.21l-4.623,-0.84l-12.398,-3.574l-10.296,-3.573l-11.978,-4.413l-5.043,-1.262l-2.101,0.211l-0.841,1.261l0,0.84l1.051,2.312l9.246,9.669l8.405,7.146l2.101,1.261l2.312,0.631l2.521,-0.631l2.732,-0.841l2.732,-0.21l2.101,0.421l1.891,1.261l1.471,1.681l0.631,1.892l0.21,2.102l-0.63,2.312l-2.102,4.203l-3.782,5.044l-8.826,9.248l-4.623,3.574l-3.782,1.891l-2.101,0.421l-2.942,-0.421l-1.681,-1.261l-0,0Zm183.236,-150.069l-5.253,2.942l-5.464,2.522l-11.347,3.784l-7.565,1.471l-4.202,0.42l-4.833,-0.63l-4.623,-2.312l-4.833,-3.994l-4.833,-5.254l-4.413,-6.516l-1.681,-3.783l-0.421,-1.682l0,-1.471l1.051,-2.522l2.312,-2.102l2.311,-0.841l2.732,0l4.833,1.261l9.036,3.784l3.572,1.051l7.144,0.63l6.515,-0.841l2.941,-1.05l2.942,-1.472l3.362,-2.522l2.312,-2.942l0.63,-1.682l0.211,-1.261l-0.211,-1.681l-1.26,-1.892l-2.312,-1.051l-3.362,-0.42l-7.355,1.051l-12.398,2.312l-7.564,0.63l-6.935,-0.21l-6.304,-1.051l-5.463,-1.892l-5.044,-2.732l-4.412,-3.363l-3.573,-4.414l-3.362,-5.885l-1.471,-3.363l-0.84,-3.363l-0.631,-3.573l0,-3.573l0.21,-3.573l1.682,-7.146l3.362,-7.146l4.623,-6.306l6.094,-5.885l7.354,-5.044l6.304,-3.153l13.449,-5.044l7.144,-5.675l2.732,-1.261l3.362,-0l5.884,1.261l6.514,3.153l3.782,2.312l4.203,4.414l1.891,3.573l0.841,2.312l0.21,1.891l-0.21,2.102l-0.841,2.102l-1.05,1.892l-3.152,2.732l-2.312,0.841l-3.152,0.42l-5.884,-0.631l-8.615,-1.891l-4.203,-0l-4.202,0.63l-3.993,1.472l-3.362,2.101l-2.312,2.312l-0.84,1.051l-0.42,2.733l0.21,1.261l1.471,2.312l1.471,0.63l3.992,0.841l5.884,-0.631l7.565,-1.471l11.767,-2.942l6.094,-0.841l2.942,-0l5.464,0.42l5.043,1.472l4.623,1.891l3.992,2.943l3.783,3.783l3.152,4.624l2.101,3.783l1.471,3.784l1.051,3.783l0.63,3.993l0,3.784l-0.42,3.993l-0.841,3.993l-1.471,3.994l-1.681,3.993l-4.623,7.357l-2.942,3.573l-7.144,6.726l-8.616,5.885l0,-0Zm62.83,-48.762l-0.42,-2.312l0.21,-2.312l2.102,-3.784l2.941,-4.414l0.211,-2.312l-0.421,-3.993l-4.202,-13.031l-13.239,-35.311l-1.891,-3.783l-2.522,-2.943l-3.572,-1.261l-3.572,-0.84l-2.732,-1.472l-1.681,-2.522l-0.42,-2.522l0.42,-2.522l1.471,-2.522l4.203,-3.784l6.094,-3.783l11.557,-5.254l11.978,-3.784l6.934,-1.261l3.572,0l1.681,0.21l3.573,1.682l1.681,1.892l0.84,2.312l0,1.891l-1.051,3.363l-3.152,4.834l-0.21,2.733l1.681,7.356l7.565,22.069l8.826,23.12l3.362,6.305l2.101,1.472l6.094,2.101l2.942,1.682l1.681,2.312l0.42,2.522l-0.42,2.522l-1.471,2.522l-3.992,3.784l-6.304,3.783l-11.768,5.255l-9.246,2.942l-7.565,1.471l-6.304,0.21l-3.362,-0.42l-2.521,-1.261l-1.681,-1.892l-0.421,-1.05l0,-0Zm143.942,-30.477l-49.802,9.458l-2.101,0.211l-1.891,-0.211l-3.152,-1.261l-2.312,-2.522l-0.84,-1.681l-0.631,-2.943l0.21,-2.102l1.471,-3.152l4.833,-5.045l1.051,-3.152l0.21,-4.204l-1.05,-10.089l-7.355,-38.463l-2.101,-7.987l-1.471,-2.522l-1.051,-0.841l-5.674,-1.261l-2.311,-1.261l-1.471,-1.681l-0.841,-2.312l0,-2.523l1.051,-2.522l2.101,-2.312l5.254,-3.153l7.144,-2.942l9.456,-2.522l13.659,-2.312l7.985,-0.421l6.304,0.841l3.152,1.051l2.101,1.471l1.261,2.102l0.421,2.522l-0,1.051l-0.631,2.102l-1.471,2.102l-5.884,5.044l-0.63,1.051l-0.42,1.261l0.21,3.994l2.522,16.184l6.724,35.31l1.471,4.414l1.681,2.312l2.521,1.051l3.363,-0l4.833,-0.631l5.043,-1.471l4.623,-2.732l3.152,-3.363l1.051,-2.312l0.84,-3.994l0.21,-3.152l1.681,-3.574l1.261,-1.681l1.891,-0.631l2.102,-0.21l2.101,0.21l1.891,0.841l1.681,1.051l2.732,3.363l0.841,2.102l0.63,2.312l0.63,5.254l-0.63,6.306l-1.051,6.515l-1.891,5.255l-2.311,3.783l-2.942,2.522l-2.312,0.841l-9.876,0l-9.246,1.261l-0,0Zm68.293,-8.407l-5.463,-0.21l-3.362,-1.051l-2.732,-2.102l-1.261,-2.732l0,-2.733l0.631,-1.891l2.101,-2.312l4.623,-2.943l1.261,-1.681l1.471,-4.414l1.261,-7.567l0.84,-16.184l0.841,-32.368l-0.421,-6.725l-0.63,-2.733l-1.681,-1.891l-5.254,-2.522l-1.891,-1.682l-1.261,-1.892l-0.21,-2.101l0.21,-2.102l0.631,-1.471l1.051,-1.472l2.521,-1.681l3.362,-0.841l2.732,-0.42l22.484,0.63l19.333,0l13.868,0.21l8.406,1.051l7.144,1.682l5.884,2.312l4.413,3.153l1.891,1.891l2.732,4.414l1.471,5.254l0.63,6.096l-0.42,4.203l-1.261,4.204l-1.681,3.573l-2.101,2.943l-6.725,5.254l-0.84,1.471l1.051,1.472l7.354,2.732l2.732,1.471l2.522,1.892l2.942,3.783l2.311,4.414l1.051,3.363l0.42,3.573l0.21,3.783l-0.21,3.573l-1.471,6.516l-1.051,3.153l-3.152,5.464l-4.413,4.835l-5.463,3.783l-6.304,2.732l-6.934,1.471l-7.775,0.421l-58.418,-1.051Zm35.723,-40.145l0,14.082l0.21,5.045l0.631,2.732l0.84,1.471l1.681,0.841l2.522,0.421l3.572,-0.421l2.942,-1.261l2.522,-2.102l1.471,-2.942l1.26,-3.784l0.421,-4.413l-0.421,-4.414l-1.05,-3.573l-1.681,-2.733l-2.732,-1.891l-3.362,-1.051l-4.413,-0.421l-1.681,0l-1.051,0.211l-0.63,0.42l-0.631,0.631l-0.21,1.261l-0.21,1.891l0,0Zm0.21,-23.75l0,1.471l0.421,0.841l0.42,0.63l0.42,0.211l0.631,0.21l1.05,-0l3.573,-0.21l2.941,-1.051l1.892,-1.892l1.681,-2.522l0.84,-3.363l0.42,-4.414l-0.21,-5.044l-0.84,-3.573l-1.471,-2.523l-2.102,-1.891l-2.941,-1.051l-3.993,-0.42l-0.84,-0l-0.631,0.21l-0.21,0.21l-0.42,0.21l-0.21,0.421l-0.211,0.63l0,0.21l0.211,0.421l-0,6.305l-0.211,10.509l-0.21,5.465l0,-0Zm140.37,82.391l-56.736,-13.031l-1.471,-0.631l-1.892,-2.102l-1.05,-2.522l-0,-1.471l0.84,-3.363l1.892,-2.102l2.941,-1.471l4.833,-1.892l2.102,-2.102l2.942,-5.674l4.202,-12.611l5.674,-23.541l2.732,-13.661l0.63,-6.726l0,-3.363l-0.63,-2.102l-5.674,-5.465l-1.261,-2.522l-0.21,-2.102l0.841,-2.732l1.05,-1.471l1.261,-1.051l1.471,-0.841l4.413,-0.42l2.732,-0l45.178,10.929l17.021,3.153l12.398,1.681l2.522,0.841l3.152,2.732l2.311,3.994l0.631,3.573l0.21,3.783l-0.631,6.306l-1.26,5.044l-1.892,4.204l-1.471,1.471l-1.681,1.051l-1.681,0.63l-1.681,0.421l-3.152,-0.841l-2.732,-1.892l-2.731,-4.203l-1.891,-4.414l-2.732,-3.573l-4.203,-2.943l-5.253,-2.102l-10.507,-2.522l-4.623,0l-1.891,0.421l-1.681,2.101l-2.522,7.147l-2.311,9.458l-0,3.153l0.84,1.261l2.732,1.05l5.253,1.051l2.102,-0.42l1.681,-1.681l3.782,-7.147l1.891,-2.312l2.102,-1.471l2.311,0l2.522,0.841l2.521,2.522l1.051,2.102l0.841,4.624l-0.211,5.885l-1.26,7.356l-2.312,8.408l-2.732,6.936l-3.152,4.834l-3.362,2.732l-2.521,0.631l-1.261,-0l-2.522,-0.421l-1.891,-1.261l-0.84,-1.891l-0.421,-1.472l0.21,-9.038l-0.63,-2.312l-1.471,-1.471l-2.942,-0.841l-3.362,-0.21l-2.311,0.631l-1.471,2.522l-1.892,6.936l-1.681,9.458l0,2.943l0.631,1.891l1.261,1.261l4.202,1.892l6.725,1.892l3.782,0.63l6.934,0.631l2.732,-0.21l5.464,-1.472l5.673,-3.573l5.674,-5.254l3.362,-1.892l2.311,-0.42l2.942,0.84l2.732,1.892l0.841,1.261l0.63,1.682l0.42,1.891l-0.63,4.204l-1.681,5.675l-2.522,5.464l-5.463,7.567l-5.043,5.044l-3.363,2.102l-2.101,0.21l-2.942,-1.051l-10.927,-4.203l-11.767,-3.363Zm125.45,-20.598l0.42,0.631l0.63,0.42l0.631,0.631l0.63,0.21l0.42,0.42l0.631,0.21l3.152,1.051l2.942,0.21l2.731,-1.051l2.522,-1.891l2.311,-3.363l2.522,-4.414l1.471,-3.573l0.63,-3.153l-0.21,-2.732l-1.05,-2.522l-2.102,-1.892l-2.732,-1.681l-1.681,-0.631l-1.26,0l-1.471,0.421l-1.261,1.891l-1.891,2.943l-2.102,4.624l-0.63,1.261l-1.261,2.522l-0.63,1.261l-0.421,1.051l-0.63,1.261l-0.42,1.051l-0.631,1.471l-0.63,1.682l-0.63,1.681l-0,0Zm-7.565,16.815l-8.826,18.075l-0.84,3.153l-0,2.312l1.26,2.312l1.892,3.363l0.63,2.312l0,2.102l-0.42,2.101l-2.312,2.943l-2.311,1.051l-2.522,0.21l-5.253,-0.63l-7.355,-2.523l-13.028,-5.675l-8.405,-4.624l-5.884,-4.203l-3.362,-3.994l-1.261,-2.312l-0,-2.522l0.63,-2.522l1.051,-1.681l2.942,-1.682l2.942,-0.63l3.152,-0.211l1.891,-1.05l5.253,-7.357l7.355,-13.031l11.978,-25.222l4.833,-11.56l0.63,-3.993l0,-1.051l-4.203,-6.726l-0.63,-2.312l0.63,-3.153l1.892,-2.102l1.681,-1.05l2.311,-0.421l3.782,0.421l7.145,2.101l11.978,5.675l21.643,9.879l13.659,6.305l7.145,4.414l5.673,4.624l4.413,5.044l2.942,5.255l1.471,5.465l0.42,2.732l-0.84,5.675l-2.102,6.095l-3.152,5.045l-1.681,2.101l-2.101,1.682l-4.833,2.732l-5.464,1.471l-5.463,0.421l-2.101,0.63l-0.631,0.841l0.42,1.471l2.312,2.733l3.782,3.783l1.261,1.892l1.051,2.312l0.63,2.522l0.841,5.675l-0.21,3.152l-1.471,7.357l-2.312,8.827l-0.21,3.153l0.42,1.261l2.522,2.522l2.101,3.573l0.21,2.102l-0.42,1.892l-1.471,1.891l-1.891,1.682l-2.942,1.051l-5.253,0.21l-6.094,-1.051l-6.935,-2.312l-7.775,-3.993l-4.202,-3.153l-3.362,-3.153l-2.102,-3.573l-1.26,-3.993l-0.631,-5.255l0.42,-6.095l1.051,-6.936l0.841,-3.994l0.84,-8.407l-0.21,-4.834l-1.051,-3.783l-1.681,-2.733l-3.572,-1.891l-1.891,-0.21l-0,-0Zm66.612,71.672l2.732,-2.312l2.522,-0.631l2.731,-0l4.623,0.631l2.942,-1.472l3.993,-3.783l11.137,-13.452l17.441,-23.33l6.094,-9.668l0.84,-2.102l-0.42,-2.102l-2.732,-5.464l0,-1.892l0.631,-2.522l2.101,-2.522l2.311,-1.262l2.942,-0.21l2.102,0.421l5.043,2.312l9.246,6.936l11.767,9.458l18.912,13.872l22.064,14.712l1.681,3.153l0.211,3.153l-0.631,5.675l-2.101,5.885l-1.891,3.783l-4.203,5.675l-3.152,2.312l-1.681,0.42l-1.681,0.211l-1.471,-0.211l-1.681,-0.42l-2.312,-1.681l-1.681,-2.733l-0.84,-4.203l-0.631,-6.516l-1.26,-4.834l-1.051,-2.312l-2.942,-4.204l-5.043,-4.414l-5.884,-4.413l-3.362,-1.262l-1.891,0l-2.732,1.892l-6.304,6.726l-4.833,6.095l-0.21,1.261l0.42,1.261l5.043,3.784l2.522,0.84l1.261,0.211l2.521,-1.051l5.464,-3.784l2.311,-0.63l1.051,-0l3.152,1.471l2.311,2.943l0.631,2.101l-0.21,4.204l-2.102,5.044l-3.782,6.096l-7.145,9.248l-5.043,5.254l-4.623,3.363l-2.942,1.261l-2.521,0.21l-3.783,-0.84l-2.101,-1.682l-1.051,-1.891l-0.21,-2.312l0.841,-2.943l3.152,-6.305l0.42,-2.733l-0.21,-1.891l-1.681,-2.312l-3.573,-2.523l-1.471,-0.63l-1.471,0.63l-4.202,5.255l-6.514,9.668l-2.522,5.255l-0.21,1.891l4.203,6.306l1.05,2.732l0,1.261l-0.84,2.522l-1.681,2.312l-2.312,1.472l-2.732,0.84l-1.471,0l-5.463,-1.261l-4.203,-1.891l-10.927,-6.936l-11.557,-9.248l-6.094,-6.095l-3.572,-5.255l-1.051,-3.153l-0.21,-2.732l0.841,-2.732l0.84,-1.262l0,0.001Zm146.253,43.717l6.725,-6.305l1.681,-2.312l0.84,-2.312l-0.42,-7.357l1.051,-2.942l1.26,-1.471l2.312,-1.261l3.152,-0.421l3.362,0.631l3.782,1.681l6.304,4.204l6.725,6.305l8.615,10.299l4.413,6.306l2.522,5.044l0.63,2.732l-0.21,2.522l-0.841,2.312l-2.731,2.523l-2.522,1.051l-2.732,0.21l-4.623,-1.261l-2.521,-0.631l-3.783,1.682l-6.514,4.203l-21.434,17.445l-6.304,6.726l-2.521,3.993l-1.681,3.994l-0.21,3.573l0.63,3.783l1.891,3.994l2.942,3.993l3.993,3.994l4.412,2.732l4.623,1.261l2.312,0.21l2.101,-0.21l3.783,-1.681l7.985,-5.045l22.274,-18.286l7.144,-6.725l2.732,-3.784l0.21,-1.681l-1.471,-6.726l0,-1.051l0.841,-2.312l1.051,-1.261l1.891,-1.051l2.311,-0.42l2.312,0.63l4.413,2.102l4.833,3.784l7.144,7.146l5.043,7.146l2.312,4.624l1.051,3.993l-0.211,2.312l-0.84,1.892l-1.471,1.681l-1.891,1.051l-1.891,0.421l-2.522,-0l-5.464,-1.682l-2.311,0.421l-4.623,1.891l-6.934,4.834l-21.854,17.235l-10.507,7.357l-7.775,4.203l-3.152,1.051l-6.094,1.261l-6.304,0.21l-6.304,-1.261l-6.304,-2.522l-6.304,-3.573l-6.304,-4.834l-6.304,-5.885l-6.304,-7.777l-5.463,-8.197l-3.573,-7.987l-1.681,-8.197l-0.42,-3.993l0.21,-3.994l0.42,-3.783l0.841,-3.573l1.261,-3.363l1.681,-3.363l2.311,-3.153l2.522,-2.942l30.469,-26.063l0,0Zm79.641,9.458l2.101,-1.261l2.102,-0.84l2.521,-0l2.312,0.42l1.891,1.051l1.891,1.471l1.261,2.102l0.841,2.312l0.21,2.312l-0.631,2.312l-1.05,2.102l-1.681,1.891l-2.102,1.261l-2.101,0.631l-2.312,0.21l-2.521,-0.63l-2.102,-1.051l-1.681,-1.472l-1.26,-2.101l-0.841,-2.312l0,-2.312l0.42,-2.312l1.051,-2.102l1.681,-1.682l0,0Zm-20.803,-24.381l2.101,-1.261l2.312,-0.84l2.311,-0.211l2.312,0.631l2.101,1.051l1.681,1.681l1.471,2.102l0.63,2.102l0.21,2.312l-0.42,2.312l-1.261,2.102l-1.681,1.891l-1.891,1.261l-2.311,0.841l-2.312,0l-2.311,-0.42l-2.102,-1.051l-1.891,-1.682l-1.261,-2.101l-0.63,-2.102l-0.21,-2.522l0.63,-2.312l1.051,-2.102l1.471,-1.682l-0,0Zm16.39,235.193l-7.565,-4.414l-3.572,-2.942l-6.304,-6.095l-2.732,-3.363l-4.833,-7.777l-3.572,-8.617l-2.311,-8.618l-0.631,-5.885l0.42,-8.617l1.681,-8.618l1.892,-5.675l2.101,-4.624l2.311,-4.203l2.522,-3.994l3.152,-3.783l3.572,-3.363l3.573,-3.153l3.992,-2.732l6.514,-3.573l7.565,-2.732l8.195,-1.682l8.406,-0.42l5.253,0.21l5.674,0.841l5.253,1.261l7.565,2.942l6.934,4.204l6.514,5.044l5.674,5.885l4.413,6.726l3.152,6.306l1.471,3.993l2.521,10.929l1.261,7.357l4.833,6.095l0.841,2.732l-0,1.682l-0.631,3.363l-1.471,3.783l-2.521,3.994l-4.623,5.044l-5.674,4.203l-5.253,2.523l-4.623,1.051l-2.942,-0.211l-4.203,-1.261l-3.362,-2.522l-2.521,-3.573l-1.051,-2.942l-0.21,-3.574l1.051,-3.783l5.673,-10.719l1.681,-6.516l0.421,-3.363l-0,-3.152l-1.261,-5.675l-2.102,-4.624l-3.572,-3.994l-2.942,-1.891l-3.152,-1.051l-3.572,-0.631l-3.782,0.421l-5.884,2.101l-5.464,2.733l-5.883,4.414l-4.834,5.254l-3.992,5.885l-2.732,6.726l-1.261,6.516l0,3.363l0.211,2.942l1.681,6.095l2.731,5.465l3.362,4.204l4.203,3.573l4.833,2.942l6.935,3.153l1.471,1.471l0.63,1.261l0,1.472l-0.841,2.942l-2.311,2.943l-3.362,2.312l-5.464,2.102l-4.412,0.63l-3.993,-0.21l-4.833,-1.051l-2.312,-0.841l-2.311,-2.312l-1.261,-2.312l0,0Zm18.072,35.101l2.311,-0.421l2.102,0.631l2.941,2.312l2.732,3.153l2.522,0.63l6.304,-0.63l12.398,-2.312l26.897,-6.726l12.398,-3.784l4.202,-1.681l2.102,-1.471l0.63,-1.472l0.841,-4.203l1.05,-1.892l1.471,-1.681l2.102,-0.841l2.311,-0.21l2.522,0.841l2.311,1.681l3.362,4.414l2.102,4.203l2.941,7.777l3.363,13.242l1.26,8.197l0.211,4.203l-0.211,3.363l-0.84,2.522l-1.471,2.102l-1.891,1.261l-2.312,0.631l-2.101,-0.21l-3.362,-1.472l-3.993,-3.363l-1.891,-0.84l-2.311,-0.21l-7.775,1.471l-6.094,1.891l-2.102,1.051l-1.05,1.682l-0.21,2.312l0.84,5.044l2.732,9.458l1.891,3.994l1.681,1.261l2.942,0.21l9.246,-2.312l5.253,-2.522l1.891,-1.682l1.261,-2.732l1.261,-3.363l1.471,-1.471l2.522,-1.261l2.521,-0.21l2.522,0.63l3.362,2.522l2.942,4.624l2.942,7.777l3.992,14.082l1.471,8.828l0.631,6.515l-0.421,3.363l-0.84,2.523l-1.471,1.891l-2.102,1.261l-2.101,0.631l-2.311,-0.21l-2.102,-0.841l-3.992,-3.363l-2.312,-2.102l-2.942,-0.21l-5.673,0.631l-19.122,4.413l-22.695,5.885l-12.188,4.204l-2.731,1.261l-1.051,1.261l-1.261,4.414l-1.261,1.892l-2.521,1.891l-2.522,0.841l-1.261,0l-2.521,-0.841l-2.312,-1.471l-2.101,-2.522l-3.152,-5.255l-3.782,-10.719l-2.732,-13.031l-0.841,-5.255l-0.21,-4.413l0.841,-5.255l1.261,-2.312l1.681,-1.892l2.521,-0.84l2.312,-0.421l2.521,0.631l3.783,2.312l2.521,2.312l2.522,0.841l2.521,-0l13.449,-2.943l3.782,-1.261l1.892,-1.471l0.84,-1.682l-0.21,-3.993l-2.732,-10.719l-2.311,-5.255l-1.681,-1.892l-3.152,-0.63l-3.993,0.63l-9.456,2.943l-5.884,2.732l-1.681,1.472l-2.101,5.464l-2.311,2.312l-1.892,0.841l-2.521,0.21l-2.522,-0.841l-2.311,-1.681l-3.152,-4.204l-3.152,-6.515l-2.942,-8.828l-2.312,-9.668l-1.05,-7.987l-0,-4.204l0.84,-5.044l1.261,-2.312l2.942,-2.312l1.261,-0.21l-0,-0Zm21.013,184.119l0,-6.096l0.42,-5.885l0.841,-5.885l2.942,-11.14l2.521,-6.095l1.892,-2.732l2.941,-2.733l2.312,-1.261l5.884,-2.522l3.362,-0.841l7.355,-1.261l3.992,-0.21l3.993,0.421l2.941,1.051l1.051,0.84l1.051,2.733l0.21,2.732l-0.841,2.522l-1.471,2.312l-10.296,8.618l-4.833,5.464l-1.681,2.943l-1.471,3.153l-0.841,3.152l-0.63,3.153l-0.21,3.153l0.63,4.203l1.471,3.363l2.312,2.102l1.47,0.631l1.471,0.21l1.051,-0.21l1.891,-1.472l2.732,-4.834l4.203,-13.241l4.623,-10.72l3.572,-5.885l3.782,-4.834l4.413,-3.993l4.833,-3.153l5.043,-2.102l5.674,-1.051l2.942,-0.21l7.355,0.421l3.362,0.84l3.362,1.261l6.304,3.363l2.732,2.522l5.253,5.675l2.101,3.153l1.892,3.573l1.47,3.783l2.102,7.987l0.84,4.414l0.211,7.987l-0.421,7.146l-1.891,10.509l0.42,3.363l1.261,5.675l-0.42,2.943l-1.471,2.942l-2.522,3.153l-5.463,4.414l-5.884,3.363l-3.782,1.261l-3.783,0.42l-2.521,-0l-2.102,-0.42l-1.891,-0.841l-3.152,-2.943l-1.051,-1.681l-0.63,-2.102l-0.42,-2.102l0.42,-2.522l2.101,-4.204l5.674,-7.146l3.782,-4.624l2.312,-6.095l0.63,-3.993l-0.21,-4.204l-0.84,-2.943l-1.682,-2.312l-2.311,-1.05l-1.261,-0l-1.471,0.21l-1.471,0.84l-2.521,3.363l-2.312,5.045l-5.253,19.126l-3.782,8.407l-2.942,4.624l-3.573,3.784l-4.202,2.942l-4.623,2.102l-5.043,1.261l-5.674,0.631l-4.203,-0l-3.992,-0.631l-3.783,-0.841l-3.782,-1.261l-3.362,-1.681l-3.362,-2.312l-2.942,-2.732l-2.942,-3.153l-2.732,-3.363l-2.311,-3.783l-1.892,-3.994l-1.681,-4.203l-1.471,-4.624l-1.05,-4.835l-0.631,-5.044l-0.42,-5.254Zm-6.934,133.675l9.246,-55.488l1.05,-3.153l1.891,-2.102l2.522,-1.261l3.152,0l2.732,1.051l2.101,2.102l2.942,6.726l1.261,1.471l5.253,2.522l11.558,3.153l18.912,3.783l23.745,3.363l4.833,0.21l4.202,-0.63l1.892,-1.051l4.412,-5.255l2.522,-1.471l2.101,-0.21l2.732,0.63l1.681,0.841l1.051,1.261l0.84,1.472l0.631,1.891l0.21,2.312l-0,2.733l-8.195,45.609l-2.102,17.025l-0.84,12.61l-0.841,2.523l-1.471,2.312l-2.101,1.891l-4.413,2.102l-3.782,0.841l-6.094,0.21l-7.145,-1.261l-4.412,-1.892l-1.471,-1.261l-1.261,-1.471l-0.841,-1.682l-0.21,-1.891l0.42,-2.943l0.841,-2.102l1.681,-1.681l7.565,-4.204l3.572,-3.152l2.522,-4.204l1.891,-5.465l1.471,-8.617l0.21,-5.044l-0.42,-2.312l-0.841,-1.682l-2.942,-1.471l-8.615,-2.102l-6.935,-1.051l-3.152,0.21l-1.05,0.841l-1.261,2.732l-0.63,3.784l0.21,2.732l1.05,1.681l2.732,1.472l5.674,2.522l2.731,1.891l1.471,2.102l0.211,2.312l-1.471,3.363l-1.471,1.682l-3.783,1.681l-5.043,0.841l-6.304,-0.21l-11.137,-1.682l-7.565,-2.312l-5.673,-2.732l-3.573,-3.153l-1.261,-2.102l-0.42,-1.261l0.21,-2.732l0.631,-2.312l1.471,-1.261l2.521,-0.841l8.826,-0.42l2.311,-0.631l1.471,-1.681l0.841,-2.943l-0,-3.573l-0.841,-2.102l-2.731,-1.261l-9.667,-1.891l-8.405,-0.631l-3.362,0.841l-1.261,1.261l-1.891,6.305l-1.681,8.618l-0,6.726l0.42,3.152l1.681,5.255l3.152,4.624l6.514,5.885l2.102,3.573l0.21,2.102l-0.42,2.942l-0.631,1.682l-2.311,2.102l-3.362,1.05l-2.102,0.211l-5.253,-0.841l-8.405,-3.153l-7.986,-4.834l-5.463,-4.834l-1.891,-2.102l-0.631,-1.892l0.421,-2.942l3.992,-12.401l2.522,-11.98l-0,-0Z" style="fill:#8d1c22;"/><path id="erlangen" d="M274.462,1257.95l-40.136,-43.297l-1.261,-2.732l0,-1.261l0.631,-2.733l1.891,-2.732l2.522,-1.471l2.941,-0.421l7.145,1.892l1.051,-0l3.152,-1.051l6.514,-3.993l11.557,-9.459l20.173,-18.496l8.826,-9.458l2.941,-4.203l0.631,-2.312l-1.681,-6.516l-0,-2.943l1.471,-2.732l2.311,-1.892l1.471,-0.63l1.681,-0.21l1.891,0.21l1.892,0.841l4.202,2.942l31.73,34.68l15.34,14.923l6.725,5.675l2.101,3.573l0.63,2.732l-0.21,2.943l-0.84,3.363l-2.732,5.044l-2.522,3.363l-5.463,5.044l-2.102,1.472l-2.101,0.84l-2.101,0.421l-1.891,0.21l-1.892,-0.42l-3.152,-2.102l-1.681,-2.943l-0.42,-2.522l0.42,-3.783l0.841,-4.834l-0.21,-4.624l-1.892,-4.835l-3.152,-4.834l-7.354,-7.776l-3.783,-2.733l-1.891,-0.841l-1.681,0.211l-3.782,2.312l-7.775,6.725l-3.993,4.414l-0.84,1.682l0.21,0.84l1.471,2.733l3.782,3.573l2.101,1.051l1.051,-0l2.942,-1.261l5.674,-3.153l2.942,-1.051l2.731,0.21l1.891,1.261l1.892,3.153l0.42,2.522l-0.841,3.783l-2.521,4.624l-3.993,5.045l-8.405,7.566l-6.514,4.834l-5.464,2.733l-3.362,0.841l-2.942,0.21l-2.521,-0.841l-2.102,-1.681l-1.471,-1.892l-0.21,-2.102l1.051,-2.522l5.043,-7.356l1.051,-2.523l-0.631,-1.891l-1.891,-2.522l-2.521,-2.312l-2.312,-0.631l-2.942,1.471l-7.354,6.726l-4.623,4.834l-2.312,3.573l0,1.892l1.681,3.363l5.674,6.936l5.253,5.044l5.464,3.573l2.521,1.051l2.732,0.841l5.674,0.21l8.825,-1.261l3.993,0.21l2.942,1.682l1.891,3.152l0.42,1.682l0,1.471l-0.21,1.682l-2.101,3.362l-3.783,3.784l-5.043,3.363l-5.674,2.732l-5.883,2.102l-5.254,1.261l-3.782,0.21l-2.102,-0.21l-2.731,-1.892l-7.985,-11.35l-7.985,-9.458l-0,0Zm134.065,32.158l0.42,0.631l0.631,0.42l0.42,0.631l0.63,0.42l0.421,0.42l0.42,0.421l3.152,1.681l2.942,0.421l2.732,-0.421l2.941,-1.681l2.942,-2.733l3.152,-3.993l1.891,-3.573l1.261,-3.153l0.21,-2.732l-0.63,-2.522l-1.471,-2.102l-2.522,-2.312l-1.681,-0.841l-1.471,-0.21l-1.47,0.21l-1.471,1.471l-2.522,2.943l-2.942,3.993l-0.84,1.261l-1.471,2.312l-0.841,1.261l-0.63,1.051l-0.841,1.051l-0.63,1.051l-0.841,1.261l-0.84,1.682l-1.051,1.681l0,0Zm-10.086,15.343l-12.398,17.866l-1.261,3.153l0.21,2.101l2.101,5.255l0.211,2.522l-0.631,3.153l-2.311,2.732l-2.102,1.051l-2.521,0.21l-4.623,-0.84l-6.514,-2.943l-11.348,-7.146l-10.716,-8.197l-5.464,-5.045l-2.732,-4.624l-0.63,-2.732l-0,-1.051l0.63,-2.522l1.261,-1.892l2.942,-1.471l2.522,-0.631l5.253,0.421l2.732,-1.682l7.144,-7.776l9.666,-12.821l15.76,-23.12l5.044,-7.987l1.261,-3.783l0.21,-1.262l-3.152,-7.356l-0.211,-2.312l0.421,-2.102l2.101,-2.312l1.681,-1.051l2.102,-0.42l3.782,0.631l6.304,2.732l10.927,7.146l12.818,8.828l18.072,11.98l7.144,5.255l5.674,5.674l4.202,5.675l1.681,2.733l2.102,5.885l0.63,2.942l0,2.733l-0.21,2.942l-1.681,5.465l-1.261,2.942l-3.572,5.045l-4.413,3.993l-2.311,1.472l-2.522,1.261l-5.463,1.261l-4.623,-0l-5.044,-0.421l-1.471,0.841l-0.21,1.261l2.102,3.573l2.942,4.414l1.05,2.102l1.051,5.254l-0,2.733l-0.841,6.095l-2.101,6.305l-4.413,9.248l-0.63,3.153l0.21,1.471l2.732,4.204l0.84,2.522l0,2.102l-0.84,1.682l-1.681,1.891l-2.522,1.261l-2.732,0.631l-5.463,-0.631l-3.993,-1.261l-6.304,-2.942l-6.934,-4.624l-4.413,-3.784l-3.152,-3.783l-2.311,-3.783l-1.051,-4.204l-0.21,-4.624l0.84,-5.464l1.891,-6.516l3.993,-11.77l1.261,-5.675l0.21,-4.624l-0.841,-3.783l-1.681,-2.523l-2.311,-1.681l-1.891,-0.631l-0,0Zm126.08,118.963l-49.592,-20.598l-2.521,-2.522l-0.841,-1.681l-0.42,-1.472l-0.21,-1.681l0.21,-1.892l1.051,-2.942l2.311,-2.312l3.362,-1.471l5.464,-1.472l2.731,-1.891l3.363,-4.835l5.253,-10.929l13.869,-33.629l2.521,-8.197l0.21,-2.943l-0.63,-1.261l-3.992,-4.203l-1.261,-2.102l-0.421,-2.522l0.421,-2.312l1.681,-2.312l2.101,-1.472l3.152,-0.84l3.993,-0l7.354,1.051l8.826,2.522l10.086,3.993l8.616,4.204l6.304,4.203l4.203,3.994l1.471,2.522l0.63,2.522l-0.63,2.522l-1.892,2.733l-2.101,1.051l-2.732,0.84l-5.463,0.421l-2.312,0.841l-1.891,2.522l-7.775,17.024l-13.869,33.629l-1.05,4.624l-0.21,2.312l1.05,2.102l2.522,2.102l5.463,2.522l6.725,1.682l2.731,0.42l3.362,-0.631l2.312,-0.84l4.203,-3.363l4.202,-4.204l2.102,-1.471l2.101,-0.42l1.891,0.21l1.891,1.051l1.471,1.471l1.261,1.471l0.841,1.892l0.63,2.312l-0,2.102l-0.42,2.522l-1.891,4.624l-3.152,4.834l-6.725,7.356l-4.623,3.573l-3.992,1.892l-2.732,0.631l-1.261,-0l-2.732,-1.051l-8.195,-5.045l-8.405,-3.783l-0,0Zm120.407,-13.452l5.883,1.051l11.137,1.892l6.094,1.051l-1.471,-6.726l-1.681,-5.465l-1.471,-4.624l-1.471,-3.152l-1.26,-2.102l-1.051,-0.631l-1.261,0.21l-1.471,1.262l-1.891,2.101l-2.522,3.363l-3.362,5.045l-4.202,6.725l-0,0Zm-51.693,29.005l0.84,-2.312l1.681,-1.681l2.312,-1.471l4.413,-0.841l1.681,-0.21l3.152,-2.312l5.253,-6.095l8.405,-11.771l23.956,-36.991l7.354,-12.822l3.573,-8.197l1.26,-1.891l2.732,-2.312l2.522,-0.841l3.572,0l6.304,1.051l5.463,1.892l4.203,2.732l3.572,3.783l3.152,5.465l4.413,11.14l3.993,13.241l6.514,24.801l6.514,27.114l2.311,7.146l1.471,2.312l4.834,3.363l2.311,2.732l0.42,2.312l-0.42,2.522l-1.261,2.312l-1.05,1.051l-2.522,1.472l-3.362,0.84l-6.935,0.631l-9.246,-0.631l-15.76,-2.942l-9.876,-2.312l-6.514,-2.522l-2.942,-1.892l-2.521,-2.943l-0.421,-2.522l0.421,-2.312l0.84,-1.891l2.312,-2.102l6.514,-2.312l1.05,-1.892l0.21,-0.841l-1.05,-2.101l-2.312,-1.892l-3.992,-1.892l-8.406,-2.101l-11.977,-2.102l-5.674,-0l-2.732,0.63l-1.26,0.841l-1.471,2.732l-0,1.682l1.05,1.891l5.044,2.943l1.26,1.471l0.631,2.102l-0.42,3.573l-1.892,2.733l-3.362,2.101l-4.833,0.841l-4.203,0.21l-7.564,-0.841l-7.985,-1.471l-6.515,-1.891l-4.623,-2.523l-3.152,-2.732l-1.05,-1.892l-0.42,-2.312l0.21,-1.051l-0,0Zm176.092,-17.865l-1.471,-18.496l-1.471,-9.248l-1.891,-6.095l-1.681,-2.943l-7.355,-3.993l-1.891,-2.312l-0.841,-2.732l0.21,-2.523l0.841,-2.312l2.942,-2.732l4.833,-1.892l10.296,-1.891l10.927,-0.631l5.254,0.21l4.202,1.682l7.565,5.254l30.89,24.802l9.456,6.095l2.521,1.261l2.102,-0.42l1.05,-1.472l0.421,-3.573l-0.631,-12.821l-0.84,-3.783l-1.261,-2.312l-2.311,-1.892l-4.413,-1.891l-2.102,-2.312l-0.63,-2.102l-0.21,-2.522l0.63,-2.312l1.681,-2.733l3.362,-1.891l3.363,-1.051l7.144,-1.261l9.246,-0.631l7.355,0l5.253,0.841l3.572,1.261l1.892,2.522l0.84,2.102l0,3.994l-0.84,2.101l-1.471,2.102l-5.464,3.573l-1.471,2.733l-0.84,5.885l-0.421,16.604l1.892,41.826l-0.211,8.618l-0.63,5.254l-1.261,4.204l-2.101,3.152l-1.261,1.051l-1.471,0.421l-2.521,0.42l-3.152,-1.051l-5.254,-2.942l-11.767,-8.618l-35.933,-29.635l-5.884,-3.784l-1.891,-0.84l-1.261,0.21l-1.891,1.681l-0.841,2.943l-0.21,7.356l1.261,10.299l1.051,4.624l1.26,2.943l1.892,1.891l4.202,2.102l2.102,2.522l0.84,2.733l-0.21,2.522l-0.84,2.312l-1.682,1.891l-3.572,2.312l-5.253,1.682l-6.724,1.261l-7.986,0.42l-6.724,-0.63l-5.043,-1.261l-3.572,-1.892l-1.681,-1.892l-0.841,-2.101l-0.21,-2.312l1.051,-2.733l2.311,-2.522l4.413,-3.993l1.051,-2.523l0.63,-3.993l0.21,-10.719l-0.63,-13.452l-0,0Zm140.369,-17.235l-1.681,-8.197l-0.42,-5.465l-0,-5.464l0.84,-5.675l2.312,-8.407l3.572,-7.987l4.413,-7.357l3.362,-3.993l3.782,-3.994l6.304,-5.044l7.145,-4.204l5.253,-2.312l5.674,-2.101l5.043,-1.261l5.043,-0.841l5.464,-0.421l9.246,-0.21l2.311,-0.84l5.674,-4.204l2.311,-0.841l1.471,0l3.152,0.631l4.833,2.312l3.152,2.732l3.993,5.255l2.311,4.203l2.312,6.306l0.42,4.624l-0.63,3.993l-1.681,3.573l-2.942,2.733l-3.993,1.681l-3.992,0.631l-3.993,-0.211l-1.891,-0.84l-12.608,-7.987l-2.732,-1.261l-2.732,-0.841l-2.731,-0.42l-2.732,-0.211l-2.732,0.421l-4.833,1.261l-3.992,2.312l-3.152,2.732l-2.522,3.784l-1.891,4.203l-0.841,4.414l-0.21,4.834l0.841,5.255l2.101,6.936l3.572,7.776l4.203,6.726l5.043,5.885l5.674,4.624l5.673,3.153l5.674,1.471l2.732,0.21l2.942,-0.42l4.202,-1.261l2.522,-2.102l0.63,-1.261l0.631,-3.363l-0.841,-3.993l-0.84,-1.682l-1.471,-1.261l-2.102,-0.42l-6.934,1.051l-1.471,-0l-2.942,-1.261l-2.101,-1.892l-1.261,-2.522l-0.63,-2.943l0.63,-2.942l1.891,-2.943l2.732,-2.732l6.094,-3.994l8.405,-3.783l10.717,-3.363l6.514,-1.681l6.094,-1.051l4.833,-0.21l4.203,0.42l1.891,0.42l2.942,1.262l2.101,2.101l1.261,2.733l0.42,2.942l-0.84,2.733l-1.892,2.732l-5.463,4.414l-0.21,1.051l-0,8.407l-1.051,6.095l-1.891,5.675l-2.522,5.044l-3.152,4.624l-3.782,4.204l-7.145,5.465l-5.673,3.363l-10.087,4.203l-9.876,2.733l-9.246,1.471l-5.673,0.21l-5.884,-0.42l-8.195,-1.472l-7.986,-2.522l-7.354,-3.993l-6.514,-5.045l-5.674,-6.095l-4.833,-6.936l-3.993,-7.987l-2.101,-5.885l0,0Zm224.633,-32.158l-51.272,29.216l-2.942,0.42l-2.732,-0.631l-2.101,-1.891l-1.471,-2.312l-0.421,-2.732l0.631,-2.733l2.731,-5.885l0.421,-1.892l-0.421,-2.522l-2.311,-6.936l-6.514,-13.451l-13.659,-23.751l-6.304,-9.668l-4.413,-4.834l-2.101,-1.051l-6.724,-0l-2.942,-0.841l-2.312,-1.892l-1.26,-2.522l-0.211,-1.681l0.211,-1.682l0.63,-1.681l2.732,-3.573l5.673,-3.783l33.412,-18.496l15.55,-9.459l13.658,-9.668l2.732,-1.051l2.732,-0.21l2.731,0.42l3.152,1.261l4.413,3.153l4.203,4.834l3.572,6.306l1.261,4.624l0,2.102l-0.42,1.891l-0.631,1.682l-2.731,2.522l-2.312,0.841l-2.311,0.21l-2.942,-0.631l-6.304,-2.732l-4.833,-0.841l-5.044,0.841l-5.463,1.891l-9.456,5.675l-3.362,2.943l-1.471,2.522l0.42,1.892l2.942,6.936l5.043,8.407l2.102,2.522l1.471,0.21l2.941,-0.84l4.623,-2.943l1.261,-1.681l0,-1.051l-0.42,-3.153l-1.681,-6.095l-0.21,-3.153l0.63,-2.312l1.681,-1.682l2.312,-1.05l2.311,-0.211l3.782,1.262l3.783,2.732l3.992,4.414l5.674,9.037l3.572,7.777l2.102,6.516l0.42,3.783l-0.21,2.943l-1.051,2.732l-1.681,1.892l-3.362,1.681l-0.841,0l-1.681,-0.42l-3.152,-2.733l-4.623,-5.254l-2.101,-1.471l-1.051,-0.211l-2.521,0.841l-2.942,1.682l-2.102,2.101l-0.42,1.051l0.841,2.943l3.362,6.515l5.253,7.987l3.152,2.943l1.681,0.42l3.573,-0.84l7.985,-3.994l6.094,-3.993l4.623,-4.414l3.152,-4.834l1.05,-2.523l0.631,-3.993l0.63,-7.777l0.63,-2.732l2.102,-2.732l2.521,-1.472l1.681,-0.42l1.681,-0l1.682,0.21l1.681,0.841l2.731,2.732l2.522,4.414l2.311,5.675l1.471,6.305l0.841,6.096l-0.42,7.356l-0.631,2.732l-1.05,1.892l-2.942,1.681l-6.304,2.312l-11.137,5.045l-5.464,3.152l0,0Zm44.128,-89.537l-12.818,-13.451l-7.144,-6.306l-5.254,-3.573l-2.942,-1.051l-2.731,0.21l-5.674,1.051l-2.101,-0.21l-2.522,-1.051l-2.311,-2.732l-0.631,-2.312l0.21,-2.733l1.681,-4.203l3.993,-5.255l8.826,-9.038l5.673,-4.624l3.362,-1.891l6.304,-1.051l19.543,-0.42l22.904,-0l11.137,-0.631l4.834,-1.051l1.681,-1.261l0.21,-1.471l-0.421,-1.892l-2.521,-3.363l-7.565,-8.407l-2.942,-2.312l-2.521,-0.841l-1.471,-0.21l-3.783,0.841l-1.05,0.42l-2.312,0.21l-2.942,-1.051l-2.521,-2.522l-1.261,-2.102l-0.21,-2.101l0.21,-2.312l1.891,-3.784l4.203,-5.044l8.615,-8.197l5.674,-4.624l4.413,-2.732l2.521,-1.051l3.152,-0l2.102,0.84l2.731,2.733l1.261,2.312l0.42,2.102l-0.63,2.942l-1.261,3.363l0,2.522l0.631,2.522l4.833,7.357l12.187,14.923l23.956,26.482l6.724,9.038l2.522,4.414l1.05,3.783l0,1.892l-0.42,1.471l-1.891,2.733l-2.522,1.261l-5.463,1.261l-12.398,0.841l-27.108,-0l-13.658,-0.211l-11.137,0l-6.304,0.631l-1.261,0.63l-1.261,2.102l0,1.261l1.261,2.943l4.413,5.675l7.565,7.566l5.253,3.784l2.311,0.84l6.304,-1.051l3.152,0.421l2.312,1.681l1.681,2.102l0.63,3.573l-0.84,3.783l-1.471,3.153l-3.362,4.624l-7.145,7.146l-5.673,4.414l-5.044,2.732l-4.413,1.262l-2.311,-0l-3.152,-1.682l-2.101,-2.312l-0.421,-2.942l0.421,-3.994l0.63,-4.204l-1.471,-3.573l-6.304,-8.827l-10.717,-12.191l0,0Z" style="fill:#8d1c22;"/><path id="kopf" d="M1183.29,415.546l-31.31,20.598l-28.998,18.076l-81.952,48.552l-28.368,17.865l-20.383,14.082l-19.753,15.554l-19.332,17.235l-13.028,13.031l-6.515,6.936l-7.354,-3.363l-9.666,-2.943l-11.348,-2.312l-13.028,-1.891l-14.709,-1.472l-16.181,-0.63l-17.441,-0l-18.702,0.63l-19.542,1.472l-20.593,2.522l-21.224,3.153l-21.854,4.203l-22.484,5.255l-22.484,6.095l-22.905,7.356l-11.557,4.204l-11.347,4.414l-25.427,-13.242l-36.983,-21.228l-36.353,-22.699l-72.286,-46.24l-24.166,-15.133l-13.238,-18.707l-5.884,-8.827l-5.253,-9.038l-7.355,-13.872l-6.514,-14.923l-3.993,-10.929l-8.195,3.783l-7.144,4.834l-6.304,5.255l-5.254,6.095l-4.202,6.726l-3.783,7.356l-2.942,7.777l-2.311,8.197l-1.681,8.617l-1.261,9.038l-0.63,9.458l-0,19.127l1.05,19.757l1.471,17.655l1.891,14.923l2.312,14.502l4.623,21.439l3.362,13.872l3.992,13.662l9.036,26.693l9.876,26.483l32.992,78.187l19.122,26.903l-7.355,-18.496l-7.145,-18.496l-6.514,-18.496l-6.094,-18.706l-5.463,-18.706l-5.043,-18.916l-6.514,-28.795l-5.464,-29.215l-4.623,-29.846l-2.311,-20.598l-2.732,-31.107l-1.471,-32.157l-0.42,-22.069l-0,-11.14l7.565,-0l11.767,15.974l6.094,7.356l12.818,13.662l13.449,12.19l14.079,10.93l14.499,10.089l15.129,9.458l23.115,13.241l47.49,25.432l23.956,13.872l23.955,15.133l15.55,11.56l15.34,12.821l29.628,-11.77l18.913,-6.726l27.107,-8.197l17.651,-4.203l17.441,-3.153l8.616,-1.261l17.231,-1.472l17.02,-0.63l17.021,0.841l17.441,1.681l17.441,2.943l18.072,3.993l18.492,5.255l19.122,6.725l19.752,7.777l10.087,4.414l28.578,-27.954l28.368,-26.273l14.289,-12.611l28.578,-23.54l14.71,-11.14l14.709,-10.719l14.92,-10.089l15.129,-10.088l23.535,-14.083l24.166,-13.031l25.636,-12.19l8.405,-3.994l0.841,13.662l-0,19.757l-0.841,18.496l-1.05,11.77l-1.471,11.35l-1.681,11.35l-2.312,10.719l-5.043,20.388l-6.304,19.757l-7.565,18.706l-7.985,18.286l-9.036,17.865l-39.295,73.353l-9.876,19.757l-9.876,20.808l-9.456,22.28l-0,11.56l9.876,32.157l8.826,32.789l5.673,25.011l4.413,26.063l1.891,17.445l1.051,16.604l-0,15.974l-1.051,15.133l-0.84,7.566l-2.312,14.503l-3.362,14.082l-3.992,13.662l-4.623,13.031l-5.674,12.821l-9.456,18.076l-11.137,17.445l-12.188,16.604l-13.448,15.764l-14.5,15.133l-20.803,18.916l-21.854,18.076l-22.904,17.445l-23.325,16.394l-93.72,62.634l19.122,-3.783l53.374,-26.903l34.042,-18.286l22.484,-13.031l22.485,-13.872l21.643,-14.923l10.717,-7.777l20.383,-16.394l19.122,-17.655l13.239,-14.083l12.187,-14.502l11.138,-15.343l9.876,-16.184l5.673,-11.14l5.044,-11.56l4.413,-11.77l5.253,-18.706l2.311,-12.821l1.681,-13.242l0.841,-17.235l0.21,-10.509l-0.63,-21.018l-1.471,-20.808l-2.102,-20.808l-2.521,-20.597l-9.036,-59.902l-2.311,-6.095l-2.942,-11.981l-0.841,-5.675l-0.42,-5.675l-0,-5.464l0.42,-5.255l0.841,-5.254l2.521,-10.299l3.783,-9.879l4.623,-9.668l5.463,-9.458l12.608,-18.917l20.173,-28.794l9.456,-15.554l5.253,-10.509l8.616,-20.598l6.094,-15.343l5.463,-15.343l7.565,-23.33l6.094,-23.541l4.833,-23.75l2.311,-15.974l1.261,-16.184l0.421,-15.974l-0.421,-15.973l-1.681,-15.974l-2.732,-15.974l-1.681,-7.987l-4.623,-15.974l-5.883,-15.763l-11.558,-3.784l0,0Z" style="fill:#8d1c22;"/><path id="stirn" d="M784.456,663.771l-72.706,167.935l122.508,-167.935l-49.802,-0Z" style="fill:#8d1c22;stroke:#000;stroke-width:0.21px;"/><path id="backe_r" d="M887.842,869.748l22.905,91.64l-0,26.903l-3.783,11.35l-19.122,7.566l-38.244,7.777l-92.879,3.573l-3.362,-0.21l-6.515,0.84l-9.245,2.312l-8.826,3.573l-15.97,7.567l-16.391,9.038l46.02,-7.777l165.165,-3.783l11.557,-1.682l12.608,-3.152l8.826,-3.573l4.623,-2.943l3.152,-3.573l1.891,-3.573l0.84,-3.994l0,-3.573l-0.84,-4.624l-16.39,-53.176l-30.68,-61.162l-15.34,-15.344Z" style="fill:#8d1c22;stroke:#000;stroke-width:0.21px;"/><path id="backe_l" d="M449.293,824.139l-5.253,7.356l-4.833,6.936l-4.413,6.726l-3.993,6.726l-3.362,6.516l-3.152,6.725l-2.942,6.936l-2.521,6.936l-2.312,7.357l-2.101,7.987l-2.102,8.617l-1.891,9.038l-1.891,10.089l0.63,9.458l2.102,9.458l3.362,9.248l3.992,9.038l4.623,8.617l5.044,8.197l5.253,7.567l5.043,6.726l4.623,5.674l4.203,4.835l3.152,3.573l2.101,2.312l0.841,0.63l4.833,3.994l9.666,7.566l5.884,4.834l-3.152,-8.407l-2.942,-8.197l-2.942,-7.987l-2.732,-7.566l-2.732,-7.567l-2.521,-7.356l-2.312,-7.146l-4.202,-13.872l-1.892,-6.726l-3.362,-13.452l-1.261,-6.726l-1.05,-6.515l-1.051,-6.726l-0.63,-6.726l-0.631,-6.936l-0.21,-6.936l0,-7.146l0.21,-7.146l0.421,-7.356l0.84,-7.567l0.841,-7.777l1.26,-7.987l1.471,-8.197l1.892,-8.617l2.101,-9.038Z" style="fill:#8d1c22;"/><path id="auge_r" d="M800.637,840.533l-6.725,4.414l-6.514,4.204l-6.514,4.413l-6.304,4.414l-6.304,4.624l-6.094,4.624l-6.094,4.414l-5.883,4.834l-5.884,4.624l-5.674,4.834l-5.673,4.835l-5.464,5.044l-5.253,5.044l-5.464,5.045l-5.043,5.254l-5.043,5.255l-5.043,5.464l-4.623,5.465l-4.833,5.675l-4.623,5.885l-4.413,5.885l-4.203,5.885l-4.202,6.306l-4.203,6.305l-3.993,6.306l-3.782,6.515l-3.782,6.936l-7.145,13.872l-3.152,7.357l-3.362,7.356l8.195,-5.465l7.775,-5.044l7.775,-4.414l7.355,-4.204l7.564,-3.783l7.355,-3.363l7.145,-3.363l7.144,-2.942l7.145,-2.943l6.934,-2.942l7.145,-2.733l7.144,-2.732l7.145,-2.943l7.144,-2.942l7.145,-3.153l0.21,-1.681l0.841,-3.784l1.891,-5.674l2.521,-7.147l3.152,-8.407l3.363,-9.248l3.992,-9.878l3.993,-10.509l4.202,-10.51l4.203,-10.088l3.782,-9.879l3.783,-9.038l3.152,-7.986l2.732,-6.516l2.101,-4.834l1.261,-2.943l-0,0Z" style="fill:#8d1c22;"/><path id="auge_l" d="M510.652,864.914l1.261,5.465l1.891,6.936l2.522,8.197l2.521,9.248l2.942,9.458l3.152,9.879l2.942,9.248l3.152,8.827l2.942,7.777l2.732,6.095l2.521,4.414l3.993,6.726l5.043,5.465l5.463,4.624l5.884,3.993l6.094,3.783l6.094,3.573l5.884,3.994l5.463,4.624l5.043,5.465l3.993,6.725l2.101,-9.037l1.892,-8.198l1.891,-7.776l1.471,-7.567l1.05,-7.146l0.841,-7.356l0.21,-6.936l-0.21,-7.357l-1.051,-7.356l-1.891,-7.987l-2.522,-8.197l-3.782,-8.828l-3.362,-2.732l-5.254,-3.153l-6.934,-3.783l-8.195,-3.993l-8.826,-4.414l-9.246,-4.414l-9.456,-4.204l-9.035,-4.203l-8.406,-3.784l-7.144,-3.362l-5.674,-2.733Z" style="fill:#8d1c22;"/><path id="nase" d="M518.847,991.023l-0.42,7.567l-1.261,7.146l-1.891,7.146l-2.522,6.936l-3.362,7.146l-3.572,6.726l-4.203,6.726l-4.623,6.726l-4.833,6.305l-5.043,6.516l-5.253,6.095l-5.464,6.095l-5.463,5.675l-5.464,5.675l-5.253,5.675l-10.297,10.299l-4.623,4.834l-4.202,4.624l-3.993,4.414l-4.202,9.248l-1.471,9.248l0.63,8.617l2.311,8.197l3.152,7.146l3.783,5.885l3.992,4.624l5.464,5.255l8.195,7.146l10.927,7.987l7.145,-6.095l6.514,-5.675l6.094,-5.885l5.883,-5.885l5.254,-6.096l5.043,-6.095l4.833,-6.726l4.203,-6.936l4.202,-7.566l3.783,-8.197l-7.355,-3.363l-8.405,-3.573l-8.826,-2.943l-9.036,-2.732l-9.456,-1.892l-9.246,-1.261l-8.825,-0.63l-6.724,1.261l-8.826,2.522l-6.514,1.051l3.572,-2.312l3.993,-2.733l4.412,-2.942l5.044,-3.153l5.043,-3.153l5.253,-3.573l5.674,-3.573l5.463,-3.993l5.674,-3.994l5.674,-4.203l5.463,-4.204l5.253,-4.624l5.044,-4.624l4.833,-4.834l4.412,-5.044l3.993,-5.045l3.362,-5.254l2.732,-5.255l2.311,-5.465l1.471,-5.464l0.631,-5.675l-0,-5.885l-1.051,-5.885l-1.891,-5.885l-3.152,-5.885l-3.993,-6.306Z" style="fill:#8d1c22;"/><path id="kiefer" d="M710.699,1068.58l-6.934,6.516l-6.724,6.305l-6.304,5.885l-6.304,5.885l-6.094,5.675l-5.884,5.465l-5.884,5.044l-5.673,5.045l-5.674,4.624l-5.463,4.624l-5.464,4.413l-5.463,4.204l-5.254,3.993l-5.463,3.784l-5.464,3.573l-5.253,3.573l-5.463,3.363l-5.674,2.942l-5.464,3.153l-5.673,2.732l-5.884,2.733l-5.884,2.522l-6.094,2.522l-12.608,4.204l-6.724,2.102l-6.934,1.891l-6.935,1.682l-7.564,1.681l-7.565,1.682l-7.775,1.471l-8.195,1.261l-8.616,1.261l-9.036,1.261l-9.246,1.051l5.254,-0l6.094,1.051l5.043,2.942l8.195,0.631l8.195,0.21l7.985,-0.21l7.775,-0.21l7.565,-0.841l7.565,-0.841l7.565,-1.261l7.144,-1.261l7.145,-1.471l7.144,-1.892l6.935,-1.891l6.934,-2.102l6.935,-2.312l6.724,-2.312l6.724,-2.733l6.514,-2.522l6.515,-2.522l19.542,-8.197l6.304,-2.732l6.304,-2.943l6.514,-2.732l6.304,-2.522l6.514,-2.523l6.304,-2.522l6.514,-2.522l6.304,-2.312l6.515,-2.102l6.514,-2.102l6.514,-1.681l6.514,-1.681l6.724,-1.472l6.725,-1.261l6.934,-1.051l6.724,-0.63l6.935,-0.421l7.144,-0.21l-5.883,-6.305l-6.094,-6.306l-5.884,-6.305l-5.674,-6.306l-6.094,-6.515l-5.883,-6.306l-11.768,-12.61l-5.884,-6.306l0,0Z" style="fill:#8d1c22;"/><path id="rand" d="M776.326,0l-0.001,0c-425.879,0 -776.325,350.446 -776.325,776.325l0,0.001c0,425.88 350.446,776.325 776.325,776.325l0.001,0c425.88,0 776.325,-350.445 776.325,-776.325l0,-0.001c0,-425.879 -350.445,-776.325 -776.325,-776.325Zm-0,16.549c416.801,0 759.776,342.976 759.776,759.777c-0,416.801 -342.975,759.776 -759.776,759.776c-416.801,-0 -759.777,-342.975 -759.777,-759.776c0,-416.801 342.976,-759.777 759.777,-759.777Z" style="fill:#8d1c22;fill-rule:nonzero;"/></g></g></svg>