<?xml version="1.0" encoding="UTF-8" standalone="no"?>
<!-- Created with Inkscape (http://www.inkscape.org/) -->

<svg
   xmlns:dc="http://purl.org/dc/elements/1.1/"
   xmlns:cc="http://creativecommons.org/ns#"
   xmlns:rdf="http://www.w3.org/1999/02/22-rdf-syntax-ns#"
   xmlns:svg="http://www.w3.org/2000/svg"
   xmlns="http://www.w3.org/2000/svg"
   xmlns:sodipodi="http://sodipodi.sourceforge.net/DTD/sodipodi-0.dtd"
   xmlns:inkscape="http://www.inkscape.org/namespaces/inkscape"
   width="131.45781mm"
   height="131.45782mm"
   viewBox="0 0 131.45781 131.45782"
   version="1.1"
   id="svg8"
   inkscape:version="0.92.4 (5da689c313, 2019-01-14)"
   sodipodi:docname="logo_weiss.svg">
  <defs
     id="defs2" />
  <sodipodi:namedview
     id="base"
     pagecolor="#000000"
     bordercolor="#666666"
     borderopacity="1.0"
     inkscape:pageopacity="0"
     inkscape:pageshadow="2"
     inkscape:zoom="1.4"
     inkscape:cx="2.5038871"
     inkscape:cy="245.28721"
     inkscape:document-units="mm"
     inkscape:current-layer="layer1"
     showgrid="false"
     inkscape:window-width="3000"
     inkscape:window-height="1875"
     inkscape:window-x="-13"
     inkscape:window-y="-13"
     inkscape:window-maximized="1" />
  <metadata
     id="metadata5">
    <rdf:RDF>
      <cc:Work
         rdf:about="">
        <dc:format>image/svg+xml</dc:format>
        <dc:type
           rdf:resource="http://purl.org/dc/dcmitype/StillImage" />
        <dc:title></dc:title>
      </cc:Work>
    </rdf:RDF>
  </metadata>
  <g
     inkscape:label="Ebene 1"
     inkscape:groupmode="layer"
     id="layer1"
     transform="translate(426.3182,170.13962)">
    <g
       transform="matrix(0.19992733,0,0,0.19992733,-427.13432,-170.84992)"
       id="g3421">
      <path
         inkscape:connector-curvature="0"
         id="stamm_silberfuechse"
         d="m 86.141326,375.97454 0.355956,2.49226 0.177978,2.49225 -0.08899,2.49226 -0.533934,4.80649 -0.711912,2.67027 -0.978879,1.86919 -1.601801,1.42415 -2.313713,1.33514 -2.758659,1.15712 -3.292592,0.71207 -1.779779,0.089 -1.245846,-0.26703 -0.889889,-0.80108 -0.444945,-1.33514 -0.08899,-0.44504 0.266967,-1.06811 0.978878,-1.60217 3.381581,-3.64937 0.88989,-1.33514 1.334835,-2.67027 0.444945,-1.33514 0.266966,-1.33514 v -1.33513 l -0.266966,-2.22523 -0.711912,-1.60217 -0.978879,-1.0681 -0.622923,-0.35604 -1.156856,-0.089 -0.800901,0.44505 -0.711912,1.0681 -0.533934,1.60217 -1.423823,7.38776 -1.423824,4.45045 -1.245846,2.49226 -1.512812,2.04721 -1.690791,1.78018 -1.957757,1.42415 -2.135735,0.9791 -2.402703,0.62306 -1.601801,0.17802 h -1.601802 l -1.423823,-0.17802 -1.512813,-0.26703 -1.423823,-0.53405 -2.669669,-1.42415 -2.491692,-2.13622 -2.046746,-2.58126 -1.601802,-3.02631 -0.622922,-1.69117 -0.88989,-3.73839 -0.355956,-2.9373 v -4.27244 l 0.08899,-1.78018 -0.622923,-1.9582 -0.533934,-1.69117 -0.08899,-0.71208 0.177978,-1.24612 0.711912,-1.33514 1.067868,-1.42415 2.135735,-2.13622 2.313713,-1.51315 1.601802,-0.62307 1.69079,-0.26702 0.978879,0.089 0.88989,0.26702 0.800901,0.35604 0.622922,0.62306 0.622923,0.71208 0.355956,0.80108 0.266967,1.42415 -0.177978,1.0681 -0.88989,2.13622 -2.402702,3.91641 -0.711912,1.60216 -0.444945,1.86919 v 1.69117 l 0.355956,1.69118 0.533934,1.24613 0.800901,0.89009 0.978879,0.26702 h 0.533933 l 1.245846,-0.62306 0.444945,-0.71207 0.978879,-2.49226 0.533933,-3.9164 0.711912,-5.07352 0.622923,-2.49226 1.423824,-3.29333 1.245845,-1.86919 1.601802,-1.33514 1.779779,-1.24613 2.135736,-0.89009 2.313713,-0.53405 1.779779,-0.17802 1.601802,-0.089 1.69079,0.17802 1.601802,0.35603 1.601801,0.53406 1.512813,0.80108 2.847647,2.04721 1.334835,1.24613 1.156856,1.42414 2.046747,3.29334 0.8009,1.86919 0.711912,1.9582 0.622923,2.13622 0.444945,2.22523 z m -49.299891,-64.17558 -0.266967,-1.15712 -0.533934,-2.40324 0.08899,-1.15712 0.444945,-1.24613 0.978879,-1.24613 1.423823,-1.24613 2.847647,-1.51315 2.847647,-0.9791 1.957758,-0.26703 2.313713,0.17802 1.156857,0.26703 0.978878,0.35603 1.067868,0.9791 0.800901,1.15712 0.266967,1.51316 v 1.33513 l -0.444945,1.24613 -0.800901,1.24613 -1.868768,1.51316 -3.47057,1.9582 -0.800901,0.89009 -0.177978,0.53405 0.177978,0.71208 0.444945,0.53405 0.800901,0.26703 1.512812,0.089 4.805405,0.17801 13.615313,0.71208 3.381581,-0.089 1.245845,-0.26703 1.156857,-0.62306 0.88989,-1.06811 0.889889,-1.78018 1.156857,-0.97911 0.88989,-0.26702 1.156856,0.089 1.067868,0.44504 0.88989,0.80108 0.800901,1.24613 0.533933,1.78018 0.355956,2.13622 0.266967,4.27244 v 3.47136 l -0.355956,4.18343 -0.622923,3.38234 -1.067867,2.49226 -1.245846,1.78018 -0.978879,0.53406 -1.067867,0.17801 -0.978879,-0.17801 -0.800901,-0.53406 -0.978878,-1.42415 -0.800901,-1.86919 -0.533934,-0.62306 -1.69079,-0.80108 -2.580681,-0.62307 -3.826525,-0.53405 -7.208107,-0.44505 -7.653052,-0.17802 -2.669669,0.26703 -0.978879,0.53406 -0.355956,0.89009 0.266967,0.89009 1.423824,1.42415 3.47057,2.75928 1.156856,1.42414 0.533934,1.24613 0.177978,1.33514 -0.08899,0.80108 -0.266967,0.71207 -0.444945,0.71208 -1.334834,1.06811 -0.800901,0.35603 -0.88989,0.17802 h -1.067867 -0.978879 l -2.313713,-0.71207 -2.580681,-1.15712 -2.491691,-1.51316 -2.313713,-1.9582 -1.156857,-1.60216 -0.266967,-1.06811 v -0.80108 l 0.800901,-2.75928 0.711912,-21.98526 z m 31.769063,-38.45194 0.622923,-2.49226 1.156857,-4.62847 0.622922,-2.40325 v 0 l -2.847647,0.44505 -2.402702,0.44504 -1.957757,0.44505 v 0 l -1.334835,0.53406 -0.88989,0.44504 -0.355956,0.44505 v 0 l 0.08899,0.53405 0.444945,0.71207 0.800901,0.80109 v 0 l 1.334835,1.15711 2.046746,1.60217 2.669669,1.9582 z m 10.41171,22.34129 -0.88989,-0.44505 -0.711912,-0.71207 -0.444944,-1.06811 -0.444945,-2.49225 -0.800901,-1.42415 -2.936636,-2.9373 -5.161361,-4.18343 -14.594191,-10.94812 -4.716416,-3.11532 -3.381581,-1.86919 -0.978878,-1.24613 -0.177978,-0.71207 v -0.80109 l 0.355956,-2.22522 0.8009,-2.58127 1.156857,-1.9582 1.423824,-1.51315 2.491691,-1.51316 3.381581,-1.15712 6.140239,-1.51315 9.877776,-1.78019 13.971269,-2.31423 3.025625,-0.80108 1.156856,-0.62307 1.77978,-2.13622 0.800901,-0.53405 0.978878,-0.089 0.978879,0.26703 0.978879,0.62306 0.711912,0.9791 0.355955,1.24613 0.177978,1.69117 -0.08899,1.9582 -0.266967,2.49226 -1.423823,6.23064 -1.334835,4.45045 -1.334834,3.02631 -1.245846,1.86919 -0.88989,0.80109 -0.889889,0.35603 -1.067868,-0.089 -1.245846,-0.62306 -0.8009,-1.06811 -0.711912,-2.75928 -0.355956,-0.35604 -0.800901,-0.26703 -0.622923,0.089 -0.889889,0.71208 -1.156857,2.04721 -1.156857,3.47135 -1.245845,4.8955 -0.266967,2.40325 0.266967,1.15712 0.266967,0.53405 0.533933,0.44505 0.978879,0.26703 h 0.622923 l 0.800901,-0.71208 1.156856,-1.69117 0.622923,-0.44505 0.88989,-0.17801 1.512812,0.26702 1.156857,0.89009 0.444945,0.8901 0.355956,1.15711 0.08899,1.42415 -0.177978,2.75928 -1.067868,4.45046 -1.245845,3.56036 -1.156857,1.8692 -1.245846,1.15711 -1.334834,0.53406 -0.978879,-0.089 z m 15.751048,-57.76692 -0.978878,-0.9791 -0.444945,-0.9791 -0.08899,-1.06811 v -1.69118 l -0.355956,-0.89009 -2.224725,-1.9582 -5.339338,-3.47135 -12.280478,-6.85371 -2.936636,-1.33513 -1.334835,-0.26703 -1.156857,0.089 -3.381581,1.42415 H 63.27116 l -1.334835,-0.26703 -1.067867,-0.9791 -0.444945,-0.89009 -0.177978,-1.06811 0.266967,-2.04721 0.889889,-2.58127 2.046747,-4.18343 1.957757,-3.02631 2.046747,-2.04721 1.423823,-0.35603 4.004504,-0.26703 3.737537,-0.089 7.920018,-0.089 2.847647,-0.35603 1.067868,-0.44505 0.266967,-0.62306 -0.177978,-1.06811 -0.622923,-1.33514 -6.852151,-10.05803 -1.334834,-2.31424 -0.711912,-2.22523 -0.177978,-1.33513 0.08899,-1.42415 0.711912,-2.58126 1.334834,-2.93731 2.402703,-3.82739 1.512812,-1.78018 1.334835,-0.89009 0.978879,-0.26703 0.978878,0.089 1.334835,0.62306 0.711912,0.8901 0.266967,0.71207 0.177977,1.86919 0.800901,1.24613 2.046747,1.78018 4.716415,3.02631 8.364963,4.53947 5.6063,2.58126 3.64855,1.42415 0.97888,0.089 1.95776,-1.06811 0.97888,-0.17802 0.97888,0.089 0.97888,0.26702 1.15685,1.06811 0.44495,0.9791 0.089,1.15712 -0.35596,2.22523 -1.24585,3.20433 -2.75865,5.25154 -2.66967,4.27244 -1.77978,1.86919 -1.06787,0.71207 -0.97888,0.35604 h -1.15686 l -1.33483,-0.62307 -0.88989,-0.9791 -0.44495,-1.24613 -0.17797,-1.78018 -0.62293,-0.9791 -1.77978,-1.42414 -5.6063,-3.20433 -1.512812,-0.62307 h -0.800901 l -0.444945,0.35604 -0.355956,0.62306 0.177978,0.71208 0.88989,1.69117 8.809906,11.39317 1.6018,2.75928 0.44495,1.42415 -0.26697,0.62306 -1.15686,0.53406 -2.13573,0.26702 -5.07237,-0.089 -5.695296,-0.35603 -5.428327,-0.62307 -2.135736,0.089 -0.8009,0.26703 -0.177978,0.26703 -0.08899,0.35603 0.444945,0.80109 1.245845,0.9791 5.784283,3.38234 2.758659,1.24613 0.622922,0.17802 0.88989,-0.089 2.580683,-1.33514 0.97888,-0.26702 0.97887,0.17801 1.15686,0.71208 0.71191,1.06811 0.17798,0.89009 -0.26697,1.78018 -0.8009,2.31424 -2.58068,4.80649 -1.512809,2.13622 -1.77978,1.78018 -1.334834,0.53406 h -0.800901 l -0.88989,-0.26703 z m 31.502094,-56.6098 -0.8009,-1.24613 -0.17798,-0.9791 0.17798,-1.06811 0.53394,-1.60217 -0.089,-0.62306 -0.71192,-1.42415 -3.38158,-3.9164 -5.6063,-5.69658 -7.47508,-6.94271 -2.22472,-1.60217 -1.77978,-0.53405 -3.55956,0.62306 -1.06787,-0.17802 -1.156852,-0.62306 -0.622923,-0.80108 -0.355956,-1.42415 0.08899,-1.15712 0.800901,-1.86919 1.42382,-2.22523 3.11462,-3.47135 2.66967,-2.49226 2.04674,-1.33513 0.71191,-0.26703 1.86877,0.17802 5.60631,1.24612 8.98788,2.22523 2.84765,0.35604 1.06787,-0.17802 0.53393,-0.53405 0.089,-1.06811 -0.62292,-2.40325 -3.2036,-8.72289 -1.06787,-3.56037 -0.26697,-1.60216 -0.089,-1.51316 0.17798,-1.42414 0.8009,-2.13622 1.51281,-2.31424 3.11462,-3.47136 2.22472,-1.86919 1.77978,-1.06811 1.06787,-0.26703 h 0.97888 l 1.33483,0.62307 0.97888,0.89009 0.35596,1.15712 -0.26697,2.31424 0.17798,0.80108 0.88989,1.60216 2.84764,3.47136 7.65306,7.29875 5.87327,4.8955 3.2036,2.22523 0.97888,0.35603 2.13574,-0.44504 0.53393,-0.089 1.42382,0.35603 1.15686,0.9791 0.53393,0.8901 0.089,1.06811 -0.089,1.15711 -0.53393,1.33514 -1.6018,2.49226 -2.58068,3.11532 -4.18248,4.27243 -2.49169,2.13622 -2.04675,0.9791 -0.53394,0.17802 -1.15685,0.089 -0.97888,-0.26703 -1.24585,-0.9791 -0.53393,-1.15712 -0.089,-0.89009 0.17798,-2.22523 -0.35596,-1.06811 -1.33483,-1.86919 -4.53844,-4.45045 -1.42382,-0.89009 -0.71191,-0.26703 -0.62293,0.17802 -0.35595,0.53405 -0.089,0.80108 0.44494,1.78019 5.42833,12.55028 0.88989,2.75929 0.35596,1.42414 -0.089,1.06811 -0.35596,0.53406 -0.88989,0.26702 -1.24584,-0.089 -1.95776,-0.35603 -5.25035,-1.51316 -4.36046,-1.51315 -5.07237,-1.86919 -2.13574,-0.53406 -0.88989,0.089 -0.35595,0.53405 v 0.35604 l 0.44494,0.9791 3.91552,4.09442 3.55956,3.02631 0.88988,0.53406 0.97888,0.26702 1.06787,-0.26702 1.15686,-0.35604 1.15685,-0.089 0.88989,0.17802 0.80091,0.53405 0.62292,0.71208 0.26696,0.80108 0.089,0.89009 -0.26696,0.9791 -0.88989,1.78018 -1.6018,2.13622 -3.73754,3.9164 -1.95776,1.51316 -1.6018,0.80108 -0.88989,0.17802 -1.24585,-0.17802 -0.71191,-0.53405 z m 77.59839,-63.55252 -2.22473,1.24613 -2.31371,1.06811 -4.80541,1.60216 -3.2036,0.62307 -1.77978,0.17801 -2.04674,-0.26702 -1.95776,-0.9791 -2.04675,-1.69118 -2.04674,-2.22522 -1.86877,-2.75929 -0.71191,-1.60216 -0.17798,-0.71207 v -0.62307 l 0.44494,-1.06811 0.97888,-0.89009 0.97888,-0.35604 h 1.15686 l 2.04674,0.53406 3.82653,1.60216 1.51281,0.44505 3.02563,0.26703 2.75865,-0.35604 1.24585,-0.44505 1.24585,-0.62306 1.42382,-1.06811 0.97888,-1.24613 0.26697,-0.71207 0.089,-0.53405 -0.089,-0.71208 -0.53394,-0.80108 -0.97888,-0.44505 -1.42382,-0.17801 -3.11462,0.44504 -5.25034,0.9791 -3.20361,0.26703 -2.93663,-0.089 -2.66967,-0.44505 -2.31372,-0.80108 -2.13573,-1.15712 -1.86877,-1.42414 -1.51281,-1.86919 -1.42383,-2.492259 -0.62292,-1.424146 -0.35595,-1.424146 -0.26697,-1.513155 v -1.513155 l 0.089,-1.513155 0.71191,-3.02631 1.42382,-3.026311 1.95776,-2.670273 2.58068,-2.492256 3.11461,-2.136219 2.66967,-1.335137 5.6953,-2.136219 3.02562,-2.403246 1.15686,-0.534055 h 1.42382 l 2.49169,0.534055 2.75866,1.335137 1.6018,0.9791 1.77978,1.869192 0.8009,1.513155 0.35596,0.9791 0.089,0.801083 -0.089,0.890091 -0.35596,0.890091 -0.44494,0.801082 -1.33484,1.157119 -0.97887,0.356036 -1.33484,0.178018 -2.49169,-0.267027 -3.64855,-0.801082 h -1.77978 l -1.77978,0.267027 -1.69079,0.623064 -1.42382,0.890091 -0.97888,0.979101 -0.35596,0.445045 -0.17797,1.157119 0.089,0.534055 0.62292,0.9791 0.62292,0.267028 1.69079,0.356036 2.49169,-0.267027 3.20361,-0.623064 4.98338,-1.246128 2.58068,-0.356036 h 1.24584 l 2.31372,0.178018 2.13573,0.623064 1.95776,0.801082 1.69079,1.246128 1.6018,1.602164 1.33484,1.9582 0.88989,1.602165 0.62292,1.602164 0.44494,1.602164 0.26697,1.691174 v 1.602168 l -0.17798,1.69117 -0.35595,1.69117 -0.62293,1.69118 -0.71191,1.69117 -1.95775,3.11532 -1.24585,1.51315 -3.02563,2.8483 -3.64854,2.49225 z m 26.6077,-20.650116 -0.17798,-0.9791 0.089,-0.9791 0.88989,-1.602165 1.24585,-1.869191 0.089,-0.979101 -0.17798,-1.691173 -1.77978,-5.518566 -5.60631,-14.953532 -0.8009,-1.602165 -1.06787,-1.246127 -1.51281,-0.534055 -1.51281,-0.356037 -1.15686,-0.623064 -0.71191,-1.068109 -0.17798,-1.06811 0.17798,-1.068109 0.62292,-1.06811 1.77978,-1.602164 2.58068,-1.602164 4.8944,-2.225228 5.07237,-1.602164 2.93663,-0.534055 h 1.51282 l 0.71191,0.08901 1.51281,0.712073 0.71191,0.801082 0.35596,0.979101 v 0.801082 l -0.44495,1.424146 -1.33483,2.047209 -0.089,1.157119 0.71191,3.115319 3.20361,9.345958 3.73753,9.791004 1.42383,2.670274 0.88989,0.623064 2.58068,0.890091 1.24584,0.712073 0.71191,0.9791 0.17798,1.06811 -0.17798,1.068109 -0.62292,1.06811 -1.69079,1.602164 -2.66967,1.602164 -4.98338,2.225228 -3.91552,1.246128 -3.2036,0.623064 -2.66967,0.08901 -1.42382,-0.178018 -1.06787,-0.534055 -0.71191,-0.801082 -0.17798,-0.445046 z m 60.95745,-12.906323 -21.09039,4.005411 -0.88989,0.08901 -0.8009,-0.08901 -1.33484,-0.534055 -0.97887,-1.068109 -0.35596,-0.712073 -0.26697,-1.246128 0.089,-0.890091 0.62293,-1.335137 2.04674,-2.136219 0.44495,-1.335137 0.089,-1.780182 -0.44495,-4.272438 -3.11461,-16.28867 -0.88989,-3.382347 -0.62293,-1.068109 -0.44494,-0.356037 -2.4027,-0.534055 -0.97888,-0.534054 -0.62292,-0.712073 -0.35596,-0.979101 v -1.068109 l 0.44494,-1.06811 0.88989,-0.9791 2.22473,-1.335137 3.02562,-1.246128 4.00451,-1.068109 5.78428,-0.9791 3.38158,-0.178019 2.66967,0.356037 1.33484,0.445045 0.88988,0.623064 0.53394,0.890092 0.17798,1.068109 v 0.445046 l -0.26697,0.890091 -0.62292,0.890091 -2.49169,2.136219 -0.26697,0.445046 -0.17798,0.534054 0.089,1.691174 1.06787,6.853702 2.84764,14.953533 0.62293,1.869192 0.71191,0.9791 1.06787,0.445046 h 1.42382 l 2.04675,-0.267028 2.13573,-0.623063 1.95776,-1.157119 1.33483,-1.424146 0.44495,-0.9791 0.35595,-1.691174 0.089,-1.335137 0.71192,-1.513155 0.53393,-0.712073 0.8009,-0.267027 0.88989,-0.08901 0.88989,0.08901 0.8009,0.356036 0.71191,0.445046 1.15686,1.424146 0.35595,0.890091 0.26697,0.979101 0.26697,2.225228 -0.26697,2.670273 -0.44494,2.759283 -0.8009,2.225228 -0.97888,1.602165 -1.24585,1.068109 -0.97888,0.356037 h -4.18248 l -3.91551,0.534054 z m 28.92141,-3.560365 -2.31371,-0.08901 -1.42382,-0.445045 -1.15686,-0.890092 -0.53393,-1.157118 v -1.157119 l 0.26696,-0.801082 0.88989,-0.9791 1.95776,-1.246128 0.53393,-0.712073 0.62293,-1.869192 0.53393,-3.204328 0.35596,-6.853703 0.35595,-13.707405 -0.17798,-2.848292 -0.26696,-1.157118 -0.71191,-0.801082 -2.22473,-1.06811 -0.8009,-0.712073 -0.53393,-0.801082 -0.089,-0.890091 0.089,-0.890092 0.26696,-0.623063 0.44495,-0.623064 1.06787,-0.712073 1.42382,-0.356037 1.15686,-0.178018 9.52182,0.267027 h 8.18698 l 5.87327,0.08901 3.55956,0.445046 3.02563,0.712073 2.49169,0.9791 1.86877,1.335137 0.8009,0.801082 1.15685,1.869192 0.62293,2.225228 0.26696,2.581265 -0.17797,1.780182 -0.53394,1.780183 -0.71191,1.513155 -0.88989,1.246128 -2.84765,2.225228 -0.35595,0.623064 0.44494,0.623063 3.11462,1.157119 1.15685,0.623064 1.06787,0.801082 1.24585,1.602164 0.97888,1.869192 0.44494,1.424146 0.17798,1.513155 0.089,1.602164 -0.089,1.513155 -0.62292,2.759283 -0.44495,1.335137 -1.33483,2.314237 -1.86877,2.04721 -2.31372,1.602164 -2.66966,1.157119 -2.93664,0.623064 -3.29259,0.178018 z m 15.12813,-17.000742 v 0.712073 1.335137 0.801082 0 3.115319 l 0.089,2.136219 0.26696,1.157119 v 0 l 0.35596,0.623063 0.71191,0.356037 1.06787,0.178018 v 0 l 1.51281,-0.178018 1.24585,-0.534055 1.06787,-0.890091 v 0 l 0.62292,-1.246128 0.53393,-1.602164 0.17798,-1.869192 v 0 l -0.17798,-1.869191 -0.44494,-1.513155 -0.71191,-1.157119 v 0 l -1.15686,-0.801082 -1.42382,-0.445046 -1.86877,-0.178018 v 0 h -0.71192 l -0.44494,0.08901 -0.26697,0.178018 v 0 l -0.26696,0.267028 -0.089,0.534055 -0.089,0.801082 z m 0.089,-10.058031 v 0.08901 0.08901 0.08901 0 0.356037 l 0.17798,0.356036 0.17797,0.267027 v 0 l 0.17798,0.08901 0.26697,0.08901 h 0.44494 v 0 l 1.51282,-0.08901 1.24584,-0.445046 0.8009,-0.801082 v 0 l 0.71191,-1.06811 0.35596,-1.424146 0.17798,-1.869191 v 0 l -0.089,-2.136219 -0.35596,-1.513155 -0.62292,-1.06811 v 0 l -0.88989,-0.801082 -1.24585,-0.445046 -1.69079,-0.178018 v 0 h -0.35595 l -0.26697,0.08901 -0.089,0.08901 v 0 l -0.17798,0.08901 -0.089,0.178018 -0.089,0.267027 v 0 0 0.08901 l 0.089,0.178019 v 0 0.08901 0.08901 0.08901 0 2.403246 l -0.089,4.450456 -0.089,2.314238 z m 59.44463,34.891576 -24.02702,-5.518565 -0.62292,-0.267028 -0.80091,-0.890091 -0.44494,-1.06811 v -0.623063 l 0.35596,-1.424146 0.8009,-0.890092 1.24584,-0.623063 2.04675,-0.801083 0.88989,-0.890091 1.24584,-2.403246 1.77978,-5.340548 2.40271,-9.969022 1.15685,-5.785593 0.26697,-2.848292 V 47.70889 l -0.26697,-0.890091 -2.4027,-2.314237 -0.53393,-1.068109 -0.089,-0.890092 0.35595,-1.157118 0.44495,-0.623064 0.53393,-0.445046 0.62292,-0.356036 1.86877,-0.178019 h 1.15686 l 19.13263,4.628475 7.20811,1.335137 5.25035,0.712073 1.06786,0.356036 1.33484,1.157119 0.97888,1.691173 0.26696,1.513155 0.089,1.602165 -0.26696,2.670273 -0.53394,2.136219 -0.8009,1.780183 -0.62292,0.623064 -0.71191,0.445045 -0.71192,0.267028 -0.71191,0.178018 -1.33483,-0.356037 -1.15686,-0.801082 -1.15686,-1.780182 -0.8009,-1.869192 -1.15685,-1.513155 -1.77978,-1.246128 -2.22473,-0.890091 -4.44945,-1.068109 h -1.95775 l -0.8009,0.178018 -0.71192,0.890091 -1.06786,3.02631 -0.97888,4.005411 v 1.335137 l 0.35595,0.534054 1.15686,0.445046 2.22473,0.445046 0.88988,-0.178019 0.71192,-0.712073 1.6018,-3.02631 0.8009,-0.9791 0.88989,-0.623064 h 0.97888 l 1.06787,0.356037 1.06786,1.068109 0.44495,0.890091 0.35595,1.958201 -0.089,2.492255 -0.53393,3.11532 -0.97888,3.560365 -1.15685,2.937301 -1.33484,2.04721 -1.42382,1.157118 -1.06787,0.267028 h -0.53393 l -1.06787,-0.178019 -0.8009,-0.534054 -0.35596,-0.801082 -0.17798,-0.623064 0.089,-3.827393 -0.26696,-0.9791 -0.62293,-0.623064 -1.24584,-0.356036 -1.42383,-0.08901 -0.97888,0.267027 -0.62292,1.068109 -0.8009,2.937301 -0.71191,4.005411 v 1.246128 l 0.26697,0.801082 0.53393,0.534055 1.77978,0.801082 2.84765,0.801082 1.6018,0.267027 2.93663,0.267028 1.15686,-0.08901 2.31371,-0.623063 2.40271,-1.513155 2.4027,-2.225229 1.42382,-0.801082 0.97888,-0.178018 1.24585,0.356037 1.15685,0.801082 0.35596,0.534054 0.26697,0.712073 0.17797,0.801083 -0.26696,1.780182 -0.71191,2.403246 -1.06787,2.314238 -2.31372,3.204328 -2.13573,2.136219 -1.42382,0.890091 -0.88989,0.08901 -1.24585,-0.445045 -4.62743,-1.780183 z m 53.12642,-8.722894 0.17798,0.267028 0.26696,0.178018 0.26697,0.267027 v 0 l 0.26697,0.08901 0.17797,0.178018 0.26697,0.08901 v 0 l 1.33484,0.445045 1.24584,0.08901 1.15686,-0.445045 v 0 l 1.06787,-0.801082 0.97887,-1.424146 1.06787,-1.869192 v 0 l 0.62293,-1.513155 0.26696,-1.335137 -0.089,-1.157119 v 0 l -0.44494,-1.068109 -0.88989,-0.801082 -1.15686,-0.712073 v 0 l -0.71191,-0.267028 h -0.53393 l -0.62293,0.178019 v 0 l -0.53393,0.801082 -0.8009,1.246128 -0.88989,1.9582 v 0 l -0.26697,0.534055 -0.53393,1.06811 -0.26697,0.534054 v 0 l -0.17798,0.445046 -0.26696,0.534055 -0.17798,0.445045 v 0 l -0.26697,0.623064 -0.26697,0.712073 -0.26696,0.712073 z m -3.20361,7.12073 -3.73753,7.654785 -0.35596,1.335137 v 0.9791 l 0.53394,0.9791 0.8009,1.424146 0.26696,0.979097 v 0.89009 l -0.17797,0.8901 -0.97888,1.24612 -0.97888,0.44505 -1.06787,0.089 -2.22472,-0.26703 -3.11462,-1.06811 -5.51731,-2.40324 -3.55956,-1.958205 -2.49169,-1.780183 -1.42383,-1.691173 -0.53393,-0.979101 v -1.068109 l 0.26697,-1.068109 0.44494,-0.712073 1.24585,-0.712073 1.24584,-0.267028 1.33484,-0.08901 0.8009,-0.445046 2.22472,-3.115319 3.11462,-5.518566 5.07237,-10.681095 2.04674,-4.895501 0.26697,-1.691174 V 62.92944 l -1.77978,-2.848292 -0.26697,-0.979101 0.26697,-1.335137 0.8009,-0.890091 0.71191,-0.445045 0.97888,-0.178019 1.6018,0.178019 3.02563,0.890091 5.07237,2.403246 9.16586,4.183429 5.78429,2.670274 3.02562,1.869191 2.4027,1.958201 1.86877,2.136219 1.24585,2.225228 0.62292,2.314237 0.17798,1.157119 -0.35596,2.403246 -0.88989,2.581265 -1.33483,2.136219 -0.71191,0.890091 -0.88989,0.712073 -2.04675,1.157119 -2.31371,0.623064 -2.31372,0.178018 -0.88989,0.267027 -0.26696,0.356037 0.17798,0.623064 0.97887,1.157118 1.60181,1.602164 0.53393,0.801083 0.44494,0.9791 0.26697,1.068109 0.35596,2.403247 -0.089,1.335137 -0.62292,3.11532 -0.97888,3.73838 -0.089,1.33514 0.17798,0.53405 1.06786,1.06811 0.88989,1.51316 0.089,0.89009 -0.17798,0.80108 -0.62292,0.80108 -0.8009,0.71208 -1.24584,0.44504 -2.22473,0.089 -2.58068,-0.44504 -2.93664,-0.9791 -3.29259,-1.69118 -1.77978,-1.33513 -1.42382,-1.33514 -0.88989,-1.51316 -0.53393,-1.69117 -0.26697,-2.22523 0.17798,-2.58126 0.44494,-2.937304 0.35596,-1.691173 0.35595,-3.560365 -0.089,-2.04721 -0.44494,-1.602164 -0.71191,-1.157119 -1.51281,-0.801082 -0.80091,-0.08901 z m 28.20951,30.352115 1.15686,-0.9791 1.06786,-0.26703 h 1.15686 l 1.95776,0.26703 1.24584,-0.62307 1.69079,-1.60216 4.71642,-5.69659 7.38608,-9.880009 2.58068,-4.09442 0.35596,-0.890091 -0.17798,-0.890091 -1.15685,-2.314237 V 89.45417 l 0.26696,-1.06811 0.88989,-1.068109 0.97888,-0.534055 1.24585,-0.08901 0.88989,0.178018 2.13573,0.9791 3.91552,2.937302 4.98338,4.00541 8.00901,5.874604 9.34384,6.23064 0.71191,1.33513 0.089,1.33514 -0.26697,2.40325 -0.88989,2.49225 -0.8009,1.60217 -1.77978,2.40324 -1.33483,0.9791 -0.71191,0.17802 -0.71192,0.089 -0.62292,-0.089 -0.71191,-0.17802 -0.97888,-0.71207 -0.71191,-1.15712 -0.35596,-1.78018 -0.26696,-2.75928 -0.53394,-2.04721 -0.44494,-0.9791 -1.24585,-1.78019 -2.13573,-1.86919 -2.49169,-1.86919 -1.42383,-0.53405 h -0.8009 l -1.15686,0.80108 -2.66966,2.84829 -2.04675,2.58127 -0.089,0.53405 0.17798,0.53406 2.13573,1.60216 1.06787,0.35604 0.53393,0.089 1.06787,-0.44504 2.31372,-1.60216 0.97887,-0.26703 h 0.44495 l 1.33483,0.62306 0.97888,1.24613 0.26697,0.89009 -0.089,1.78018 -0.88989,2.13622 -1.6018,2.58127 -3.02563,3.9164 -2.13573,2.22523 -1.95776,1.42414 -1.24584,0.53406 -1.06787,0.089 -1.6018,-0.35604 -0.88989,-0.71207 -0.44495,-0.80109 -0.089,-0.9791 0.35596,-1.24612 1.33483,-2.67028 0.17798,-1.15712 -0.089,-0.80108 -0.71191,-0.9791 -1.51281,-1.06811 -0.62292,-0.26703 -0.62293,0.26703 -1.77978,2.22523 -2.75865,4.09442 -1.06787,2.22523 -0.089,0.80108 1.77978,2.67027 0.44494,1.15712 v 0.53406 l -0.35595,1.06811 -0.71191,0.9791 -0.97888,0.62306 -1.15686,0.35604 h -0.62292 l -2.31372,-0.53406 -1.77978,-0.80108 -4.62742,-2.9373 -4.8944,-3.9164 -2.58068,-2.58127 -1.51281,-2.22522 -0.44494,-1.33514 -0.089,-1.15712 0.35595,-1.15712 0.35596,-0.53405 z m 61.93632,18.51389 2.84765,-2.67027 0.71191,-0.9791 0.35596,-0.9791 -0.17798,-3.11532 0.44495,-1.24613 0.53393,-0.62306 0.97888,-0.53406 1.33483,-0.17801 1.42383,0.26702 1.6018,0.71208 2.66967,1.78018 2.84764,2.67027 3.64855,4.36145 1.86877,2.67027 1.06787,2.13622 0.26697,1.15712 -0.089,1.06811 -0.35596,0.9791 -1.15686,1.06811 -1.06786,0.44505 -1.15686,0.089 -1.95776,-0.53405 -1.06787,-0.26703 -1.6018,0.71208 -2.75865,1.78018 -9.07688,7.38776 -2.66967,2.84829 -1.06787,1.69117 -0.71191,1.69117 -0.089,1.51316 0.26697,1.60216 0.8009,1.69118 1.24585,1.69117 1.69079,1.69117 1.86876,1.15712 1.95776,0.53406 0.97888,0.089 0.88989,-0.089 1.6018,-0.71208 3.38158,-2.13622 9.43283,-7.74379 3.02563,-2.84829 1.15686,-1.60217 0.089,-0.71207 -0.62292,-2.84829 v -0.44505 l 0.35596,-0.9791 0.44494,-0.53405 0.8009,-0.44505 0.97888,-0.17801 0.97888,0.26702 1.86877,0.89009 2.04675,1.60217 3.02562,3.02631 2.13574,3.02631 0.97887,1.9582 0.44495,1.69117 -0.089,0.9791 -0.35596,0.80109 -0.62292,0.71207 -0.8009,0.44504 -0.8009,0.17802 h -1.06787 l -2.31371,-0.71207 -0.97888,0.17802 -1.95776,0.80108 -2.93663,2.04721 -9.25486,7.29875 -4.44944,3.11532 -3.2926,1.78018 -1.33483,0.44504 -2.58068,0.53406 -2.66967,0.089 -2.66967,-0.53406 -2.66967,-1.06811 -2.66967,-1.51315 -2.66967,-2.04721 -2.66967,-2.49226 -2.66967,-3.29333 -2.31371,-3.47136 -1.51281,-3.38235 -0.71191,-3.47135 -0.17798,-1.69118 0.089,-1.69117 0.17798,-1.60216 0.35595,-1.51316 0.53394,-1.42414 0.71191,-1.42415 0.97888,-1.33514 1.06786,-1.24612 12.9034,-11.03714 z m 33.72683,4.00541 0.88989,-0.53405 0.88988,-0.35604 h 1.06787 v 0 l 0.97888,0.17802 0.8009,0.44505 0.8009,0.62306 v 0 l 0.53394,0.89009 0.35595,0.9791 0.089,0.9791 v 0 l -0.26697,0.9791 -0.44494,0.89009 -0.71191,0.80109 v 0 l -0.88989,0.53405 -0.88989,0.26703 -0.97888,0.089 v 0 l -1.06787,-0.26703 -0.88989,-0.44504 -0.71191,-0.62307 v 0 l -0.53393,-0.89009 -0.35596,-0.9791 v -0.9791 0 l 0.17798,-0.9791 0.44494,-0.89009 0.71192,-0.71208 z m -8.80991,-10.32505 0.88989,-0.53406 0.97888,-0.35603 0.97887,-0.089 v 0 l 0.97888,0.26702 0.88989,0.44505 0.71191,0.71207 v 0 l 0.62293,0.89009 0.26696,0.89009 0.089,0.9791 v 0 l -0.17797,0.97911 -0.53394,0.89009 -0.71191,0.80108 v 0 l -0.8009,0.53405 -0.97888,0.35604 h -0.97888 v 0 l -0.97888,-0.17802 -0.88989,-0.44504 -0.8009,-0.71208 v 0 l -0.53393,-0.89009 -0.26697,-0.89009 -0.089,-1.06811 v 0 l 0.26697,-0.9791 0.44494,-0.89009 0.62293,-0.71207 z m 6.94114,99.60121 -3.20361,-1.8692 -1.51281,-1.24612 -2.66967,-2.58127 -1.15685,-1.42414 -2.04675,-3.29334 -1.51281,-3.64938 -0.97888,-3.64937 -0.26697,-2.49226 0.17798,-3.64937 0.71191,-3.64937 0.8009,-2.40325 0.88989,-1.9582 0.97888,-1.78018 1.06787,-1.69118 1.33483,-1.60216 1.51281,-1.42415 1.51282,-1.33513 1.69079,-1.15712 2.75866,-1.51316 3.2036,-1.15712 3.47057,-0.71207 3.55956,-0.17802 2.22472,0.089 2.4027,0.35604 2.22473,0.53405 3.2036,1.24613 2.93664,1.78018 2.75866,2.13622 2.4027,2.49226 1.86877,2.84829 1.33483,2.67027 0.62292,1.69118 1.06787,4.62847 0.53394,3.11532 2.04674,2.58127 0.35596,1.15711 v 0.71208 l -0.26697,1.42414 -0.62292,1.60217 -1.06787,1.69117 -1.95776,2.13622 -2.4027,1.78018 -2.22472,1.06811 -1.95776,0.44505 -1.24585,-0.089 -1.77978,-0.53406 -1.42382,-1.06811 -1.06787,-1.51315 -0.44494,-1.24613 -0.089,-1.51315 0.44494,-1.60217 2.40271,-4.53946 0.71191,-2.75929 0.17798,-1.42414 v -1.33514 l -0.53394,-2.40325 -0.88989,-1.9582 -1.51281,-1.69117 -1.24585,-0.80108 -1.33483,-0.44505 -1.51281,-0.26702 -1.6018,0.17801 -2.4917,0.89009 -2.31371,1.15712 -2.49169,1.8692 -2.04675,2.22522 -1.69079,2.49226 -1.15685,2.84829 -0.53394,2.75928 v 1.42415 l 0.089,1.24613 0.71191,2.58126 1.15686,2.31424 1.42382,1.78018 1.77978,1.51316 2.04675,1.24612 2.93664,1.33514 0.62292,0.62307 0.26696,0.53405 v 0.62306 l -0.35595,1.24613 -0.97888,1.24613 -1.42382,0.9791 -2.31372,0.89009 -1.86877,0.26703 -1.69079,-0.089 -2.04674,-0.44505 -0.97888,-0.35603 -0.97888,-0.9791 -0.53393,-0.9791 z m 7.65305,14.86452 0.97888,-0.17802 0.88989,0.26703 1.24584,0.9791 1.15686,1.33514 1.06787,0.26702 2.66967,-0.26702 5.25035,-0.9791 11.39058,-2.8483 5.25035,-1.60216 1.77978,-0.71207 0.88989,-0.62307 0.26697,-0.62306 0.35596,-1.78018 0.44494,-0.80109 0.62292,-0.71207 0.88989,-0.35604 0.97888,-0.089 1.06787,0.35603 0.97888,0.71208 1.42382,1.86919 0.88989,1.78018 1.24585,3.29334 1.42382,5.60757 0.53393,3.47136 0.089,1.78018 -0.089,1.42415 -0.35595,1.06811 -0.62292,0.89009 -0.80091,0.53405 -0.97887,0.26703 -0.88989,-0.089 -1.42383,-0.62306 -1.69079,-1.42415 -0.8009,-0.35604 -0.97888,-0.089 -3.29259,0.62307 -2.58068,0.80108 -0.88989,0.44505 -0.44494,0.71207 -0.089,0.9791 0.35595,2.13622 1.15686,4.00541 0.8009,1.69117 0.71191,0.53406 1.24585,0.089 3.91551,-0.9791 2.22473,-1.06811 0.8009,-0.71208 0.53393,-1.15712 0.53394,-1.42414 0.62292,-0.62307 1.06787,-0.53405 1.06786,-0.089 1.06787,0.26703 1.42382,1.06811 1.24585,1.9582 1.24585,3.29334 1.69079,5.96361 0.62292,3.73838 0.26697,2.75928 -0.17798,1.42415 -0.35596,1.06811 -0.62292,0.80108 -0.88989,0.53406 -0.88989,0.26702 -0.97888,-0.089 -0.88989,-0.35603 -1.69079,-1.42415 -0.97888,-0.89009 -1.24584,-0.089 -2.40271,0.26703 -8.09799,1.86919 -9.61081,2.49226 -5.16136,1.78018 -1.15686,0.53405 -0.44494,0.53406 -0.53394,1.86919 -0.53393,0.80108 -1.06787,0.80108 -1.06787,0.35604 h -0.53393 l -1.06787,-0.35604 -0.97888,-0.62306 -0.88989,-1.06811 -1.33483,-2.22523 -1.6018,-4.53946 -1.15686,-5.51857 -0.35595,-2.22523 -0.089,-1.86919 0.35595,-2.22523 0.53394,-0.9791 0.71191,-0.80108 1.06787,-0.35604 0.97887,-0.17801 1.06787,0.26702 1.6018,0.9791 1.06787,0.9791 1.06787,0.35604 h 1.06787 l 5.69529,-1.24613 1.6018,-0.53405 0.8009,-0.62307 0.35596,-0.71207 -0.089,-1.69117 -1.15686,-4.53947 -0.97888,-2.22523 -0.71191,-0.80108 -1.33483,-0.26703 -1.69079,0.26703 -4.00451,1.24613 -2.49169,1.15712 -0.71191,0.62306 -0.88989,2.31424 -0.97888,0.9791 -0.8009,0.35604 -1.06787,0.089 -1.06786,-0.35604 -0.97888,-0.71207 -1.33484,-1.78019 -1.33483,-2.75928 -1.24585,-3.73838 -0.97888,-4.09442 -0.44494,-3.38235 v -1.78018 l 0.35596,-2.13622 0.53393,-0.9791 1.24584,-0.9791 0.53394,-0.089 z m 8.8989,77.97199 v -2.58126 l 0.17797,-2.49226 0.35596,-2.49225 1.24585,-4.71749 1.06786,-2.58126 0.8009,-1.15712 1.24585,-1.15712 0.97888,-0.53405 2.49169,-1.06811 1.42382,-0.35604 3.11462,-0.53405 1.69079,-0.089 1.69079,0.17802 1.24584,0.44504 0.44495,0.35604 0.44494,1.15712 0.089,1.15711 -0.35595,1.06811 -0.62293,0.9791 -4.36046,3.64938 -2.04674,2.31424 -0.71191,1.24612 -0.62293,1.33514 -0.35595,1.33514 -0.26697,1.33513 -0.089,1.33514 0.26697,1.78018 0.62292,1.42415 0.97888,0.89009 0.62292,0.26703 0.62293,0.089 0.44494,-0.089 0.8009,-0.62307 1.15686,-2.04721 1.77978,-5.60757 1.95775,-4.53947 1.51282,-2.49225 1.6018,-2.04721 1.86877,-1.69117 2.04674,-1.33514 2.13574,-0.89009 2.4027,-0.44505 1.24585,-0.089 3.11461,0.17802 1.42382,0.35604 1.42383,0.53405 2.66967,1.42415 1.15685,1.06811 2.22473,2.40324 0.88989,1.33514 0.8009,1.51316 0.62292,1.60216 0.88989,3.38235 0.35596,1.86919 0.089,3.38235 -0.17798,3.02631 -0.8009,4.45045 0.17797,1.42415 0.53394,2.40324 -0.17798,1.24613 -0.62292,1.24613 -1.06787,1.33514 -2.31371,1.86919 -2.49169,1.42414 -1.60181,0.53406 -1.6018,0.17802 h -1.06786 l -0.88989,-0.17802 -0.80091,-0.35604 -1.33483,-1.24613 -0.44494,-0.71207 -0.26697,-0.89009 -0.17798,-0.89009 0.17798,-1.06811 0.88989,-1.78018 2.4027,-3.02631 1.6018,-1.9582 0.97888,-2.58127 0.26697,-1.69117 -0.089,-1.78018 -0.35596,-1.24613 -0.71191,-0.9791 -0.97888,-0.44505 h -0.53393 l -0.62292,0.089 -0.62293,0.35604 -1.06787,1.42414 -0.97887,2.13622 -2.22473,8.09983 -1.6018,3.56037 -1.24585,1.9582 -1.51281,1.60216 -1.77978,1.24613 -1.95775,0.89009 -2.13574,0.53406 -2.4027,0.26702 h -1.77978 l -1.69079,-0.26702 -1.6018,-0.35604 -1.60181,-0.53405 -1.42382,-0.71208 -1.42382,-0.9791 -1.24585,-1.15712 -1.24584,-1.33513 -1.15686,-1.42415 -0.97888,-1.60216 -0.8009,-1.69118 -0.71191,-1.78018 -0.62292,-1.9582 -0.44495,-2.04721 -0.26697,-2.13622 -0.17797,-2.22523 z m -2.93664,56.60981 3.91551,-23.49841 0.44495,-1.33514 0.8009,-0.89009 1.06787,-0.53406 h 1.33483 l 1.15686,0.44505 0.88989,0.89009 1.24584,2.84829 0.53394,0.62307 2.22472,1.06811 4.8944,1.33513 8.009,1.60217 10.05576,1.42414 2.04674,0.089 1.77978,-0.26703 0.8009,-0.44504 1.86877,-2.22523 1.06787,-0.62306 0.88989,-0.089 1.15686,0.26703 0.71191,0.35603 0.44494,0.53406 0.35596,0.62306 0.26697,0.80108 0.089,0.9791 v 1.15712 l -3.47057,19.31498 -0.88989,7.20974 -0.35596,5.34055 -0.35596,1.06811 -0.62292,0.9791 -0.88989,0.80108 -1.86877,0.89009 -1.6018,0.35604 -2.58068,0.089 -3.02562,-0.53406 -1.86877,-0.80108 -0.62293,-0.53405 -0.53393,-0.62307 -0.35596,-0.71207 -0.089,-0.80108 0.17797,-1.24613 0.35596,-0.89009 0.71191,-0.71208 3.2036,-1.78018 1.51282,-1.33513 1.06786,-1.78019 0.80091,-2.31423 0.62292,-3.64938 0.089,-2.13622 -0.17798,-0.9791 -0.35596,-0.71207 -1.24584,-0.62306 -3.64855,-0.8901 -2.93664,-0.44504 -1.33483,0.089 -0.44495,0.35603 -0.53393,1.15712 -0.26697,1.60217 0.089,1.15712 0.44495,0.71207 1.15685,0.62306 2.40271,1.06811 1.15685,0.80108 0.62293,0.89009 0.089,0.97911 -0.62292,1.42414 -0.62292,0.71207 -1.6018,0.71208 -2.13574,0.35603 -2.66967,-0.089 -4.71641,-0.71207 -3.20361,-0.9791 -2.4027,-1.15712 -1.51281,-1.33513 -0.53393,-0.8901 -0.17798,-0.53405 0.089,-1.15712 0.26696,-0.9791 0.62293,-0.53405 1.06786,-0.35604 3.73754,-0.17802 0.97888,-0.26703 0.62292,-0.71207 0.35596,-1.24613 v -1.51315 l -0.35596,-0.89009 -1.15685,-0.53406 -4.0935,-0.80108 -3.55956,-0.26703 -1.42382,0.35604 -0.53393,0.53405 -0.8009,2.67028 -0.71192,3.64937 v 2.84829 l 0.17798,1.33514 0.71191,2.22523 1.33484,1.9582 2.75866,2.49225 0.88989,1.51316 0.089,0.89009 -0.17798,1.24613 -0.26697,0.71207 -0.97888,0.89009 -1.42382,0.44505 -0.88989,0.089 -2.22473,-0.35604 -3.55955,-1.33514 -3.38159,-2.04721 -2.31371,-2.04721 -0.8009,-0.89009 -0.26697,-0.80108 0.17798,-1.24613 1.69079,-5.25153 1.06787,-5.07352 z"
         style="fill:#ffffff;fill-opacity:1;fill-rule:evenodd;stroke:none" />
      <path
         inkscape:connector-curvature="0"
         id="erlangen"
         d="m 120.31309,536.27997 -16.99689,-18.33588 -0.53394,-1.15712 v -0.53405 l 0.26697,-1.15712 0.8009,-1.15712 1.06787,-0.62306 1.24584,-0.17802 3.02563,0.80108 h 0.44494 l 1.33484,-0.44504 2.75866,-1.69118 4.89439,-4.00541 8.54294,-7.8328 3.73754,-4.00541 1.24584,-1.78018 0.26697,-0.9791 -0.71191,-2.75929 v -1.24612 l 0.62292,-1.15712 0.97888,-0.80109 0.62292,-0.26702 0.71192,-0.089 0.8009,0.089 0.8009,0.35603 1.77978,1.24613 13.43733,14.68651 6.4962,6.31965 2.84764,2.40324 0.88989,1.51316 0.26697,1.15712 -0.089,1.24612 -0.35595,1.42415 -1.15686,2.13622 -1.06787,1.42414 -2.31371,2.13622 -0.88989,0.62307 -0.88989,0.35603 -0.88989,0.17802 -0.8009,0.089 -0.8009,-0.17802 -1.33484,-0.89009 -0.71191,-1.24613 -0.17798,-1.06811 0.17798,-1.60216 0.35596,-2.04721 -0.089,-1.9582 -0.8009,-2.04721 -1.33484,-2.04721 -3.11461,-3.29334 -1.6018,-1.15712 -0.8009,-0.35603 -0.71192,0.089 -1.6018,0.9791 -3.29259,2.84829 -1.69079,1.86919 -0.35596,0.71207 0.089,0.35604 0.62293,1.15712 1.6018,1.51315 0.88989,0.44505 h 0.44494 l 1.24585,-0.53406 2.4027,-1.33513 1.24585,-0.44505 1.15685,0.089 0.8009,0.53406 0.8009,1.33513 0.17798,1.06811 -0.35595,1.60217 -1.06787,1.9582 -1.69079,2.13622 -3.55956,3.20432 -2.75866,2.04721 -2.31371,1.15712 -1.42383,0.35604 -1.24584,0.089 -1.06787,-0.35604 -0.88989,-0.71207 -0.62292,-0.80108 -0.089,-0.89009 0.44494,-1.06811 2.13574,-3.11532 0.44494,-1.06811 -0.26696,-0.80109 -0.8009,-1.0681 -1.06787,-0.97911 -0.97888,-0.26702 -1.24585,0.62306 -3.11461,2.84829 -1.95776,2.04721 -0.97888,1.51316 v 0.80108 l 0.71192,1.42415 2.4027,2.9373 2.22472,2.13622 2.31372,1.51315 1.06786,0.44505 1.15686,0.35603 2.4027,0.089 3.73754,-0.53405 1.69079,0.089 1.24585,0.71207 0.8009,1.33514 0.17797,0.71207 v 0.62306 l -0.089,0.71208 -0.88989,1.42414 -1.60181,1.60217 -2.13573,1.42414 -2.4027,1.15712 -2.49169,0.89009 -2.22473,0.53406 -1.6018,0.089 -0.88989,-0.089 -1.15686,-0.80108 -3.38158,-4.8065 -3.38158,-4.00541 z m 56.77497,13.6184 0.17797,0.26703 0.26697,0.17801 0.17798,0.26703 v 0 l 0.26697,0.17802 0.17797,0.17802 0.17798,0.17802 v 0 l 1.33484,0.71207 1.24584,0.17802 1.15686,-0.17802 v 0 l 1.24584,-0.71207 1.24585,-1.15712 1.33483,-1.69118 v 0 l 0.80091,-1.51315 0.53393,-1.33514 0.089,-1.15712 v 0 l -0.26697,-1.06811 -0.62292,-0.89009 -1.06787,-0.9791 v 0 l -0.71191,-0.35603 -0.62292,-0.089 -0.62293,0.089 v 0 l -0.62292,0.62306 -1.06787,1.24613 -1.24584,1.69117 v 0 l -0.35596,0.53406 -0.62292,0.9791 -0.35596,0.53405 v 0 l -0.26696,0.44505 -0.35596,0.44504 -0.26697,0.44505 v 0 l -0.35595,0.53405 -0.35596,0.71208 -0.44494,0.71207 z m -4.27147,6.49766 -5.25035,7.56578 -0.53394,1.33514 0.089,0.89009 0.88989,2.22523 0.089,1.06811 -0.26697,1.33513 -0.97888,1.15712 -0.88989,0.44505 -1.06786,0.089 -1.95776,-0.35604 -2.75866,-1.24613 -4.8054,-3.02631 -4.53844,-3.47135 -2.31371,-2.13622 -1.15686,-1.9582 -0.26697,-1.15712 v -0.44505 l 0.26697,-1.06811 0.53393,-0.80108 1.24585,-0.62306 1.06787,-0.26703 2.22472,0.17802 1.15686,-0.71208 3.02562,-3.29333 4.0935,-5.42956 6.67417,-9.791 2.13573,-3.38235 0.53394,-1.60216 0.089,-0.53406 -1.33484,-3.11532 -0.089,-0.9791 0.17798,-0.89009 0.88989,-0.9791 0.71191,-0.44505 0.88989,-0.17801 1.6018,0.26702 2.66967,1.15712 4.62743,3.02631 5.42833,3.73838 7.65305,5.07352 3.02562,2.22523 2.40271,2.40325 1.77978,2.40325 0.71191,1.15711 0.88989,2.49226 0.26696,1.24613 v 1.15712 l -0.089,1.24612 -0.71191,2.31424 -0.53393,1.24613 -1.51281,2.13622 -1.86877,1.69117 -0.97888,0.62306 -1.06787,0.53406 -2.31371,0.53405 h -1.95776 l -2.13573,-0.17801 -0.62293,0.35603 -0.089,0.53406 0.88989,1.51315 1.24585,1.86919 0.44494,0.8901 0.44495,2.22522 v 1.15712 l -0.35596,2.58127 -0.88989,2.67027 -1.86877,3.9164 -0.26696,1.33514 0.089,0.62306 1.15685,1.78019 0.35596,1.0681 v 0.8901 l -0.35596,0.71207 -0.71191,0.80108 -1.06787,0.53406 -1.15685,0.26702 -2.31372,-0.26702 -1.69079,-0.53406 -2.66967,-1.24613 -2.93663,-1.9582 -1.86877,-1.60216 -1.33483,-1.60217 -0.97888,-1.60216 -0.44495,-1.78018 -0.089,-1.9582 0.35596,-2.31424 0.8009,-2.75928 1.69079,-4.98451 0.53393,-2.40325 0.089,-1.9582 -0.35595,-1.60217 -0.71192,-1.06811 -0.97887,-0.71207 -0.8009,-0.26703 z m 53.39338,50.37917 -21.0014,-8.7229 -1.06787,-1.06811 -0.35595,-0.71207 -0.17798,-0.62306 -0.089,-0.71207 0.089,-0.80109 0.44495,-1.24612 0.97887,-0.97911 1.42383,-0.62306 2.31371,-0.62306 1.15686,-0.80109 1.42382,-2.0472 2.22473,-4.62848 5.87327,-14.24146 1.06787,-3.47136 0.089,-1.24612 -0.26696,-0.53406 -1.69079,-1.78018 -0.53394,-0.89009 -0.17798,-1.06811 0.17798,-0.9791 0.71191,-0.9791 0.88989,-0.62307 1.33484,-0.35603 h 1.69079 l 3.11461,0.44504 3.73754,1.06811 4.27147,1.69118 3.64855,1.78018 2.66967,1.78018 1.77978,1.69117 0.62292,1.06811 0.26697,1.06811 -0.26697,1.06811 -0.8009,1.15712 -0.88989,0.44505 -1.15686,0.35603 -2.31371,0.17802 -0.97888,0.35604 -0.8009,1.06811 -3.29259,7.20974 -5.87327,14.24146 -0.44495,1.9582 -0.089,0.9791 0.44495,0.89009 1.06786,0.89009 2.31372,1.06811 2.84765,0.71207 1.15685,0.17802 1.42383,-0.26703 0.97887,-0.35603 1.77978,-1.42415 1.77978,-1.78018 0.88989,-0.62306 0.88989,-0.17802 0.8009,0.089 0.8009,0.44504 0.62293,0.62307 0.53393,0.62306 0.35596,0.80108 0.26696,0.9791 v 0.89009 l -0.17797,1.06811 -0.80091,1.9582 -1.33483,2.04721 -2.84765,3.11532 -1.95775,1.51316 -1.69079,0.80108 -1.15686,0.26703 h -0.53394 l -1.15685,-0.44505 -3.47057,-2.13622 -3.55956,-1.60216 z m 50.99068,-5.69659 2.49169,0.44505 4.71642,0.80108 2.58068,0.44505 v 0 l -0.62292,-2.84829 -0.71192,-2.31424 -0.62292,-1.9582 v 0 l -0.62292,-1.33514 -0.53394,-0.89009 -0.44494,-0.26703 v 0 l -0.53393,0.089 -0.62293,0.53406 -0.8009,0.89009 v 0 l -1.06787,1.42414 -1.42382,2.13622 -1.77978,2.84829 z m -21.89129,12.28326 0.35596,-0.9791 0.71191,-0.71207 0.97888,-0.62306 1.86877,-0.35604 0.71191,-0.089 1.33483,-0.9791 2.22473,-2.58126 3.55956,-4.98452 10.14474,-15.6656 3.11461,-5.42956 1.51282,-3.47135 0.53393,-0.80109 1.15686,-0.9791 1.06787,-0.35603 h 1.51281 l 2.66967,0.44504 2.31371,0.80109 1.77978,1.15711 1.51281,1.60217 1.33484,2.31424 1.86877,4.71748 1.69079,5.60757 2.75865,10.50308 2.75866,11.48218 0.97888,3.02631 0.62292,0.9791 2.04675,1.42414 0.97888,1.15712 0.17798,0.9791 -0.17798,1.06811 -0.53393,0.9791 -0.44495,0.44505 -1.06787,0.62306 -1.42382,0.35604 -2.93664,0.26703 -3.91551,-0.26703 -6.67417,-1.24613 -4.18249,-0.9791 -2.75865,-1.06811 -1.24585,-0.80108 -1.06787,-1.24613 -0.17798,-1.06811 0.17798,-0.9791 0.35596,-0.80108 0.97888,-0.89009 2.75865,-0.9791 0.44495,-0.80108 0.089,-0.35604 -0.44495,-0.89009 -0.97887,-0.80108 -1.6908,-0.80109 -3.55955,-0.89009 -5.07238,-0.89009 h -2.4027 l -1.15685,0.26703 -0.53394,0.35604 -0.62292,1.15711 v 0.71208 l 0.44494,0.80108 2.13574,1.24613 0.53393,0.62306 0.26697,0.89009 -0.17798,1.51316 -0.8009,1.15712 -1.42382,0.89009 -2.04675,0.35603 -1.77978,0.089 -3.2036,-0.35603 -3.38158,-0.62307 -2.75866,-0.80108 -1.95776,-1.06811 -1.33483,-1.15712 -0.44495,-0.80108 -0.17798,-0.9791 0.089,-0.44505 z m 74.57276,-7.56577 -0.62292,-7.8328 -0.62292,-3.91641 -0.8009,-2.58126 -0.71192,-1.24613 -3.11461,-1.69117 -0.8009,-0.9791 -0.35596,-1.15712 0.089,-1.06811 0.35596,-0.9791 1.24584,-1.15712 2.04675,-0.80108 4.36046,-0.80108 4.62743,-0.26703 2.22472,0.089 1.77978,0.71207 3.2036,2.22523 13.08138,10.50308 4.00451,2.58126 1.06786,0.53406 0.88989,-0.17802 0.44495,-0.62307 0.17798,-1.51315 -0.26697,-5.42956 -0.35596,-1.60216 -0.53393,-0.9791 -0.97888,-0.80109 -1.86877,-0.80108 -0.88989,-0.9791 -0.26696,-0.89009 -0.089,-1.06811 0.26696,-0.9791 0.71192,-1.15712 1.42382,-0.80108 1.42382,-0.44505 3.02563,-0.53405 3.91551,-0.26703 h 3.11462 l 2.22472,0.35604 1.51281,0.53405 0.8009,1.06811 0.35596,0.89009 v 1.69118 l -0.35596,0.89009 -0.62292,0.89009 -2.31371,1.51316 -0.62292,1.15711 -0.35596,2.49226 -0.17798,7.03172 0.8009,17.71282 -0.089,3.64937 -0.26696,2.22523 -0.53394,1.78018 -0.88989,1.33514 -0.53393,0.44504 -0.62292,0.17802 -1.06787,0.17802 -1.33484,-0.44505 -2.22472,-1.24612 -4.98338,-3.64938 -15.21712,-12.55028 -2.49169,-1.60217 -0.8009,-0.35603 -0.53393,0.089 -0.8009,0.71208 -0.35596,1.24613 -0.089,3.11531 0.53394,4.36145 0.44494,1.9582 0.53393,1.24613 0.80091,0.80108 1.77977,0.89009 0.88989,1.06811 0.35596,1.15712 -0.089,1.06811 -0.35595,0.9791 -0.71192,0.80108 -1.51281,0.9791 -2.22472,0.71208 -2.84765,0.53405 -3.38158,0.17802 -2.84765,-0.26703 -2.13573,-0.53405 -1.51282,-0.80108 -0.71191,-0.80109 -0.35595,-0.89009 -0.089,-0.9791 0.44494,-1.15712 0.97888,-1.06811 1.86877,-1.69117 0.44494,-1.06811 0.26697,-1.69117 0.089,-4.53947 -0.26697,-5.69658 z m 59.44464,-7.29875 -0.71191,-3.47136 -0.17798,-2.31423 v -2.31424 l 0.35595,-2.40325 0.97888,-3.56036 1.51281,-3.38235 1.86877,-3.11532 1.42383,-1.69117 1.6018,-1.69117 2.66967,-2.13622 3.02562,-1.78019 2.22473,-0.9791 2.4027,-0.89009 2.13573,-0.53405 2.13574,-0.35604 2.31371,-0.17802 3.91552,-0.089 0.97888,-0.35603 2.4027,-1.78019 0.97888,-0.35603 h 0.62292 l 1.33483,0.26703 2.04675,0.9791 1.33484,1.15711 1.69079,2.22523 0.97887,1.78019 0.97888,2.67027 0.17798,1.9582 -0.26697,1.69117 -0.71191,1.51316 -1.24584,1.15712 -1.69079,0.71207 -1.69079,0.26703 -1.69079,-0.089 -0.80091,-0.35604 -5.33933,-3.38235 -1.15686,-0.53405 -1.15686,-0.35604 -1.15685,-0.17801 -1.15686,-0.089 -1.15686,0.17801 -2.04674,0.53406 -1.69079,0.9791 -1.33484,1.15712 -1.06787,1.60216 -0.8009,1.78019 -0.35595,1.86919 -0.089,2.04721 0.35595,2.22522 0.88989,2.93731 1.51282,3.29333 1.77978,2.8483 2.13573,2.49225 2.4027,1.9582 2.40271,1.33514 2.4027,0.62306 1.15685,0.089 1.24585,-0.17802 1.77978,-0.53405 1.06787,-0.89009 0.26696,-0.53406 0.26697,-1.42414 -0.35595,-1.69118 -0.35596,-0.71207 -0.62292,-0.53405 -0.88989,-0.17802 -2.93664,0.44504 h -0.62292 l -1.24585,-0.53405 -0.88989,-0.80108 -0.53393,-1.06811 -0.26697,-1.24613 0.26697,-1.24613 0.8009,-1.24613 1.15686,-1.15712 2.58068,-1.69117 3.55956,-1.60216 4.53843,-1.42415 2.75866,-0.71207 2.58068,-0.44505 2.04675,-0.089 1.77978,0.17802 0.8009,0.17802 1.24584,0.53405 0.88989,0.8901 0.53394,1.15711 0.17798,1.24613 -0.35596,1.15712 -0.8009,1.15712 -2.31371,1.86919 -0.089,0.44505 v 3.56036 l -0.44495,2.58127 -0.8009,2.40324 -1.06787,2.13622 -1.33483,1.9582 -1.6018,1.78018 -3.02563,2.31424 -2.4027,1.42415 -4.27147,1.78018 -4.18248,1.15712 -3.91552,0.62306 -2.4027,0.089 -2.49169,-0.17802 -3.47057,-0.62306 -3.38158,-1.06811 -3.11462,-1.69117 -2.75865,-2.13622 -2.40271,-2.58127 -2.04674,-2.9373 -1.69079,-3.38234 -0.88989,-2.49226 z m 95.12921,-13.6184 -21.71331,12.37227 -1.24585,0.17802 -1.15685,-0.26703 -0.88989,-0.80108 -0.62293,-0.9791 -0.17797,-1.15712 0.26696,-1.15712 1.15686,-2.49225 0.17798,-0.80108 -0.17798,-1.06811 -0.97888,-2.9373 -2.75866,-5.69659 -5.78428,-10.05803 -2.66967,-4.09442 -1.86877,-2.04721 -0.88989,-0.44504 h -2.84764 l -1.24585,-0.35604 -0.97888,-0.80108 -0.53393,-1.06811 -0.089,-0.71208 0.089,-0.71207 0.26696,-0.71207 1.15686,-1.51316 2.4027,-1.60216 14.14925,-7.8328 6.58518,-4.00541 5.78429,-4.09442 1.15685,-0.44505 1.15686,-0.089 1.15686,0.17802 1.33483,0.53405 1.86877,1.33514 1.77978,2.04721 1.51281,2.67027 0.53394,1.9582 v 0.8901 l -0.17798,0.80108 -0.26697,0.71207 -1.15686,1.06811 -0.97887,0.35604 -0.97888,0.089 -1.24585,-0.26703 -2.66967,-1.15712 -2.04674,-0.35604 -2.13574,0.35604 -2.31371,0.80108 -4.00451,2.40325 -1.42382,1.24613 -0.62292,1.06811 0.17798,0.80108 1.24584,2.9373 2.13574,3.56036 0.88989,1.06811 0.62292,0.089 1.24584,-0.35603 1.95776,-1.24613 0.53394,-0.71207 v -0.44505 l -0.17798,-1.33514 -0.71191,-2.58126 -0.089,-1.33514 0.26696,-0.9791 0.71192,-0.71207 0.97887,-0.44505 0.97888,-0.089 1.6018,0.53406 1.60181,1.15712 1.69079,1.86919 2.4027,3.82739 1.51281,3.29334 0.88989,2.75928 0.17798,1.60217 -0.089,1.24612 -0.44494,1.15712 -0.71192,0.80108 -1.42382,0.71208 h -0.35596 l -0.71191,-0.17802 -1.33483,-1.15712 -1.95776,-2.22523 -0.88989,-0.62306 -0.44494,-0.089 -1.06787,0.35604 -1.24585,0.71207 -0.88989,0.89009 -0.17798,0.44505 0.35596,1.24612 1.42382,2.75929 2.22473,3.38234 1.33483,1.24613 0.71191,0.17802 1.51282,-0.35604 3.38158,-1.69117 2.58068,-1.69117 1.95776,-1.8692 1.33483,-2.04721 0.44495,-1.06811 0.26696,-1.69117 0.26697,-3.29334 0.26697,-1.15712 0.88989,-1.15711 1.06786,-0.62307 0.71192,-0.17802 h 0.71191 l 0.71191,0.089 0.71191,0.35604 1.15686,1.15712 1.06786,1.86919 0.97888,2.40325 0.62293,2.67027 0.35595,2.58126 -0.17798,3.11532 -0.26696,1.15712 -0.44495,0.80108 -1.24584,0.71208 -2.66967,0.9791 -4.71642,2.13622 -2.31371,1.33513 z m 18.68768,-37.91788 -5.42832,-5.69659 -3.02563,-2.67027 -2.22472,-1.51316 -1.24585,-0.44504 -1.15686,0.089 -2.4027,0.44504 -0.88989,-0.089 -1.06787,-0.44504 -0.97887,-1.15712 -0.26697,-0.9791 0.089,-1.15712 0.71191,-1.78018 1.69079,-2.22523 3.73754,-3.82739 2.4027,-1.9582 1.42382,-0.80108 2.66967,-0.44505 8.27598,-0.17802 h 9.69979 l 4.71642,-0.26703 2.04675,-0.44504 0.71191,-0.53406 0.089,-0.62306 -0.17798,-0.80108 -1.06787,-1.42415 -3.2036,-3.56036 -1.24585,-0.9791 -1.06786,-0.35604 -0.62293,-0.089 -1.6018,0.35604 -0.44494,0.17802 -0.97888,0.089 -1.24585,-0.44504 -1.06787,-1.06811 -0.53393,-0.89009 -0.089,-0.89009 0.089,-0.9791 0.8009,-1.60217 1.77978,-2.13622 3.64855,-3.47135 2.4027,-1.9582 1.86877,-1.15712 1.06787,-0.44505 h 1.33483 l 0.88989,0.35604 1.15686,1.15712 0.53393,0.9791 0.17798,0.89009 -0.26697,1.24613 -0.53393,1.42414 v 1.06811 l 0.26697,1.06811 2.04674,3.11532 5.16136,6.31965 10.14475,11.21515 2.84764,3.82739 1.06787,1.86919 0.44495,1.60217 v 0.80108 l -0.17798,0.62306 -0.8009,1.15712 -1.06787,0.53406 -2.31371,0.53405 -5.25035,0.35604 h -11.47958 l -5.78428,-0.089 h -4.71642 l -2.66967,0.26703 -0.53393,0.26702 -0.53394,0.89009 v 0.53406 l 0.53394,1.24613 1.86877,2.40324 3.2036,3.20433 2.22472,1.60217 0.97888,0.35603 2.66967,-0.44504 1.33483,0.17802 0.97888,0.71207 0.71192,0.89009 0.26696,1.51315 -0.35595,1.60217 -0.62293,1.33514 -1.42382,1.9582 -3.02562,3.02631 -2.40271,1.86919 -2.13573,1.15712 -1.86877,0.53405 h -0.97888 l -1.33483,-0.71207 -0.88989,-0.9791 -0.17798,-1.24613 0.17798,-1.69117 0.26696,-1.78019 -0.62292,-1.51315 -2.66967,-3.73838 -4.53844,-5.16253 z"
         style="fill:#ffffff;fill-opacity:1;fill-rule:evenodd;stroke:none" />
      <path
         inkscape:connector-curvature="0"
         id="kopf"
         d="m 505.1904,179.5314 -13.25936,8.7229 -12.28048,7.65478 -34.7057,20.56111 -12.01351,7.56578 -8.63193,5.96361 -8.36496,6.58667 -8.18699,7.29875 -5.51731,5.51857 -2.75866,2.9373 -3.11461,-1.42415 -4.0935,-1.24613 -4.8054,-0.9791 -5.51732,-0.80108 -6.22923,-0.62306 -6.85215,-0.26703 h -7.38608 l -7.92002,0.26703 -8.27597,0.62306 -8.72092,1.06811 -8.98789,1.33514 -9.25485,1.78018 -9.52182,2.22523 -9.52182,2.58126 -9.6998,3.11532 -4.8944,1.78018 -4.8054,1.8692 -10.76767,-5.60758 -15.66205,-8.98992 -15.3951,-9.61299 -30.6122,-19.582 -10.23374,-6.40866 -5.6063,-7.92181 -2.49169,-3.73839 -2.22473,-3.82739 -3.11461,-5.8746 -2.75866,-6.31965 -1.69079,-4.62847 -3.47057,1.60216 -3.02562,2.04721 -2.66967,2.22523 -2.22473,2.58126 -1.77978,2.8483 -1.6018,3.11532 -1.24584,3.29333 -0.97888,3.47136 -0.71192,3.64937 -0.53393,3.8274 -0.26697,4.00541 v 8.09983 l 0.44495,8.36685 0.62292,7.47677 0.8009,6.31965 0.97888,6.14163 1.95776,9.07893 1.42382,5.8746 1.69079,5.78559 3.82653,11.30416 4.18248,11.21515 13.97127,33.1114 8.098,11.39316 -3.11462,-7.8328 -3.02562,-7.8328 -2.75866,-7.8328 -2.58068,-7.92182 -2.31372,-7.92181 -2.13573,-8.01082 -2.75866,-12.19425 -2.31371,-12.37227 -1.95776,-12.63929 -0.97888,-8.7229 -1.15685,-13.17335 -0.62293,-13.61839 -0.17798,-9.34596 v -4.71749 h 3.20361 l 4.98338,6.7647 2.58068,3.11532 5.42833,5.78559 5.69529,5.16253 5.96226,4.62847 6.14024,4.27244 6.40721,4.00541 9.78879,5.60758 20.1115,10.7701 10.14475,5.8746 10.14474,6.40866 6.58518,4.8955 6.4962,5.42956 12.54744,-4.98451 8.00901,-2.84829 11.47958,-3.47136 7.47507,-1.78018 7.38609,-1.33514 3.64854,-0.53405 7.2971,-0.62307 7.20811,-0.26703 7.2081,0.35604 7.38609,0.71207 7.38608,1.24613 7.65306,1.69117 7.83102,2.22523 8.098,2.84829 8.36496,3.29334 4.27148,1.86919 12.1025,-11.83821 12.01351,-11.12614 6.05125,-5.34055 12.1025,-9.96902 6.22923,-4.71748 6.22922,-4.53947 6.31822,-4.27244 6.40721,-4.27243 9.96676,-5.96362 10.23373,-5.51856 10.85666,-5.16253 3.55956,-1.69117 0.35595,5.78559 v 8.36686 l -0.35595,7.8328 -0.44495,4.98451 -0.62292,4.80649 -0.71191,4.8065 -0.97888,4.53946 -2.13574,8.63389 -2.66967,8.36685 -3.2036,7.92182 -3.38158,7.74379 -3.82652,7.56578 -16.64094,31.06418 -4.18248,8.36686 -4.18249,8.8119 -4.0045,9.43497 v 4.8955 l 4.18248,13.6184 3.73754,13.88542 2.4027,10.59209 1.86877,11.03713 0.8009,7.38775 0.44494,7.03172 v 6.7647 l -0.44494,6.40865 -0.35596,3.20433 -0.97887,6.14163 -1.42383,5.96361 -1.69079,5.7856 -1.95776,5.51856 -2.4027,5.42956 -4.0045,7.65478 -4.71642,7.38776 -5.16136,7.03172 -5.69529,6.67569 -6.14024,6.40865 -8.80991,8.01082 -9.25485,7.65479 -9.6998,7.38776 -9.87778,6.94271 -39.68908,26.52472 8.098,-1.60217 22.6032,-11.39316 14.41621,-7.7438 9.52182,-5.51856 9.52182,-5.87461 9.16586,-6.31964 4.53844,-3.29334 8.63193,-6.94271 8.098,-7.47677 5.6063,-5.96361 5.16136,-6.14163 4.71642,-6.49767 4.18248,-6.8537 2.4027,-4.71748 2.13574,-4.8955 1.86877,-4.98452 2.22472,-7.92181 0.97888,-5.42955 0.71191,-5.60758 0.35596,-7.29875 0.089,-4.45045 -0.26697,-8.90092 -0.62292,-8.8119 -0.88989,-8.8119 -1.06787,-8.7229 -3.82653,-25.3676 -0.97887,-2.58126 -1.24585,-5.07352 -0.35596,-2.40325 -0.17797,-2.40324 v -2.31424 l 0.17797,-2.22523 0.35596,-2.22523 1.06787,-4.36144 1.6018,-4.18343 1.95776,-4.09442 2.31371,-4.00541 5.33934,-8.01083 8.54294,-12.19425 4.0045,-6.58667 2.22473,-4.45046 3.64855,-8.72289 2.58068,-6.49767 2.31371,-6.49766 3.2036,-9.88002 2.58068,-9.96902 2.04675,-10.05803 0.97888,-6.76469 0.53393,-6.8537 0.17798,-6.7647 -0.17798,-6.76469 -0.71191,-6.76469 -1.15686,-6.7647 -0.71191,-3.38234 -1.95776,-6.7647 -2.49169,-6.67568 -4.89439,-1.60217 z"
         style="fill:#ffffff;fill-opacity:1;fill-rule:evenodd;stroke:none" />
      <path
         inkscape:connector-curvature="0"
         id="stirn"
         d="m 336.28933,284.65118 -30.79019,71.11829 51.88058,-71.11829 z"
         style="fill:#ffffff;fill-opacity:1;fill-rule:evenodd;stroke:#000000;stroke-width:0.08898897px;stroke-linecap:round;stroke-linejoin:round;stroke-dasharray:none;stroke-opacity:1" />
      <path
         inkscape:connector-curvature="0"
         id="backe_r"
         d="m 380.0719,371.88012 9.6998,38.80798 v 11.39317 l -1.6018,4.80649 -8.098,3.20433 -16.19599,3.29333 -39.33313,1.51316 -1.42382,-0.089 -2.75866,0.35604 -3.91551,0.9791 -3.73754,1.51315 -6.76316,3.20433 -6.94114,3.82739 19.48858,-3.29333 69.94534,-1.60217 4.89439,-0.71207 5.33934,-1.33514 3.73754,-1.51315 1.95775,-1.24613 1.33484,-1.51316 0.8009,-1.51315 0.35595,-1.69117 v -1.51316 l -0.35595,-1.9582 -6.94114,-22.51931 -12.99239,-25.90165 z"
         style="fill:#ffffff;fill-opacity:1;fill-rule:evenodd;stroke:#000000;stroke-width:0.08898897px;stroke-linecap:round;stroke-linejoin:round;stroke-dasharray:none;stroke-opacity:1" />
      <path
         inkscape:connector-curvature="0"
         id="backe_l"
         d="m 194.35192,352.56514 -2.22473,3.11532 -2.04674,2.9373 -1.86877,2.84829 -1.69079,2.84829 -1.42383,2.75929 -1.33483,2.84829 -1.24585,2.9373 -1.06786,2.9373 -0.97888,3.11532 -0.88989,3.38235 -0.88989,3.64937 -0.8009,3.82739 -0.8009,4.27244 v 0 l 0.26696,4.00541 0.88989,4.00541 1.42383,3.9164 1.69079,3.8274 1.95775,3.64937 2.13574,3.47136 2.22472,3.20433 2.13574,2.84829 1.95776,2.40324 1.77978,2.04721 1.33483,1.51316 0.88989,0.9791 0.35596,0.26703 v 0 l 2.04674,1.69117 4.0935,3.20433 2.49169,2.04721 v 0 l -1.33484,-3.56037 -1.24584,-3.47135 -1.24585,-3.38235 -1.15686,-3.20433 -1.15685,-3.20433 -1.06787,-3.11532 -0.97888,-3.02631 -0.88989,-2.9373 -0.88989,-2.9373 -0.8009,-2.84829 -0.71191,-2.84829 -0.71191,-2.84829 -0.53394,-2.8483 -0.44494,-2.75928 -0.44495,-2.84829 -0.26696,-2.84829 -0.26697,-2.9373 -0.089,-2.9373 v -3.02632 l 0.089,-3.02631 0.17798,-3.11531 0.35595,-3.20433 0.35596,-3.29334 0.53393,-3.38235 0.62293,-3.47135 0.8009,-3.64938 z"
         style="fill:#ffffff;fill-opacity:1;fill-rule:evenodd;stroke:none" />
      <path
         inkscape:connector-curvature="0"
         id="auge_r"
         d="m 343.14148,359.50785 -2.84765,1.86919 -2.75866,1.78019 -2.75865,1.86919 -2.66967,1.86919 -2.66967,1.9582 -2.58068,1.9582 -2.58068,1.86919 -2.49169,2.04721 -2.49169,1.9582 -2.40271,2.04721 -2.4027,2.04721 -2.31371,2.13622 -2.22473,2.13622 -2.31371,2.13622 -2.13574,2.22523 -2.13573,2.22523 -2.13574,2.31423 -1.95775,2.31424 -2.04675,2.40325 -1.95776,2.49225 -1.86877,2.49226 -1.77978,2.49225 -1.77977,2.67028 -1.77978,2.67027 -1.69079,2.67027 -1.60181,2.75929 -1.6018,2.9373 -1.51281,2.9373 -1.51281,2.9373 -1.33484,3.11532 -1.42382,3.11532 v 0 l 3.47057,-2.31424 3.29259,-2.13622 3.29259,-1.86919 3.11462,-1.78018 3.2036,-1.60217 3.11461,-1.42414 3.02563,-1.42415 3.02562,-1.24613 3.02563,-1.24612 2.93664,-1.24613 3.02562,-1.15712 3.02563,-1.15712 3.02562,-1.24613 3.02563,-1.24612 3.02562,-1.33514 v 0 l 0.089,-0.71207 0.35596,-1.60217 0.8009,-2.40324 1.06786,-3.02631 1.33484,-3.56037 1.42382,-3.9164 1.69079,-4.18343 1.69079,-4.45046 1.77978,-4.45045 1.77978,-4.27244 1.6018,-4.18343 1.60181,-3.82739 1.33483,-3.38235 1.15686,-2.75928 0.88989,-2.04721 0.53393,-1.24613 z"
         style="fill:#ffffff;fill-opacity:1;fill-rule:evenodd;stroke:none" />
      <path
         inkscape:connector-curvature="0"
         id="auge_l"
         d="m 220.3367,369.83291 0.53393,2.31424 0.8009,2.9373 1.06787,3.47135 1.06787,3.91641 1.24584,4.00541 1.33484,4.18343 1.24584,3.9164 1.33484,3.73838 1.24584,3.29334 1.15686,2.58126 1.06787,1.86919 v 0 l 1.69079,2.8483 2.13573,2.31423 2.31372,1.9582 2.49169,1.69118 2.58068,1.60216 2.58068,1.51316 2.49169,1.69117 2.31371,1.9582 2.13574,2.31424 1.69079,2.84829 v 0 l 0.88989,-3.82739 0.8009,-3.47136 0.8009,-3.29334 0.62292,-3.20432 0.44495,-3.02631 0.35595,-3.11532 0.089,-2.93731 -0.089,-3.11531 -0.44494,-3.11532 -0.8009,-3.38235 -1.06787,-3.47136 -1.6018,-3.73838 v 0 l -1.42382,-1.15712 -2.22473,-1.33514 -2.93664,-1.60216 -3.47057,-1.69117 -3.73753,-1.86919 -3.91552,-1.8692 -4.0045,-1.78018 -3.82653,-1.78018 -3.55956,-1.60217 -3.02562,-1.42414 z"
         style="fill:#ffffff;fill-opacity:1;fill-rule:evenodd;stroke:none" />
      <path
         inkscape:connector-curvature="0"
         id="nase"
         d="m 223.80727,423.23838 -0.17798,3.20433 -0.53393,3.02631 -0.80091,3.02631 -1.06786,2.9373 -1.42383,3.02631 -1.51281,2.8483 -1.77978,2.84829 -1.95776,2.84829 -2.04674,2.67027 -2.13574,2.75929 -2.22472,2.58126 -2.31372,2.58127 -2.31371,2.40324 -2.31371,2.40325 -2.22473,2.40325 -2.22472,2.22522 -2.13574,2.13622 -1.95775,2.04721 -1.77978,1.9582 -1.69079,1.86919 v 0 l -1.77978,3.91641 -0.62293,3.9164 0.26697,3.64937 0.97888,3.47136 1.33483,3.02631 1.60181,2.49225 1.69079,1.9582 v 0 l 2.31371,2.22523 3.47057,3.02631 4.62743,3.38235 v 0 l 3.02562,-2.58127 2.75866,-2.40324 2.58068,-2.49226 2.49169,-2.49225 2.22473,-2.58127 2.13573,-2.58126 2.04675,-2.84829 1.77978,-2.9373 1.77978,-3.20433 1.6018,-3.47136 v 0 l -3.11462,-1.42415 -3.55956,-1.51315 -3.73753,-1.24613 -3.82653,-1.15712 -4.0045,-0.80108 -3.91552,-0.53405 -3.73753,-0.26703 v 0 l -2.84765,0.53405 -3.73754,1.06811 -2.75866,0.44505 v 0 l 1.51282,-0.9791 1.69079,-1.15712 1.86877,-1.24613 2.13573,-1.33513 2.13574,-1.33514 2.22472,-1.51316 2.4027,-1.51315 2.31372,-1.69118 2.4027,-1.69117 2.4027,-1.78018 2.31371,-1.78018 2.22473,-1.9582 2.13573,-1.9582 2.04675,-2.04721 1.86877,-2.13622 1.69079,-2.13622 1.42382,-2.22523 1.15686,-2.22523 0.97888,-2.31424 0.62292,-2.31423 0.26697,-2.40325 v -2.49226 l -0.44495,-2.49225 -0.8009,-2.49226 -1.33483,-2.49225 z"
         style="fill:#ffffff;fill-opacity:1;fill-rule:evenodd;stroke:none" />
      <path
         inkscape:connector-curvature="0"
         id="kiefer"
         d="m 305.0542,456.08275 -2.93664,2.75928 -2.84764,2.67028 -2.66967,2.49225 -2.66967,2.49226 -2.58068,2.40325 -2.49169,2.31423 -2.49169,2.13622 -2.40271,2.13622 -2.4027,1.9582 -2.31371,1.9582 -2.31372,1.86919 -2.31371,1.78019 -2.22472,1.69117 -2.31372,1.60216 -2.31371,1.51316 -2.22472,1.51315 -2.31372,1.42415 -2.4027,1.24613 -2.31371,1.33513 -2.40271,1.15712 -2.49169,1.15712 -2.49169,1.06811 -2.58068,1.06811 -2.66967,0.89009 -2.66967,0.89009 -2.84764,0.89009 -2.93664,0.80109 -2.93664,0.71207 -3.2036,0.71207 -3.2036,0.71208 -3.29259,0.62306 -3.47057,0.53405 -3.64855,0.53406 -3.82653,0.53405 -3.91551,0.44505 v 0 h 2.22472 l 2.58068,0.44504 2.13574,1.24613 v 0 l 3.47057,0.26703 3.47057,0.089 3.38158,-0.089 3.29259,-0.089 3.2036,-0.35604 3.20361,-0.35603 3.2036,-0.53406 3.02562,-0.53405 3.02563,-0.62307 3.02562,-0.80108 2.93664,-0.80108 2.93664,-0.89009 2.93663,-0.9791 2.84765,-0.9791 2.84765,-1.15712 2.75866,-1.06811 2.75865,-1.06811 2.75866,-1.15712 2.75866,-1.15712 2.75866,-1.15712 2.66967,-1.15711 2.66967,-1.24613 2.75865,-1.15712 2.66967,-1.06811 2.75866,-1.06811 2.66967,-1.06811 2.75866,-1.06811 2.66967,-0.9791 2.75866,-0.89009 2.75865,-0.89009 2.75866,-0.71207 2.75866,-0.71208 2.84765,-0.62306 2.84765,-0.53406 2.93663,-0.44504 2.84765,-0.26703 2.93663,-0.17802 3.02563,-0.089 v 0 l -2.49169,-2.67027 -2.58068,-2.67027 -2.49169,-2.67028 -2.40271,-2.67027 -2.58068,-2.75928 -2.49169,-2.67028 -2.49169,-2.67027 -2.49169,-2.67027 -2.49169,-2.67028 z"
         style="fill:#ffffff;fill-opacity:1;fill-rule:evenodd;stroke:none" />
      <path
         inkscape:connector-curvature="0"
         id="rand"
         d="M 332.84608,3.5527951 A 328.76372,328.76372 0 0 0 4.082092,332.31679 328.76372,328.76372 0 0 0 332.84608,661.0808 328.76372,328.76372 0 0 0 661.61009,332.31679 328.76372,328.76372 0 0 0 332.84608,3.5527951 Z m 0,7.0084499 A 321.7556,321.7556 0 0 1 654.60164,332.31679 321.7556,321.7556 0 0 1 332.84608,654.07234 321.7556,321.7556 0 0 1 11.090542,332.31679 321.7556,321.7556 0 0 1 332.84608,10.561245 Z"
         style="fill:#ffffff;fill-opacity:1;stroke:none;stroke-width:13.37728214;stroke-miterlimit:4;stroke-dasharray:none;stroke-opacity:1" />
    </g>
  </g>
</svg>
