<?xml version="1.0" encoding="UTF-8" standalone="no"?><!DOCTYPE svg PUBLIC "-//W3C//DTD SVG 1.1//EN" "http://www.w3.org/Graphics/SVG/1.1/DTD/svg11.dtd"><svg width="100%" height="100%" viewBox="0 0 1553 1553" version="1.1" xmlns="http://www.w3.org/2000/svg" xmlns:xlink="http://www.w3.org/1999/xlink" xml:space="preserve" xmlns:serif="http://www.serif.com/" style="fill-rule:evenodd;clip-rule:evenodd;stroke-linecap:round;stroke-linejoin:round;"><ellipse cx="776.326" cy="776.326" rx="728.251" ry="728.251" style="fill:#fff;"/><g id="Ebene-1" serif:id="Ebene 1"><g id="g3421"><path id="stamm_silberfuechse" d="M229.845,873.033l0.789,5.52l0.394,5.521l-0.197,5.521l-1.183,10.647l-1.577,5.915l-2.168,4.14l-3.548,3.155l-5.125,2.957l-6.111,2.563l-7.294,1.578l-3.942,0.197l-2.76,-0.592l-1.971,-1.774l-0.986,-2.958l-0.197,-0.985l0.592,-2.366l2.168,-3.549l7.491,-8.084l1.971,-2.958l2.957,-5.915l0.985,-2.957l0.592,-2.958l-0,-2.957l-0.592,-4.929l-1.577,-3.549l-2.168,-2.366l-1.38,-0.789l-2.562,-0.197l-1.775,0.986l-1.577,2.366l-1.182,3.549l-3.154,16.365l-3.154,9.858l-2.76,5.52l-3.351,4.535l-3.745,3.944l-4.337,3.154l-4.731,2.169l-5.322,1.38l-3.548,0.395l-3.548,-0l-3.154,-0.395l-3.351,-0.591l-3.154,-1.183l-5.914,-3.155l-5.519,-4.732l-4.534,-5.718l-3.548,-6.703l-1.38,-3.746l-1.971,-8.281l-0.789,-6.507l0,-9.464l0.197,-3.943l-1.38,-4.338l-1.182,-3.746l-0.197,-1.577l0.394,-2.761l1.577,-2.957l2.365,-3.155l4.731,-4.732l5.125,-3.352l3.548,-1.38l3.746,-0.591l2.168,0.197l1.971,0.591l1.774,0.789l1.38,1.38l1.38,1.578l0.789,1.774l0.591,3.155l-0.394,2.366l-1.972,4.732l-5.322,8.675l-1.577,3.549l-0.985,4.14l-0,3.747l0.788,3.746l1.183,2.76l1.774,1.972l2.168,0.591l1.183,0l2.76,-1.38l0.985,-1.577l2.169,-5.521l1.182,-8.675l1.577,-11.239l1.38,-5.52l3.154,-7.295l2.76,-4.141l3.548,-2.957l3.942,-2.761l4.731,-1.971l5.125,-1.183l3.943,-0.395l3.548,-0.197l3.745,0.394l3.549,0.789l3.548,1.183l3.351,1.775l6.308,4.534l2.956,2.761l2.563,3.154l4.534,7.296l1.774,4.14l1.577,4.338l1.38,4.732l0.985,4.929l0,-0Zm-109.205,-142.157l-0.591,-2.563l-1.183,-5.323l0.197,-2.564l0.986,-2.76l2.168,-2.76l3.154,-2.76l6.308,-3.352l6.308,-2.169l4.337,-0.592l5.125,0.395l2.562,0.591l2.169,0.789l2.365,2.169l1.774,2.563l0.592,3.352l-0,2.957l-0.986,2.76l-1.774,2.761l-4.14,3.352l-7.687,4.337l-1.775,1.972l-0.394,1.183l0.394,1.577l0.986,1.183l1.774,0.592l3.351,0.197l10.645,0.394l30.159,1.578l7.491,-0.198l2.76,-0.591l2.562,-1.38l1.971,-2.366l1.972,-3.944l2.562,-2.168l1.971,-0.592l2.563,0.197l2.365,0.986l1.972,1.775l1.774,2.76l1.182,3.943l0.789,4.732l0.591,9.464l0,7.69l-0.788,9.266l-1.38,7.493l-2.365,5.52l-2.76,3.944l-2.169,1.183l-2.365,0.394l-2.168,-0.394l-1.774,-1.183l-2.169,-3.155l-1.774,-4.14l-1.183,-1.381l-3.745,-1.774l-5.716,-1.38l-8.477,-1.183l-15.966,-0.986l-16.953,-0.394l-5.913,0.591l-2.169,1.183l-0.788,1.972l0.591,1.971l3.154,3.155l7.688,6.112l2.562,3.155l1.183,2.76l0.394,2.958l-0.197,1.774l-0.591,1.577l-0.986,1.578l-2.957,2.366l-1.774,0.788l-1.971,0.395l-4.534,-0l-5.125,-1.578l-5.716,-2.563l-5.52,-3.352l-5.125,-4.337l-2.562,-3.549l-0.592,-2.366l0,-1.775l1.774,-6.112l1.577,-48.7l0,0Zm70.373,-85.175l1.379,-5.521l2.563,-10.253l1.38,-5.323l-6.308,0.986l-5.322,0.986l-4.337,0.985l-2.957,1.183l-1.971,0.986l-0.789,0.986l0.198,1.183l0.985,1.577l1.774,1.775l2.957,2.563l4.534,3.549l5.914,4.338l-0,-0Zm23.063,49.488l-1.972,-0.986l-1.577,-1.577l-0.985,-2.366l-0.986,-5.521l-1.774,-3.154l-6.505,-6.507l-11.433,-9.266l-32.328,-24.252l-10.447,-6.901l-7.491,-4.14l-2.168,-2.76l-0.394,-1.578l-0,-1.774l0.788,-4.929l1.774,-5.718l2.563,-4.338l3.154,-3.352l5.519,-3.351l7.491,-2.564l13.601,-3.351l21.881,-3.944l30.948,-5.126l6.702,-1.775l2.562,-1.38l3.943,-4.732l1.774,-1.183l2.168,-0.197l2.168,0.592l2.169,1.38l1.577,2.169l0.788,2.76l0.395,3.746l-0.198,4.338l-0.591,5.52l-3.154,13.802l-2.957,9.858l-2.957,6.704l-2.759,4.14l-1.971,1.775l-1.972,0.789l-2.365,-0.198l-2.76,-1.38l-1.774,-2.366l-1.577,-6.112l-0.788,-0.789l-1.774,-0.591l-1.38,0.197l-1.972,1.577l-2.562,4.535l-2.563,7.69l-2.759,10.844l-0.592,5.323l0.592,2.563l0.591,1.183l1.183,0.986l2.168,0.592l1.38,-0l1.774,-1.578l2.563,-3.746l1.379,-0.986l1.972,-0.394l3.351,0.592l2.562,1.971l0.986,1.972l0.788,2.563l0.197,3.155l-0.394,6.112l-2.365,9.858l-2.76,7.887l-2.562,4.14l-2.76,2.563l-2.957,1.183l-2.168,-0.197l-0,0Zm34.89,-127.96l-2.168,-2.169l-0.986,-2.169l-0.197,-2.366l0,-3.746l-0.788,-1.972l-4.928,-4.337l-11.828,-7.69l-27.202,-15.182l-6.505,-2.957l-2.957,-0.592l-2.563,0.198l-7.49,3.154l-2.169,0l-2.957,-0.591l-2.365,-2.169l-0.986,-1.972l-0.394,-2.366l0.591,-4.535l1.972,-5.717l4.533,-9.267l4.337,-6.704l4.534,-4.535l3.154,-0.788l8.87,-0.592l8.279,-0.197l17.544,-0.197l6.308,-0.789l2.366,-0.986l0.591,-1.38l-0.394,-2.366l-1.38,-2.957l-15.179,-22.28l-2.956,-5.126l-1.577,-4.929l-0.395,-2.958l0.198,-3.155l1.577,-5.717l2.956,-6.507l5.323,-8.478l3.351,-3.943l2.956,-1.972l2.169,-0.591l2.168,0.197l2.957,1.38l1.577,1.972l0.591,1.577l0.395,4.14l1.774,2.761l4.533,3.943l10.448,6.704l18.529,10.055l12.419,5.718l8.082,3.155l2.168,0.197l4.337,-2.366l2.168,-0.395l2.169,0.197l2.168,0.592l2.562,2.366l0.986,2.169l0.197,2.563l-0.788,4.929l-2.76,7.098l-6.111,11.633l-5.913,9.464l-3.943,4.14l-2.365,1.578l-2.169,0.788l-2.562,0l-2.957,-1.38l-1.971,-2.169l-0.986,-2.76l-0.394,-3.943l-1.38,-2.169l-3.942,-3.155l-12.419,-7.098l-3.351,-1.38l-1.774,0l-0.986,0.789l-0.788,1.38l0.394,1.577l1.971,3.746l19.515,25.238l3.548,6.112l0.986,3.154l-0.591,1.381l-2.563,1.183l-4.731,0.591l-11.236,-0.197l-12.615,-0.789l-12.025,-1.38l-4.731,0.197l-1.774,0.592l-0.394,0.591l-0.197,0.789l0.985,1.774l2.76,2.169l12.813,7.492l6.111,2.761l1.38,0.394l1.971,-0.197l5.716,-2.958l2.169,-0.591l2.168,0.394l2.562,1.578l1.577,2.366l0.395,1.971l-0.592,3.944l-1.774,5.126l-5.716,10.647l-3.351,4.732l-3.943,3.943l-2.957,1.183l-1.774,0l-1.971,-0.591l0,-0Zm69.781,-125.398l-1.774,-2.76l-0.394,-2.169l0.394,-2.366l1.183,-3.549l-0.197,-1.38l-1.577,-3.155l-7.491,-8.675l-12.419,-12.619l-16.558,-15.379l-4.928,-3.549l-3.942,-1.183l-7.885,1.381l-2.366,-0.395l-2.562,-1.38l-1.38,-1.774l-0.789,-3.155l0.198,-2.563l1.774,-4.141l3.154,-4.929l6.899,-7.689l5.913,-5.521l4.534,-2.957l1.577,-0.592l4.14,0.394l12.418,2.761l19.91,4.929l6.308,0.789l2.365,-0.395l1.183,-1.183l0.197,-2.366l-1.38,-5.323l-7.096,-19.322l-2.366,-7.887l-0.591,-3.549l-0.197,-3.352l0.394,-3.155l1.774,-4.731l3.351,-5.127l6.899,-7.689l4.928,-4.141l3.943,-2.366l2.365,-0.591l2.169,-0l2.956,1.38l2.169,1.972l0.788,2.563l-0.591,5.126l0.394,1.775l1.971,3.549l6.308,7.689l16.953,16.168l13.01,10.844l7.096,4.929l2.168,0.789l4.731,-0.986l1.183,-0.197l3.154,0.788l2.562,2.169l1.183,1.972l0.197,2.366l-0.197,2.563l-1.183,2.957l-3.548,5.521l-5.716,6.901l-9.265,9.464l-5.519,4.732l-4.534,2.169l-1.183,0.394l-2.562,0.197l-2.169,-0.592l-2.76,-2.168l-1.182,-2.563l-0.197,-1.972l0.394,-4.929l-0.789,-2.366l-2.956,-4.141l-10.054,-9.858l-3.154,-1.972l-1.576,-0.591l-1.38,0.394l-0.789,1.183l-0.197,1.775l0.986,3.943l12.024,27.8l1.971,6.112l0.789,3.155l-0.197,2.366l-0.789,1.183l-1.971,0.592l-2.76,-0.198l-4.336,-0.788l-11.631,-3.352l-9.659,-3.352l-11.235,-4.14l-4.731,-1.183l-1.972,0.197l-0.788,1.183l-0,0.788l0.986,2.169l8.673,9.07l7.885,6.704l1.971,1.183l2.168,0.591l2.366,-0.591l2.562,-0.789l2.563,-0.197l1.971,0.394l1.774,1.183l1.38,1.577l0.591,1.775l0.197,1.972l-0.591,2.168l-1.971,3.944l-3.548,4.732l-8.279,8.675l-4.337,3.352l-3.548,1.774l-1.971,0.395l-2.76,-0.395l-1.577,-1.183l-0,0Zm171.89,-140.776l-4.928,2.76l-5.126,2.366l-10.644,3.549l-7.096,1.38l-3.943,0.395l-4.534,-0.592l-4.336,-2.169l-4.534,-3.746l-4.534,-4.929l-4.139,-6.112l-1.577,-3.549l-0.395,-1.577l0,-1.381l0.986,-2.366l2.168,-1.971l2.169,-0.789l2.562,0l4.534,1.183l8.476,3.549l3.351,0.986l6.702,0.591l6.111,-0.788l2.76,-0.986l2.76,-1.38l3.153,-2.366l2.169,-2.761l0.591,-1.577l0.197,-1.183l-0.197,-1.577l-1.183,-1.775l-2.168,-0.986l-3.154,-0.394l-6.899,0.986l-11.63,2.169l-7.097,0.591l-6.505,-0.197l-5.913,-0.986l-5.125,-1.774l-4.731,-2.563l-4.14,-3.155l-3.351,-4.14l-3.154,-5.521l-1.38,-3.155l-0.788,-3.154l-0.592,-3.352l0,-3.352l0.198,-3.352l1.577,-6.703l3.154,-6.704l4.336,-5.915l5.717,-5.521l6.899,-4.732l5.914,-2.957l12.615,-4.732l6.702,-5.324l2.563,-1.183l3.154,0l5.519,1.183l6.111,2.958l3.548,2.169l3.943,4.14l1.774,3.352l0.788,2.169l0.197,1.774l-0.197,1.972l-0.788,1.972l-0.986,1.774l-2.957,2.563l-2.168,0.789l-2.957,0.394l-5.519,-0.591l-8.082,-1.775l-3.943,0l-3.942,0.592l-3.745,1.38l-3.154,1.972l-2.169,2.168l-0.788,0.986l-0.394,2.563l0.197,1.183l1.38,2.169l1.38,0.592l3.745,0.788l5.519,-0.591l7.097,-1.38l11.038,-2.761l5.717,-0.788l2.76,-0l5.125,0.394l4.731,1.38l4.336,1.775l3.746,2.76l3.548,3.549l2.957,4.338l1.971,3.549l1.38,3.549l0.985,3.549l0.592,3.746l-0,3.549l-0.395,3.746l-0.788,3.746l-1.38,3.746l-1.577,3.746l-4.337,6.901l-2.759,3.352l-6.702,6.309l-8.082,5.521l-0,-0Zm58.939,-45.743l-0.394,-2.168l0.197,-2.169l1.971,-3.549l2.76,-4.141l0.197,-2.169l-0.394,-3.746l-3.943,-12.224l-12.418,-33.124l-1.775,-3.549l-2.365,-2.76l-3.351,-1.183l-3.351,-0.789l-2.563,-1.38l-1.577,-2.366l-0.394,-2.366l0.394,-2.366l1.38,-2.366l3.943,-3.549l5.716,-3.549l10.842,-4.929l11.236,-3.549l6.505,-1.183l3.351,0l1.577,0.197l3.351,1.578l1.577,1.774l0.788,2.169l0,1.774l-0.985,3.155l-2.957,4.535l-0.197,2.563l1.577,6.901l7.096,20.702l8.279,21.688l3.154,5.915l1.971,1.381l5.717,1.971l2.759,1.578l1.577,2.168l0.395,2.366l-0.395,2.366l-1.379,2.366l-3.746,3.549l-5.913,3.549l-11.039,4.929l-8.674,2.761l-7.096,1.38l-5.914,0.197l-3.153,-0.394l-2.366,-1.183l-1.577,-1.775l-0.394,-0.986l-0,0Zm135.028,-28.589l-46.718,8.873l-1.971,0.197l-1.774,-0.197l-2.957,-1.183l-2.168,-2.366l-0.789,-1.577l-0.591,-2.761l0.197,-1.971l1.38,-2.958l4.534,-4.732l0.985,-2.957l0.197,-3.944l-0.985,-9.464l-6.899,-36.081l-1.972,-7.492l-1.38,-2.366l-0.985,-0.789l-5.322,-1.183l-2.169,-1.183l-1.38,-1.577l-0.788,-2.169l-0,-2.366l0.986,-2.366l1.971,-2.169l4.928,-2.957l6.702,-2.761l8.87,-2.366l12.813,-2.169l7.491,-0.394l5.913,0.789l2.957,0.986l1.971,1.38l1.183,1.971l0.394,2.366l0,0.986l-0.591,1.972l-1.38,1.972l-5.519,4.732l-0.592,0.985l-0.394,1.183l0.197,3.747l2.366,15.181l6.308,33.124l1.38,4.141l1.577,2.168l2.365,0.986l3.154,0l4.534,-0.591l4.731,-1.38l4.336,-2.564l2.957,-3.154l0.986,-2.169l0.788,-3.746l0.197,-2.958l1.577,-3.351l1.183,-1.578l1.774,-0.591l1.971,-0.197l1.972,0.197l1.774,0.788l1.577,0.986l2.562,3.155l0.789,1.972l0.591,2.168l0.591,4.929l-0.591,5.915l-0.986,6.113l-1.774,4.929l-2.168,3.549l-2.76,2.366l-2.168,0.788l-9.265,0l-8.673,1.183l-0,0Zm64.064,-7.886l-5.125,-0.197l-3.154,-0.986l-2.562,-1.972l-1.183,-2.563l-0,-2.563l0.591,-1.775l1.971,-2.169l4.337,-2.76l1.183,-1.577l1.38,-4.141l1.182,-7.098l0.789,-15.181l0.788,-30.364l-0.394,-6.309l-0.591,-2.563l-1.577,-1.775l-4.928,-2.366l-1.774,-1.577l-1.183,-1.775l-0.197,-1.971l0.197,-1.972l0.591,-1.38l0.986,-1.38l2.365,-1.578l3.154,-0.788l2.563,-0.395l21.092,0.592l18.135,-0l13.01,0.197l7.885,0.986l6.702,1.577l5.519,2.169l4.14,2.957l1.774,1.775l2.563,4.14l1.379,4.93l0.592,5.717l-0.395,3.944l-1.182,3.943l-1.577,3.352l-1.971,2.76l-6.308,4.929l-0.789,1.38l0.986,1.381l6.899,2.563l2.563,1.38l2.365,1.774l2.76,3.549l2.168,4.141l0.986,3.155l0.394,3.351l0.197,3.549l-0.197,3.352l-1.38,6.112l-0.985,2.958l-2.957,5.126l-4.14,4.535l-5.125,3.549l-5.914,2.563l-6.505,1.38l-7.293,0.395l-54.8,-0.986Zm33.511,-37.659l-0,13.21l0.197,4.732l0.591,2.563l0.789,1.38l1.577,0.789l2.365,0.394l3.351,-0.394l2.76,-1.183l2.365,-1.972l1.38,-2.76l1.183,-3.549l0.394,-4.14l-0.394,-4.141l-0.986,-3.352l-1.577,-2.563l-2.562,-1.774l-3.154,-0.986l-4.14,-0.394l-1.577,-0l-0.985,0.197l-0.592,0.394l-0.591,0.592l-0.197,1.183l-0.197,1.774l-0,0Zm0.197,-22.28l-0,1.381l0.394,0.788l0.394,0.592l0.395,0.197l0.591,0.197l0.986,0l3.351,-0.197l2.759,-0.986l1.774,-1.774l1.577,-2.366l0.789,-3.155l0.394,-4.141l-0.197,-4.732l-0.788,-3.351l-1.38,-2.366l-1.972,-1.775l-2.759,-0.986l-3.746,-0.394l-0.788,-0l-0.591,0.197l-0.197,0.197l-0.395,0.197l-0.197,0.395l-0.197,0.591l-0,0.197l0.197,0.395l0,5.915l-0.197,9.858l-0.197,5.126l-0,0Zm131.677,77.289l-53.223,-12.224l-1.38,-0.591l-1.774,-1.972l-0.985,-2.366l-0,-1.38l0.788,-3.155l1.774,-1.972l2.76,-1.38l4.534,-1.774l1.971,-1.972l2.76,-5.323l3.942,-11.83l5.322,-22.083l2.563,-12.816l0.591,-6.309l0,-3.155l-0.591,-1.971l-5.322,-5.127l-1.183,-2.366l-0.197,-1.971l0.788,-2.563l0.986,-1.381l1.183,-0.985l1.379,-0.789l4.14,-0.394l2.562,-0l42.382,10.252l15.966,2.958l11.631,1.577l2.365,0.789l2.957,2.563l2.168,3.746l0.591,3.352l0.198,3.549l-0.592,5.915l-1.182,4.732l-1.775,3.943l-1.379,1.38l-1.577,0.986l-1.577,0.592l-1.577,0.394l-2.957,-0.789l-2.563,-1.774l-2.562,-3.944l-1.774,-4.14l-2.563,-3.352l-3.942,-2.76l-4.928,-1.972l-9.856,-2.366l-4.337,0l-1.774,0.395l-1.577,1.971l-2.366,6.704l-2.168,8.872l0,2.958l0.788,1.183l2.563,0.986l4.928,0.985l1.971,-0.394l1.577,-1.577l3.548,-6.704l1.775,-2.169l1.971,-1.38l2.168,0l2.366,0.789l2.365,2.366l0.986,1.971l0.788,4.338l-0.197,5.521l-1.183,6.901l-2.168,7.886l-2.563,6.507l-2.956,4.534l-3.154,2.564l-2.366,0.591l-1.183,0l-2.365,-0.394l-1.774,-1.183l-0.789,-1.775l-0.394,-1.38l0.197,-8.478l-0.591,-2.169l-1.38,-1.38l-2.76,-0.789l-3.154,-0.197l-2.168,0.592l-1.38,2.366l-1.774,6.506l-1.577,8.873l0,2.76l0.592,1.774l1.182,1.183l3.943,1.775l6.308,1.774l3.548,0.592l6.505,0.591l2.562,-0.197l5.125,-1.38l5.323,-3.352l5.322,-4.929l3.154,-1.774l2.168,-0.395l2.76,0.789l2.563,1.774l0.788,1.183l0.591,1.578l0.395,1.774l-0.592,3.944l-1.577,5.323l-2.365,5.126l-5.125,7.098l-4.731,4.732l-3.154,1.972l-1.971,0.197l-2.76,-0.986l-10.25,-3.943l-11.039,-3.155Zm117.681,-19.322l0.394,0.592l0.592,0.394l0.591,0.591l0.592,0.198l0.394,0.394l0.591,0.197l2.957,0.986l2.76,0.197l2.562,-0.986l2.366,-1.774l2.168,-3.155l2.365,-4.14l1.38,-3.352l0.592,-2.958l-0.197,-2.563l-0.986,-2.366l-1.971,-1.774l-2.563,-1.578l-1.577,-0.591l-1.183,-0l-1.379,0.394l-1.183,1.775l-1.774,2.76l-1.971,4.338l-0.592,1.183l-1.183,2.366l-0.591,1.183l-0.394,0.985l-0.591,1.183l-0.395,0.986l-0.591,1.38l-0.591,1.578l-0.592,1.577l0,0Zm-7.096,15.773l-8.279,16.957l-0.789,2.957l0,2.169l1.183,2.169l1.774,3.154l0.591,2.169l0,1.972l-0.394,1.972l-2.168,2.76l-2.168,0.986l-2.366,0.197l-4.928,-0.592l-6.899,-2.366l-12.222,-5.323l-7.885,-4.338l-5.519,-3.943l-3.154,-3.746l-1.183,-2.169l0,-2.366l0.592,-2.366l0.985,-1.577l2.76,-1.578l2.76,-0.591l2.957,-0.197l1.774,-0.986l4.928,-6.901l6.899,-12.224l11.236,-23.66l4.534,-10.844l0.591,-3.746l-0,-0.986l-3.942,-6.31l-0.592,-2.168l0.592,-2.958l1.774,-1.972l1.577,-0.985l2.168,-0.395l3.548,0.395l6.702,1.971l11.236,5.324l20.304,9.267l12.813,5.915l6.702,4.14l5.322,4.338l4.139,4.732l2.76,4.929l1.38,5.126l0.394,2.563l-0.788,5.324l-1.971,5.718l-2.957,4.732l-1.577,1.971l-1.971,1.577l-4.534,2.564l-5.125,1.38l-5.126,0.394l-1.971,0.592l-0.591,0.788l0.394,1.38l2.168,2.564l3.549,3.549l1.182,1.774l0.986,2.169l0.591,2.366l0.789,5.323l-0.197,2.958l-1.38,6.901l-2.169,8.281l-0.197,2.957l0.395,1.183l2.365,2.366l1.971,3.352l0.197,1.972l-0.394,1.774l-1.38,1.775l-1.774,1.577l-2.759,0.986l-4.929,0.197l-5.716,-0.986l-6.505,-2.169l-7.294,-3.746l-3.942,-2.957l-3.154,-2.958l-1.971,-3.352l-1.183,-3.746l-0.591,-4.929l0.394,-5.718l0.986,-6.506l0.788,-3.746l0.789,-7.887l-0.198,-4.535l-0.985,-3.549l-1.577,-2.563l-3.351,-1.775l-1.774,-0.197l-0,0Zm62.487,67.234l2.563,-2.169l2.365,-0.591l2.563,-0l4.337,0.591l2.759,-1.38l3.745,-3.549l10.448,-12.619l16.361,-21.885l5.716,-9.07l0.789,-1.971l-0.394,-1.972l-2.563,-5.126l0,-1.775l0.592,-2.366l1.971,-2.366l2.168,-1.183l2.76,-0.197l1.971,0.394l4.731,2.169l8.673,6.507l11.039,8.872l17.741,13.013l20.698,13.802l1.577,2.957l0.197,2.958l-0.592,5.323l-1.971,5.521l-1.774,3.549l-3.942,5.323l-2.957,2.169l-1.577,0.394l-1.577,0.197l-1.38,-0.197l-1.577,-0.394l-2.168,-1.577l-1.577,-2.563l-0.789,-3.944l-0.591,-6.112l-1.183,-4.535l-0.985,-2.169l-2.76,-3.943l-4.731,-4.14l-5.519,-4.141l-3.154,-1.183l-1.774,0l-2.563,1.775l-5.914,6.309l-4.533,5.718l-0.198,1.183l0.395,1.183l4.731,3.549l2.365,0.788l1.183,0.198l2.365,-0.986l5.125,-3.549l2.169,-0.592l0.985,0l2.957,1.38l2.168,2.761l0.592,1.971l-0.197,3.944l-1.972,4.732l-3.548,5.718l-6.702,8.675l-4.731,4.929l-4.336,3.155l-2.76,1.183l-2.366,0.197l-3.548,-0.789l-1.971,-1.577l-0.986,-1.775l-0.197,-2.169l0.789,-2.76l2.957,-5.915l0.394,-2.563l-0.197,-1.775l-1.577,-2.168l-3.351,-2.366l-1.38,-0.592l-1.38,0.592l-3.942,4.929l-6.111,9.069l-2.366,4.93l-0.197,1.774l3.943,5.915l0.985,2.563l0,1.183l-0.788,2.366l-1.577,2.169l-2.169,1.38l-2.562,0.789l-1.38,-0l-5.125,-1.183l-3.943,-1.775l-10.25,-6.506l-10.842,-8.675l-5.716,-5.718l-3.351,-4.929l-0.986,-2.958l-0.197,-2.563l0.789,-2.563l0.788,-1.183l0,-0Zm137.197,41.01l6.307,-5.915l1.577,-2.168l0.789,-2.169l-0.394,-6.901l0.985,-2.76l1.183,-1.381l2.168,-1.183l2.957,-0.394l3.154,0.592l3.548,1.577l5.914,3.943l6.308,5.915l8.082,9.661l4.139,5.915l2.366,4.732l0.591,2.563l-0.197,2.366l-0.789,2.169l-2.562,2.366l-2.366,0.986l-2.562,0.197l-4.337,-1.183l-2.365,-0.591l-3.548,1.577l-6.111,3.943l-20.107,16.365l-5.913,6.309l-2.366,3.747l-1.577,3.746l-0.197,3.352l0.592,3.549l1.774,3.746l2.759,3.746l3.746,3.746l4.139,2.563l4.337,1.183l2.168,0.197l1.971,-0.197l3.549,-1.577l7.49,-4.732l20.895,-17.154l6.702,-6.309l2.563,-3.549l0.197,-1.577l-1.38,-6.309l0,-0.986l0.789,-2.169l0.985,-1.183l1.774,-0.986l2.169,-0.394l2.168,0.591l4.139,1.972l4.534,3.549l6.702,6.704l4.731,6.703l2.169,4.338l0.985,3.746l-0.197,2.169l-0.788,1.774l-1.38,1.578l-1.774,0.985l-1.774,0.395l-2.366,-0l-5.125,-1.578l-2.168,0.395l-4.337,1.774l-6.505,4.535l-20.501,16.168l-9.856,6.9l-7.293,3.944l-2.957,0.986l-5.717,1.183l-5.913,0.197l-5.914,-1.183l-5.913,-2.366l-5.914,-3.352l-5.914,-4.535l-5.913,-5.521l-5.914,-7.295l-5.125,-7.689l-3.351,-7.492l-1.577,-7.69l-0.394,-3.746l0.197,-3.746l0.394,-3.549l0.788,-3.352l1.183,-3.155l1.577,-3.154l2.169,-2.958l2.365,-2.76l28.583,-24.449l-0,0Zm74.708,8.873l1.972,-1.183l1.971,-0.789l2.365,0l2.169,0.394l1.774,0.986l1.774,1.38l1.183,1.972l0.788,2.169l0.197,2.169l-0.591,2.169l-0.986,1.971l-1.577,1.775l-1.971,1.183l-1.971,0.591l-2.168,0.197l-2.366,-0.591l-1.971,-0.986l-1.577,-1.38l-1.183,-1.972l-0.788,-2.169l-0,-2.168l0.394,-2.169l0.985,-1.972l1.577,-1.577l0,-0Zm-19.515,-22.871l1.972,-1.183l2.168,-0.789l2.168,-0.197l2.169,0.591l1.971,0.986l1.577,1.577l1.38,1.972l0.591,1.972l0.197,2.169l-0.394,2.168l-1.183,1.972l-1.577,1.775l-1.774,1.183l-2.168,0.788l-2.168,0l-2.169,-0.394l-1.971,-0.986l-1.774,-1.577l-1.183,-1.972l-0.591,-1.972l-0.197,-2.366l0.591,-2.168l0.986,-1.972l1.379,-1.577l0,-0Zm15.376,220.628l-7.096,-4.14l-3.352,-2.761l-5.913,-5.718l-2.563,-3.154l-4.534,-7.295l-3.351,-8.084l-2.168,-8.084l-0.591,-5.521l0.394,-8.083l1.577,-8.084l1.774,-5.324l1.971,-4.337l2.169,-3.944l2.365,-3.746l2.957,-3.549l3.351,-3.154l3.351,-2.958l3.745,-2.563l6.111,-3.352l7.096,-2.563l7.688,-1.577l7.885,-0.395l4.928,0.198l5.322,0.788l4.928,1.183l7.097,2.76l6.505,3.944l6.11,4.732l5.323,5.52l4.139,6.31l2.957,5.915l1.38,3.746l2.365,10.252l1.183,6.901l4.534,5.718l0.788,2.563l0,1.578l-0.591,3.154l-1.38,3.549l-2.365,3.746l-4.337,4.732l-5.322,3.944l-4.928,2.366l-4.337,0.985l-2.76,-0.197l-3.942,-1.183l-3.154,-2.366l-2.365,-3.351l-0.986,-2.761l-0.197,-3.352l0.985,-3.549l5.323,-10.055l1.577,-6.112l0.394,-3.155l-0,-2.957l-1.183,-5.324l-1.971,-4.337l-3.351,-3.747l-2.76,-1.774l-2.957,-0.986l-3.351,-0.591l-3.548,0.394l-5.519,1.972l-5.125,2.563l-5.52,4.14l-4.534,4.929l-3.745,5.521l-2.562,6.309l-1.183,6.112l-0,3.155l0.197,2.76l1.577,5.718l2.562,5.127l3.154,3.943l3.943,3.352l4.534,2.76l6.505,2.957l1.379,1.381l0.592,1.183l-0,1.38l-0.789,2.76l-2.168,2.76l-3.154,2.169l-5.125,1.972l-4.14,0.591l-3.745,-0.197l-4.534,-0.986l-2.168,-0.788l-2.168,-2.169l-1.183,-2.169l-0,0Zm16.952,32.927l2.169,-0.395l1.971,0.592l2.76,2.169l2.562,2.957l2.366,0.592l5.913,-0.592l11.63,-2.169l25.232,-6.309l11.63,-3.549l3.942,-1.577l1.972,-1.38l0.591,-1.381l0.789,-3.943l0.985,-1.774l1.38,-1.578l1.971,-0.788l2.169,-0.197l2.365,0.788l2.168,1.578l3.154,4.14l1.971,3.943l2.76,7.295l3.154,12.422l1.183,7.689l0.197,3.944l-0.197,3.154l-0.789,2.366l-1.38,1.972l-1.774,1.183l-2.168,0.591l-1.971,-0.197l-3.154,-1.38l-3.745,-3.154l-1.774,-0.789l-2.169,-0.197l-7.293,1.38l-5.717,1.774l-1.971,0.986l-0.986,1.578l-0.197,2.168l0.789,4.732l2.562,8.873l1.774,3.746l1.577,1.183l2.76,0.197l8.673,-2.169l4.928,-2.366l1.774,-1.577l1.183,-2.563l1.183,-3.155l1.38,-1.38l2.365,-1.183l2.366,-0.197l2.365,0.591l3.154,2.366l2.76,4.338l2.759,7.295l3.746,13.21l1.38,8.281l0.591,6.112l-0.394,3.155l-0.789,2.366l-1.38,1.774l-1.971,1.183l-1.971,0.592l-2.168,-0.197l-1.972,-0.789l-3.745,-3.155l-2.168,-1.971l-2.76,-0.197l-5.322,0.591l-17.938,4.141l-21.289,5.52l-11.433,3.944l-2.563,1.183l-0.985,1.183l-1.183,4.14l-1.183,1.775l-2.365,1.774l-2.366,0.789l-1.183,-0l-2.365,-0.789l-2.168,-1.38l-1.972,-2.366l-2.956,-4.929l-3.549,-10.056l-2.562,-12.224l-0.789,-4.929l-0.197,-4.141l0.789,-4.929l1.182,-2.169l1.577,-1.774l2.366,-0.789l2.168,-0.394l2.366,0.591l3.548,2.169l2.365,2.169l2.366,0.789l2.365,-0l12.616,-2.761l3.548,-1.183l1.774,-1.38l0.789,-1.577l-0.197,-3.746l-2.563,-10.056l-2.168,-4.929l-1.577,-1.774l-2.957,-0.592l-3.745,0.592l-8.871,2.76l-5.519,2.563l-1.577,1.38l-1.971,5.127l-2.169,2.168l-1.774,0.789l-2.365,0.197l-2.366,-0.788l-2.168,-1.578l-2.957,-3.943l-2.957,-6.112l-2.759,-8.281l-2.169,-9.07l-0.985,-7.492l-0,-3.943l0.788,-4.732l1.183,-2.169l2.76,-2.169l1.182,-0.197l0,-0Zm19.712,172.717l0,-5.718l0.395,-5.52l0.788,-5.521l2.76,-10.45l2.365,-5.718l1.774,-2.563l2.76,-2.563l2.168,-1.183l5.52,-2.366l3.154,-0.789l6.899,-1.183l3.745,-0.197l3.746,0.395l2.759,0.985l0.986,0.789l0.986,2.563l0.197,2.563l-0.789,2.366l-1.38,2.169l-9.659,8.084l-4.533,5.126l-1.577,2.761l-1.38,2.957l-0.789,2.958l-0.591,2.957l-0.197,2.958l0.591,3.943l1.38,3.155l2.168,1.971l1.38,0.592l1.38,0.197l0.986,-0.197l1.774,-1.381l2.562,-4.534l3.943,-12.422l4.336,-10.055l3.351,-5.521l3.549,-4.535l4.139,-3.746l4.534,-2.957l4.731,-1.972l5.322,-0.986l2.76,-0.197l6.899,0.394l3.154,0.789l3.154,1.183l5.914,3.155l2.562,2.366l4.928,5.323l1.971,2.958l1.774,3.351l1.38,3.549l1.972,7.493l0.788,4.14l0.197,7.493l-0.394,6.703l-1.774,9.858l0.394,3.155l1.183,5.324l-0.394,2.76l-1.38,2.76l-2.366,2.958l-5.125,4.14l-5.519,3.155l-3.548,1.183l-3.549,0.394l-2.365,0l-1.971,-0.394l-1.774,-0.789l-2.957,-2.76l-0.986,-1.577l-0.591,-1.972l-0.394,-1.972l0.394,-2.366l1.971,-3.943l5.322,-6.704l3.548,-4.337l2.169,-5.718l0.591,-3.746l-0.197,-3.944l-0.788,-2.76l-1.577,-2.169l-2.169,-0.986l-1.182,0l-1.38,0.198l-1.38,0.788l-2.366,3.155l-2.168,4.732l-4.928,17.942l-3.548,7.887l-2.76,4.337l-3.351,3.549l-3.942,2.761l-4.337,1.971l-4.731,1.183l-5.322,0.592l-3.943,-0l-3.745,-0.592l-3.548,-0.789l-3.548,-1.182l-3.154,-1.578l-3.154,-2.169l-2.76,-2.563l-2.76,-2.957l-2.562,-3.155l-2.168,-3.549l-1.775,-3.746l-1.576,-3.943l-1.38,-4.338l-0.986,-4.535l-0.591,-4.732l-0.395,-4.929Zm-6.505,125.397l8.674,-52.051l0.985,-2.958l1.774,-1.971l2.366,-1.183l2.957,-0l2.562,0.985l1.972,1.972l2.759,6.309l1.183,1.38l4.928,2.366l10.842,2.958l17.741,3.549l22.274,3.155l4.534,0.197l3.942,-0.592l1.775,-0.986l4.139,-4.929l2.366,-1.38l1.971,-0.197l2.562,0.591l1.577,0.789l0.986,1.183l0.788,1.38l0.592,1.775l0.197,2.169l-0,2.563l-7.688,42.785l-1.971,15.97l-0.789,11.83l-0.788,2.366l-1.38,2.169l-1.971,1.774l-4.14,1.972l-3.548,0.789l-5.716,0.197l-6.702,-1.183l-4.14,-1.775l-1.38,-1.183l-1.183,-1.38l-0.788,-1.577l-0.197,-1.775l0.394,-2.76l0.789,-1.972l1.576,-1.577l7.097,-3.943l3.351,-2.958l2.365,-3.943l1.774,-5.126l1.38,-8.084l0.197,-4.732l-0.394,-2.169l-0.788,-1.577l-2.76,-1.38l-8.082,-1.972l-6.505,-0.986l-2.957,0.197l-0.985,0.789l-1.183,2.563l-0.591,3.549l0.197,2.563l0.985,1.578l2.563,1.38l5.322,2.366l2.563,1.774l1.38,1.972l0.197,2.169l-1.38,3.154l-1.38,1.578l-3.548,1.577l-4.731,0.789l-5.914,-0.198l-10.447,-1.577l-7.096,-2.169l-5.323,-2.563l-3.351,-2.957l-1.183,-1.972l-0.394,-1.183l0.197,-2.563l0.592,-2.169l1.38,-1.183l2.365,-0.789l8.279,-0.394l2.168,-0.591l1.38,-1.578l0.789,-2.76l-0,-3.352l-0.789,-1.972l-2.562,-1.183l-9.068,-1.774l-7.885,-0.592l-3.154,0.789l-1.182,1.183l-1.774,5.915l-1.577,8.084l-0,6.309l0.394,2.958l1.577,4.929l2.957,4.337l6.11,5.521l1.972,3.352l0.197,1.972l-0.395,2.76l-0.591,1.577l-2.168,1.972l-3.154,0.986l-1.971,0.197l-4.928,-0.789l-7.885,-2.957l-7.491,-4.535l-5.125,-4.535l-1.774,-1.972l-0.591,-1.774l0.394,-2.76l3.745,-11.633l2.366,-11.239l-0.001,0Z" style="fill:#8d1c22;"/><path id="erlangen" d="M305.54,1228.13l-37.65,-40.616l-1.183,-2.563l0,-1.183l0.591,-2.563l1.774,-2.563l2.366,-1.38l2.76,-0.395l6.702,1.775l0.985,-0l2.957,-0.986l6.111,-3.746l10.842,-8.873l18.923,-17.35l8.279,-8.873l2.76,-3.943l0.591,-2.169l-1.577,-6.112l0,-2.76l1.38,-2.563l2.169,-1.775l1.379,-0.591l1.577,-0.198l1.774,0.198l1.775,0.788l3.942,2.76l29.765,32.533l14.39,13.999l6.308,5.323l1.971,3.352l0.592,2.563l-0.198,2.76l-0.788,3.155l-2.563,4.732l-2.365,3.155l-5.125,4.732l-1.971,1.38l-1.972,0.788l-1.971,0.395l-1.774,0.197l-1.774,-0.394l-2.957,-1.972l-1.577,-2.76l-0.394,-2.366l0.394,-3.549l0.789,-4.535l-0.197,-4.338l-1.775,-4.535l-2.956,-4.534l-6.9,-7.296l-3.548,-2.563l-1.774,-0.788l-1.577,0.197l-3.548,2.169l-7.294,6.309l-3.745,4.14l-0.788,1.578l0.197,0.788l1.38,2.564l3.548,3.351l1.971,0.986l0.986,0l2.759,-1.183l5.323,-2.957l2.759,-0.986l2.563,0.197l1.774,1.183l1.774,2.957l0.394,2.366l-0.788,3.549l-2.366,4.338l-3.745,4.732l-7.885,7.098l-6.111,4.535l-5.125,2.563l-3.154,0.789l-2.759,0.197l-2.366,-0.789l-1.971,-1.577l-1.38,-1.775l-0.197,-1.971l0.986,-2.366l4.731,-6.901l0.985,-2.366l-0.591,-1.775l-1.774,-2.366l-2.366,-2.168l-2.168,-0.592l-2.76,1.38l-6.899,6.31l-4.337,4.534l-2.168,3.352l-0,1.775l1.577,3.154l5.322,6.507l4.928,4.732l5.125,3.352l2.366,0.985l2.562,0.789l5.323,0.197l8.279,-1.183l3.745,0.197l2.76,1.578l1.774,2.957l0.394,1.578l0,1.38l-0.197,1.577l-1.971,3.155l-3.548,3.549l-4.731,3.154l-5.323,2.563l-5.519,1.972l-4.928,1.183l-3.548,0.197l-1.971,-0.197l-2.563,-1.774l-7.491,-10.647l-7.49,-8.873l-0,0Zm125.763,30.167l0.394,0.591l0.592,0.395l0.394,0.591l0.591,0.394l0.395,0.395l0.394,0.394l2.957,1.577l2.759,0.395l2.563,-0.395l2.76,-1.577l2.759,-2.563l2.957,-3.746l1.774,-3.352l1.183,-2.958l0.197,-2.563l-0.591,-2.366l-1.38,-1.971l-2.366,-2.169l-1.577,-0.789l-1.379,-0.197l-1.38,0.197l-1.38,1.38l-2.366,2.761l-2.759,3.746l-0.789,1.183l-1.38,2.169l-0.788,1.183l-0.591,0.985l-0.789,0.986l-0.591,0.986l-0.789,1.183l-0.788,1.577l-0.986,1.578l0,-0Zm-9.462,14.393l-11.63,16.759l-1.183,2.957l0.198,1.972l1.971,4.929l0.197,2.366l-0.591,2.958l-2.169,2.563l-1.971,0.986l-2.365,0.197l-4.337,-0.789l-6.111,-2.76l-10.644,-6.704l-10.054,-7.689l-5.125,-4.732l-2.562,-4.338l-0.592,-2.563l0,-0.986l0.592,-2.366l1.182,-1.774l2.76,-1.381l2.366,-0.591l4.928,0.394l2.562,-1.577l6.702,-7.295l9.068,-12.027l14.784,-21.688l4.731,-7.493l1.183,-3.549l0.197,-1.183l-2.957,-6.901l-0.197,-2.168l0.394,-1.972l1.971,-2.169l1.577,-0.986l1.971,-0.394l3.549,0.591l5.913,2.564l10.251,6.703l12.024,8.281l16.952,11.239l6.702,4.929l5.323,5.323l3.942,5.324l1.577,2.563l1.971,5.521l0.592,2.76l-0,2.563l-0.197,2.76l-1.577,5.127l-1.183,2.76l-3.351,4.732l-4.14,3.746l-2.168,1.38l-2.365,1.183l-5.126,1.183l-4.336,0l-4.731,-0.394l-1.38,0.789l-0.197,1.183l1.971,3.351l2.76,4.141l0.985,1.972l0.986,4.929l-0,2.563l-0.789,5.718l-1.971,5.915l-4.139,8.675l-0.592,2.957l0.197,1.381l2.563,3.943l0.789,2.366l-0,1.972l-0.789,1.577l-1.577,1.774l-2.365,1.183l-2.563,0.592l-5.125,-0.592l-3.745,-1.183l-5.914,-2.76l-6.505,-4.338l-4.14,-3.549l-2.956,-3.549l-2.169,-3.549l-0.985,-3.943l-0.197,-4.338l0.788,-5.126l1.774,-6.112l3.745,-11.041l1.183,-5.324l0.197,-4.337l-0.788,-3.549l-1.577,-2.366l-2.169,-1.578l-1.774,-0.591l0,-0Zm118.273,111.596l-46.521,-19.323l-2.365,-2.366l-0.788,-1.577l-0.395,-1.38l-0.197,-1.577l0.197,-1.775l0.986,-2.76l2.168,-2.169l3.154,-1.38l5.125,-1.38l2.563,-1.775l3.154,-4.535l4.928,-10.252l13.01,-31.547l2.365,-7.689l0.197,-2.761l-0.591,-1.183l-3.745,-3.943l-1.183,-1.972l-0.394,-2.366l0.394,-2.168l1.577,-2.169l1.971,-1.38l2.957,-0.789l3.745,-0l6.9,0.986l8.279,2.366l9.462,3.746l8.081,3.943l5.914,3.944l3.943,3.746l1.379,2.366l0.592,2.366l-0.592,2.366l-1.774,2.563l-1.971,0.986l-2.563,0.788l-5.125,0.395l-2.168,0.788l-1.774,2.366l-7.294,15.971l-13.01,31.546l-0.985,4.338l-0.197,2.169l0.985,1.971l2.366,1.972l5.125,2.366l6.308,1.577l2.562,0.395l3.154,-0.592l2.169,-0.788l3.942,-3.155l3.942,-3.943l1.972,-1.381l1.971,-0.394l1.774,0.197l1.774,0.986l1.38,1.38l1.183,1.38l0.788,1.775l0.591,2.169l0,1.971l-0.394,2.366l-1.774,4.338l-2.957,4.535l-6.308,6.901l-4.336,3.351l-3.745,1.775l-2.563,0.591l-1.183,0l-2.562,-0.985l-7.688,-4.732l-7.885,-3.549l0,-0Zm112.95,-12.619l5.52,0.986l10.447,1.774l5.717,0.986l-1.38,-6.309l-1.577,-5.126l-1.38,-4.338l-1.38,-2.958l-1.182,-1.971l-0.986,-0.592l-1.183,0.197l-1.38,1.183l-1.774,1.972l-2.365,3.155l-3.154,4.732l-3.943,6.309l0,0Zm-48.491,27.209l0.788,-2.169l1.577,-1.577l2.168,-1.38l4.14,-0.789l1.577,-0.197l2.957,-2.169l4.928,-5.718l7.885,-11.041l22.471,-34.701l6.9,-12.027l3.351,-7.69l1.182,-1.774l2.563,-2.169l2.366,-0.789l3.351,0l5.913,0.986l5.125,1.774l3.943,2.564l3.351,3.549l2.957,5.126l4.139,10.45l3.746,12.421l6.11,23.266l6.111,25.434l2.168,6.704l1.38,2.169l4.534,3.154l2.168,2.563l0.395,2.169l-0.395,2.366l-1.182,2.169l-0.986,0.986l-2.365,1.38l-3.154,0.789l-6.505,0.591l-8.674,-0.591l-14.784,-2.761l-9.265,-2.168l-6.11,-2.366l-2.76,-1.775l-2.365,-2.76l-0.395,-2.366l0.395,-2.169l0.788,-1.775l2.168,-1.971l6.111,-2.169l0.986,-1.775l0.197,-0.788l-0.986,-1.972l-2.168,-1.774l-3.745,-1.775l-7.885,-1.972l-11.236,-1.971l-5.322,-0l-2.563,0.591l-1.183,0.789l-1.38,2.563l0,1.577l0.986,1.775l4.731,2.76l1.183,1.38l0.591,1.972l-0.394,3.352l-1.774,2.563l-3.154,1.972l-4.534,0.788l-3.942,0.198l-7.097,-0.789l-7.49,-1.38l-6.111,-1.775l-4.337,-2.366l-2.957,-2.563l-0.985,-1.774l-0.394,-2.169l0.197,-0.986l-0,-0Zm165.187,-16.759l-1.38,-17.351l-1.38,-8.675l-1.774,-5.718l-1.577,-2.76l-6.899,-3.746l-1.774,-2.169l-0.788,-2.563l0.197,-2.366l0.788,-2.169l2.76,-2.563l4.534,-1.775l9.659,-1.774l10.25,-0.592l4.928,0.197l3.942,1.578l7.097,4.929l28.977,23.265l8.87,5.718l2.365,1.183l1.972,-0.394l0.985,-1.38l0.395,-3.352l-0.592,-12.027l-0.788,-3.549l-1.183,-2.169l-2.168,-1.775l-4.14,-1.774l-1.971,-2.169l-0.591,-1.971l-0.198,-2.366l0.592,-2.169l1.577,-2.563l3.154,-1.775l3.154,-0.986l6.702,-1.183l8.673,-0.591l6.899,-0l4.928,0.788l3.351,1.183l1.774,2.366l0.789,1.972l-0,3.746l-0.789,1.972l-1.379,1.972l-5.126,3.351l-1.379,2.563l-0.789,5.521l-0.394,15.576l1.774,39.236l-0.197,8.084l-0.592,4.929l-1.182,3.943l-1.971,2.958l-1.183,0.986l-1.38,0.394l-2.366,0.394l-2.956,-0.985l-4.928,-2.761l-11.039,-8.084l-33.708,-27.8l-5.519,-3.549l-1.774,-0.789l-1.183,0.198l-1.774,1.577l-0.789,2.76l-0.197,6.901l1.183,9.661l0.986,4.338l1.182,2.76l1.774,1.775l3.943,1.971l1.971,2.366l0.788,2.563l-0.197,2.366l-0.788,2.169l-1.577,1.775l-3.351,2.169l-4.928,1.577l-6.308,1.183l-7.491,0.394l-6.308,-0.591l-4.73,-1.183l-3.352,-1.775l-1.577,-1.774l-0.788,-1.972l-0.197,-2.169l0.985,-2.563l2.169,-2.366l4.139,-3.746l0.986,-2.366l0.591,-3.746l0.197,-10.056l-0.591,-12.618l0,-0Zm131.677,-16.168l-1.577,-7.689l-0.394,-5.127l-0,-5.126l0.788,-5.323l2.169,-7.887l3.351,-7.492l4.139,-6.901l3.154,-3.746l3.548,-3.746l5.914,-4.732l6.702,-3.944l4.928,-2.168l5.322,-1.972l4.731,-1.183l4.731,-0.789l5.125,-0.394l8.674,-0.197l2.168,-0.789l5.322,-3.943l2.169,-0.789l1.38,0l2.956,0.592l4.534,2.168l2.957,2.564l3.745,4.929l2.169,3.943l2.168,5.915l0.394,4.338l-0.591,3.746l-1.577,3.352l-2.76,2.563l-3.745,1.577l-3.745,0.592l-3.746,-0.198l-1.774,-0.788l-11.827,-7.493l-2.563,-1.183l-2.562,-0.788l-2.563,-0.394l-2.562,-0.198l-2.563,0.395l-4.534,1.183l-3.745,2.169l-2.957,2.563l-2.365,3.549l-1.774,3.943l-0.789,4.14l-0.197,4.535l0.788,4.929l1.972,6.507l3.351,7.295l3.942,6.309l4.731,5.521l5.322,4.338l5.323,2.957l5.322,1.38l2.562,0.197l2.76,-0.394l3.943,-1.183l2.365,-1.972l0.591,-1.183l0.592,-3.154l-0.789,-3.746l-0.788,-1.578l-1.38,-1.183l-1.971,-0.394l-6.505,0.986l-1.38,-0l-2.76,-1.183l-1.971,-1.775l-1.183,-2.366l-0.591,-2.76l0.591,-2.76l1.774,-2.761l2.563,-2.563l5.716,-3.746l7.885,-3.549l10.053,-3.155l6.111,-1.577l5.717,-0.986l4.533,-0.197l3.943,0.394l1.774,0.395l2.76,1.183l1.971,1.971l1.183,2.564l0.394,2.76l-0.789,2.563l-1.774,2.563l-5.125,4.141l-0.197,0.986l-0,7.886l-0.986,5.718l-1.774,5.323l-2.365,4.732l-2.957,4.338l-3.548,3.943l-6.702,5.127l-5.323,3.154l-9.461,3.944l-9.265,2.563l-8.673,1.38l-5.323,0.197l-5.519,-0.394l-7.688,-1.38l-7.49,-2.366l-6.9,-3.747l-6.11,-4.731l-5.323,-5.718l-4.533,-6.507l-3.746,-7.492l-1.971,-5.521l0,0Zm210.723,-30.166l-48.098,27.406l-2.76,0.394l-2.562,-0.591l-1.971,-1.775l-1.38,-2.169l-0.395,-2.563l0.592,-2.563l2.562,-5.521l0.395,-1.774l-0.395,-2.366l-2.168,-6.506l-6.111,-12.619l-12.813,-22.28l-5.913,-9.069l-4.14,-4.535l-1.971,-0.986l-6.308,-0l-2.76,-0.789l-2.168,-1.774l-1.183,-2.366l-0.197,-1.578l0.197,-1.577l0.592,-1.577l2.562,-3.352l5.323,-3.549l31.342,-17.351l14.587,-8.872l12.813,-9.07l2.562,-0.986l2.563,-0.197l2.562,0.395l2.957,1.183l4.14,2.957l3.942,4.535l3.351,5.915l1.183,4.338l0,1.971l-0.394,1.775l-0.592,1.577l-2.562,2.366l-2.168,0.789l-2.169,0.197l-2.76,-0.592l-5.913,-2.563l-4.534,-0.788l-4.731,0.788l-5.125,1.775l-8.87,5.323l-3.154,2.761l-1.38,2.365l0.394,1.775l2.76,6.506l4.731,7.887l1.971,2.366l1.38,0.197l2.759,-0.788l4.337,-2.761l1.183,-1.577l-0,-0.986l-0.394,-2.957l-1.577,-5.718l-0.198,-2.958l0.592,-2.169l1.577,-1.577l2.168,-0.986l2.168,-0.197l3.549,1.183l3.548,2.563l3.745,4.141l5.322,8.478l3.351,7.295l1.972,6.112l0.394,3.549l-0.197,2.761l-0.986,2.563l-1.577,1.774l-3.154,1.577l-0.788,0l-1.577,-0.394l-2.957,-2.563l-4.337,-4.929l-1.971,-1.38l-0.986,-0.197l-2.365,0.788l-2.76,1.578l-1.971,1.971l-0.394,0.986l0.788,2.76l3.154,6.112l4.928,7.493l2.957,2.76l1.577,0.394l3.351,-0.788l7.491,-3.746l5.716,-3.747l4.337,-4.14l2.957,-4.535l0.985,-2.366l0.592,-3.746l0.591,-7.295l0.591,-2.563l1.972,-2.563l2.365,-1.381l1.577,-0.394l1.577,0l1.577,0.197l1.577,0.789l2.563,2.563l2.365,4.141l2.168,5.323l1.38,5.915l0.789,5.718l-0.395,6.901l-0.591,2.563l-0.986,1.774l-2.759,1.578l-5.914,2.168l-10.447,4.732l-5.125,2.958l-0,-0Zm41.395,-83.993l-12.024,-12.618l-6.702,-5.915l-4.928,-3.352l-2.76,-0.986l-2.563,0.197l-5.322,0.986l-1.971,-0.197l-2.366,-0.986l-2.168,-2.563l-0.591,-2.169l0.197,-2.563l1.577,-3.943l3.745,-4.93l8.279,-8.478l5.322,-4.337l3.154,-1.775l5.914,-0.986l18.332,-0.394l21.486,-0l10.448,-0.592l4.534,-0.985l1.577,-1.183l0.197,-1.38l-0.395,-1.775l-2.365,-3.155l-7.096,-7.886l-2.76,-2.169l-2.365,-0.789l-1.38,-0.197l-3.549,0.789l-0.985,0.394l-2.168,0.197l-2.76,-0.986l-2.366,-2.366l-1.182,-1.971l-0.197,-1.972l0.197,-2.169l1.774,-3.549l3.942,-4.732l8.082,-7.689l5.322,-4.338l4.14,-2.563l2.365,-0.986l2.957,0l1.971,0.789l2.563,2.563l1.183,2.169l0.394,1.972l-0.591,2.76l-1.183,3.155l-0,2.366l0.591,2.366l4.534,6.9l11.433,13.999l22.472,24.843l6.308,8.478l2.365,4.141l0.986,3.549l-0,1.774l-0.394,1.38l-1.774,2.563l-2.366,1.183l-5.125,1.183l-11.63,0.789l-25.429,0l-12.813,-0.197l-10.447,-0l-5.914,0.591l-1.183,0.592l-1.182,1.972l-0,1.183l1.182,2.76l4.14,5.323l7.096,7.098l4.928,3.549l2.169,0.789l5.913,-0.986l2.957,0.394l2.169,1.578l1.576,1.971l0.592,3.352l-0.789,3.549l-1.379,2.958l-3.154,4.337l-6.703,6.704l-5.322,4.14l-4.731,2.564l-4.139,1.183l-2.169,-0l-2.956,-1.578l-1.972,-2.169l-0.394,-2.76l0.394,-3.746l0.592,-3.943l-1.38,-3.352l-5.914,-8.281l-10.053,-11.436l0,0Z" style="fill:#8d1c22;"/><path id="kopf" d="M1158.09,437.888l-29.371,19.322l-27.203,16.956l-76.877,45.546l-26.612,16.759l-19.12,13.21l-18.53,14.59l-18.135,16.168l-12.221,12.224l-6.111,6.507l-6.899,-3.155l-9.068,-2.76l-10.644,-2.169l-12.222,-1.775l-13.798,-1.38l-15.179,-0.591l-16.361,-0l-17.544,0.591l-18.332,1.38l-19.318,2.366l-19.909,2.958l-20.501,3.943l-21.092,4.929l-21.091,5.718l-21.487,6.901l-10.841,3.943l-10.645,4.141l-23.852,-12.422l-34.693,-19.914l-34.102,-21.294l-67.81,-43.376l-22.668,-14.196l-12.419,-17.548l-5.519,-8.281l-4.929,-8.478l-6.899,-13.013l-6.11,-13.998l-3.746,-10.253l-7.688,3.549l-6.702,4.535l-5.913,4.929l-4.928,5.718l-3.943,6.309l-3.548,6.901l-2.76,7.295l-2.168,7.689l-1.577,8.084l-1.183,8.478l-0.591,8.873l-0,17.942l0.986,18.533l1.379,16.562l1.775,13.999l2.168,13.605l4.337,20.11l3.153,13.013l3.746,12.816l8.476,25.04l9.265,24.843l30.948,73.346l17.938,25.237l-6.9,-17.351l-6.702,-17.35l-6.11,-17.351l-5.717,-17.548l-5.125,-17.547l-4.731,-17.745l-6.111,-27.012l-5.125,-27.406l-4.337,-27.997l-2.168,-19.323l-2.562,-29.18l-1.38,-30.167l-0.395,-20.702l0,-10.45l7.097,0l11.039,14.985l5.716,6.901l12.025,12.815l12.615,11.436l13.207,10.253l13.602,9.464l14.192,8.872l21.684,12.421l44.549,23.858l22.472,13.012l22.472,14.196l14.587,10.845l14.39,12.027l27.794,-11.042l17.741,-6.309l25.428,-7.689l16.558,-3.944l16.361,-2.957l8.082,-1.183l16.164,-1.38l15.967,-0.592l15.967,0.789l16.361,1.577l16.361,2.76l16.953,3.747l17.346,4.929l17.938,6.309l18.53,7.295l9.461,4.141l26.809,-26.223l26.611,-24.646l13.404,-11.83l26.809,-22.083l13.798,-10.449l13.799,-10.056l13.995,-9.464l14.193,-9.464l22.078,-13.21l22.669,-12.224l24.048,-11.436l7.885,-3.746l0.789,12.816l-0,18.533l-0.789,17.351l-0.985,11.041l-1.38,10.647l-1.577,10.647l-2.168,10.056l-4.731,19.125l-5.914,18.533l-7.096,17.548l-7.491,17.153l-8.476,16.76l-36.862,68.81l-9.264,18.534l-9.265,19.519l-8.871,20.9l0,10.844l9.265,30.166l8.279,30.758l5.322,23.463l4.14,24.449l1.774,16.364l0.986,15.576l-0,14.985l-0.986,14.196l-0.788,7.098l-2.169,13.604l-3.154,13.211l-3.745,12.815l-4.337,12.225l-5.322,12.027l-8.87,16.956l-10.448,16.365l-11.433,15.576l-12.616,14.787l-13.601,14.196l-19.515,17.745l-20.501,16.956l-21.486,16.365l-21.88,15.379l-87.916,58.755l17.938,-3.549l50.069,-25.237l31.933,-17.153l21.092,-12.224l21.092,-13.013l20.304,-13.999l10.053,-7.295l19.121,-15.379l17.938,-16.562l12.418,-13.21l11.433,-13.605l10.448,-14.393l9.264,-15.182l5.323,-10.449l4.731,-10.844l4.139,-11.042l4.928,-17.548l2.168,-12.027l1.577,-12.421l0.789,-16.168l0.197,-9.858l-0.591,-19.717l-1.38,-19.519l-1.971,-19.519l-2.366,-19.323l-8.476,-56.192l-2.168,-5.718l-2.76,-11.238l-0.789,-5.324l-0.394,-5.323l0,-5.126l0.394,-4.93l0.789,-4.929l2.365,-9.661l3.549,-9.267l4.336,-9.069l5.125,-8.873l11.828,-17.745l18.923,-27.011l8.871,-14.591l4.928,-9.858l8.082,-19.322l5.716,-14.393l5.125,-14.393l7.097,-21.886l5.716,-22.082l4.534,-22.28l2.168,-14.985l1.183,-15.181l0.394,-14.985l-0.394,-14.985l-1.577,-14.984l-2.562,-14.985l-1.577,-7.492l-4.337,-14.985l-5.52,-14.787l-10.841,-3.549l-0,-0Z" style="fill:#8d1c22;"/><path id="stirn" d="M783.953,670.741l-68.204,157.535l114.922,-157.535l-46.718,-0Z" style="fill:#8d1c22;stroke:#000;stroke-width:0.2px;"/><path id="backe_r" d="M880.936,863.963l21.487,85.964l-0,25.238l-3.548,10.647l-17.939,7.098l-35.876,7.295l-87.127,3.352l-3.154,-0.198l-6.111,0.789l-8.673,2.169l-8.279,3.352l-14.981,7.098l-15.376,8.478l43.17,-7.295l154.937,-3.549l10.842,-1.578l11.827,-2.957l8.279,-3.352l4.337,-2.76l2.956,-3.352l1.774,-3.352l0.789,-3.746l-0,-3.352l-0.789,-4.338l-15.375,-49.882l-28.78,-57.376l-14.39,-14.393Z" style="fill:#8d1c22;stroke:#000;stroke-width:0.2px;"/><path id="backe_l" d="M469.545,821.178l-4.928,6.901l-4.534,6.506l-4.14,6.31l-3.745,6.309l-3.154,6.112l-2.957,6.31l-2.759,6.506l-2.366,6.506l-2.168,6.901l-1.971,7.493l-1.972,8.083l-1.774,8.478l-1.774,9.464l0.592,8.873l1.971,8.872l3.154,8.676l3.745,8.478l4.337,8.084l4.731,7.689l4.928,7.098l4.73,6.309l4.337,5.324l3.943,4.535l2.956,3.351l1.972,2.169l0.788,0.592l4.534,3.746l9.067,7.098l5.52,4.535l-2.957,-7.887l-2.76,-7.689l-2.759,-7.493l-2.563,-7.098l-2.563,-7.098l-2.365,-6.9l-2.168,-6.704l-3.943,-13.013l-1.774,-6.309l-3.154,-12.619l-1.182,-6.309l-0.986,-6.112l-0.986,-6.31l-0.591,-6.309l-0.591,-6.506l-0.198,-6.507l0,-6.704l0.198,-6.703l0.394,-6.901l0.788,-7.098l0.789,-7.295l1.183,-7.492l1.379,-7.69l1.774,-8.084l1.972,-8.478Z" style="fill:#8d1c22;"/><path id="auge_r" d="M799.131,836.557l-6.308,4.141l-6.11,3.943l-6.111,4.14l-5.914,4.141l-5.913,4.338l-5.717,4.337l-5.716,4.141l-5.52,4.534l-5.519,4.338l-5.323,4.535l-5.322,4.535l-5.125,4.732l-4.928,4.732l-5.125,4.732l-4.731,4.929l-4.731,4.929l-4.731,5.126l-4.336,5.127l-4.534,5.323l-4.337,5.521l-4.14,5.52l-3.942,5.521l-3.942,5.915l-3.943,5.915l-3.745,5.915l-3.548,6.112l-3.548,6.507l-6.703,13.012l-2.956,6.901l-3.154,6.901l7.687,-5.126l7.294,-4.732l7.293,-4.141l6.9,-3.943l7.096,-3.549l6.899,-3.155l6.702,-3.154l6.702,-2.761l6.703,-2.76l6.505,-2.76l6.702,-2.563l6.702,-2.564l6.702,-2.76l6.702,-2.76l6.702,-2.958l0.197,-1.577l0.789,-3.549l1.774,-5.323l2.365,-6.704l2.957,-7.887l3.154,-8.675l3.745,-9.267l3.746,-9.858l3.942,-9.858l3.943,-9.464l3.548,-9.267l3.548,-8.478l2.957,-7.493l2.562,-6.112l1.972,-4.535l1.182,-2.76l0,0Z" style="fill:#8d1c22;"/><path id="auge_l" d="M527.104,859.428l1.183,5.127l1.774,6.506l2.365,7.69l2.366,8.675l2.759,8.872l2.957,9.267l2.76,8.675l2.957,8.281l2.759,7.296l2.563,5.717l2.366,4.141l3.745,6.309l4.731,5.126l5.125,4.338l5.519,3.746l5.717,3.549l5.716,3.352l5.52,3.746l5.125,4.338l4.731,5.126l3.745,6.309l1.971,-8.478l1.774,-7.689l1.774,-7.295l1.38,-7.098l0.986,-6.704l0.788,-6.901l0.198,-6.506l-0.198,-6.901l-0.985,-6.901l-1.774,-7.492l-2.366,-7.69l-3.548,-8.28l-3.154,-2.564l-4.928,-2.957l-6.505,-3.549l-7.688,-3.746l-8.279,-4.141l-8.673,-4.14l-8.871,-3.944l-8.476,-3.943l-7.885,-3.549l-6.702,-3.154l-5.322,-2.564Z" style="fill:#8d1c22;"/><path id="nase" d="M534.792,977.728l-0.394,7.098l-1.183,6.703l-1.774,6.704l-2.366,6.507l-3.154,6.703l-3.351,6.309l-3.942,6.31l-4.337,6.309l-4.534,5.915l-4.731,6.112l-4.928,5.718l-5.125,5.718l-5.125,5.323l-5.125,5.324l-4.928,5.323l-9.659,9.661l-4.337,4.535l-3.942,4.338l-3.745,4.14l-3.943,8.676l-1.38,8.675l0.592,8.084l2.168,7.689l2.957,6.704l3.548,5.52l3.745,4.338l5.126,4.929l7.687,6.704l10.251,7.492l6.702,-5.718l6.11,-5.323l5.717,-5.521l5.519,-5.52l4.928,-5.718l4.731,-5.718l4.534,-6.309l3.942,-6.507l3.943,-7.098l3.548,-7.689l-6.899,-3.155l-7.885,-3.352l-8.279,-2.76l-8.476,-2.563l-8.871,-1.775l-8.673,-1.183l-8.279,-0.591l-6.308,1.183l-8.279,2.366l-6.111,0.986l3.351,-2.169l3.745,-2.563l4.14,-2.761l4.731,-2.957l4.731,-2.958l4.928,-3.351l5.322,-3.352l5.125,-3.746l5.323,-3.747l5.322,-3.943l5.125,-3.943l4.928,-4.338l4.731,-4.337l4.534,-4.535l4.139,-4.732l3.746,-4.732l3.153,-4.929l2.563,-4.93l2.168,-5.126l1.38,-5.126l0.592,-5.324l-0,-5.52l-0.986,-5.521l-1.774,-5.521l-2.957,-5.52l-3.745,-5.915Z" style="fill:#8d1c22;"/><path id="kiefer" d="M714.763,1050.48l-6.505,6.112l-6.307,5.915l-5.914,5.521l-5.914,5.52l-5.716,5.324l-5.52,5.126l-5.519,4.732l-5.322,4.732l-5.323,4.338l-5.125,4.337l-5.125,4.141l-5.125,3.943l-4.928,3.746l-5.125,3.549l-5.125,3.352l-4.928,3.352l-5.126,3.155l-5.322,2.76l-5.125,2.957l-5.322,2.564l-5.52,2.563l-5.519,2.366l-5.717,2.366l-11.827,3.943l-6.308,1.972l-6.505,1.774l-6.505,1.578l-7.096,1.577l-7.096,1.577l-7.294,1.38l-7.688,1.183l-8.082,1.183l-8.476,1.183l-8.673,0.986l4.928,0l5.716,0.986l4.731,2.76l7.688,0.592l7.688,0.197l7.49,-0.197l7.294,-0.197l7.096,-0.789l7.097,-0.789l7.096,-1.183l6.702,-1.183l6.702,-1.38l6.702,-1.774l6.505,-1.775l6.505,-1.971l6.505,-2.169l6.308,-2.169l6.308,-2.563l6.111,-2.366l6.111,-2.366l18.332,-7.69l5.913,-2.563l5.914,-2.76l6.111,-2.563l5.913,-2.366l6.111,-2.366l5.914,-2.366l6.111,-2.366l5.913,-2.169l6.111,-1.972l6.111,-1.971l6.111,-1.578l6.11,-1.577l6.308,-1.38l6.308,-1.183l6.505,-0.986l6.308,-0.592l6.505,-0.394l6.702,-0.197l-5.519,-5.915l-5.717,-5.915l-5.519,-5.915l-5.323,-5.915l-5.716,-6.112l-5.519,-5.915l-11.039,-11.83l-5.52,-5.915l0,-0Z" style="fill:#8d1c22;"/><path id="rand" d="M776.326,48.074l-0.001,0c-399.506,0 -728.251,328.745 -728.251,728.251l0,0.001c0,399.507 328.745,728.251 728.251,728.251l0.001,0c399.507,0 728.251,-328.744 728.251,-728.251l-0,-0.001c-0,-399.506 -328.744,-728.251 -728.251,-728.251Zm-0,15.525c390.99,0 712.726,321.736 712.726,712.727c0,390.99 -321.736,712.726 -712.726,712.726c-390.991,0 -712.727,-321.736 -712.727,-712.726c0,-390.991 321.736,-712.727 712.727,-712.727Z" style="fill:#8d1c22;fill-rule:nonzero;"/></g></g></svg>